<svg xmlns="http://www.w3.org/2000/svg" xmlns:xlink="http://www.w3.org/1999/xlink" width="1366" zoomAndPan="magnify" viewBox="0 0 1024.5 576" height="768" preserveAspectRatio="xMidYMid meet" version="1.0"><defs><g/><clipPath id="707d4f8b0b"><path d="M 0 166 L 1024 166 L 1024 169 L 0 169 Z M 0 166 " clip-rule="nonzero"/></clipPath><clipPath id="62e4368519"><path d="M 0 376 L 1024 376 L 1024 379 L 0 379 Z M 0 376 " clip-rule="nonzero"/></clipPath></defs><g clip-path="url(#707d4f8b0b)"><path stroke-linecap="butt" transform="matrix(0.749634, -0.000000000000000093, 0.000000000000000093, 0.749634, -44.73637, 166.65196)" fill="none" stroke-linejoin="miter" d="M -0.00255002 1.001 L 1482.908383 1.001 " stroke="#000000" stroke-width="2" stroke-opacity="1" stroke-miterlimit="4"/></g><g fill="#000000" fill-opacity="1"><g transform="translate(190.282447, 113.528686)"><g><path d="M 13.78125 0.34375 C 10.0625 0.34375 7.015625 -0.957031 4.640625 -3.5625 C 2.472656 -6.125 1.390625 -9.140625 1.390625 -12.609375 C 1.390625 -16.046875 2.519531 -19.066406 4.78125 -21.671875 C 7.269531 -24.253906 10.257812 -25.546875 13.75 -25.546875 C 14.988281 -25.546875 16.054688 -25.378906 16.953125 -25.046875 C 17.859375 -24.710938 18.609375 -24.363281 19.203125 -24 C 19.804688 -23.644531 20.285156 -23.46875 20.640625 -23.46875 C 21.097656 -23.46875 21.429688 -23.644531 21.640625 -24 C 21.847656 -24.363281 21.984375 -24.71875 22.046875 -25.0625 L 22.359375 -25.0625 L 22.359375 -17.234375 L 22.046875 -17.234375 C 21.753906 -18.484375 21.296875 -19.722656 20.671875 -20.953125 C 19.171875 -23.804688 16.863281 -25.234375 13.75 -25.234375 C 12.082031 -25.234375 10.722656 -24.867188 9.671875 -24.140625 C 8.628906 -23.421875 7.804688 -22.503906 7.203125 -21.390625 C 6.597656 -20.285156 6.160156 -19.140625 5.890625 -17.953125 C 5.628906 -16.765625 5.46875 -15.675781 5.40625 -14.6875 C 5.351562 -13.707031 5.328125 -13.015625 5.328125 -12.609375 C 5.328125 -9.367188 5.789062 -6.675781 6.71875 -4.53125 C 8.03125 -1.488281 10.382812 0.03125 13.78125 0.03125 C 15.226562 0.03125 16.472656 -0.207031 17.515625 -0.6875 C 20.054688 -1.863281 21.847656 -4.007812 22.890625 -7.125 L 23.375 -6.921875 L 23.328125 -6.859375 C 22.828125 -5.242188 21.953125 -3.773438 20.703125 -2.453125 C 18.953125 -0.585938 16.644531 0.34375 13.78125 0.34375 Z M 13.78125 0.34375 "/></g></g></g><g fill="#000000" fill-opacity="1"><g transform="translate(215.03069, 113.528686)"><g><path d="M 10.96875 -0.03125 L 1.03125 -0.03125 L 1.03125 -0.34375 L 4.265625 -0.34375 L 4.265625 -24.890625 L 1.03125 -24.890625 L 1.03125 -25.203125 L 10.96875 -25.203125 L 10.96875 -24.890625 L 7.796875 -24.890625 L 7.796875 -0.34375 L 10.96875 -0.34375 Z M 10.96875 -0.03125 "/></g></g></g><g fill="#000000" fill-opacity="1"><g transform="translate(227.041376, 113.528686)"><g><path d="M 12.84375 0.203125 L 12.5 0.203125 L 3.25 -24.890625 L 0 -24.890625 L 0 -25.203125 L 9.96875 -25.203125 L 9.96875 -24.890625 L 6.828125 -24.890625 L 14.296875 -4.640625 L 21.703125 -24.890625 L 19.078125 -24.890625 L 19.078125 -25.203125 L 24.265625 -25.203125 L 24.265625 -24.890625 L 22.015625 -24.890625 Z M 12.84375 0.203125 "/></g></g></g><g fill="#000000" fill-opacity="1"><g transform="translate(251.305038, 113.528686)"><g><path d="M 10.96875 -0.03125 L 1.03125 -0.03125 L 1.03125 -0.34375 L 4.265625 -0.34375 L 4.265625 -24.890625 L 1.03125 -24.890625 L 1.03125 -25.203125 L 10.96875 -25.203125 L 10.96875 -24.890625 L 7.796875 -24.890625 L 7.796875 -0.34375 L 10.96875 -0.34375 Z M 10.96875 -0.03125 "/></g></g></g><g fill="#000000" fill-opacity="1"><g transform="translate(263.315724, 113.528686)"><g><path d="M 20.640625 -0.03125 L 1.03125 -0.03125 L 1.03125 -0.34375 L 4.265625 -0.34375 L 4.265625 -24.890625 L 1.03125 -24.890625 L 1.03125 -25.203125 L 11.015625 -25.203125 L 11.015625 -24.890625 L 7.828125 -24.890625 L 7.828125 -0.34375 L 14.125 -0.34375 C 16.0625 -0.34375 17.453125 -0.613281 18.296875 -1.15625 C 19.140625 -1.695312 19.675781 -2.46875 19.90625 -3.46875 C 20.132812 -4.476562 20.257812 -5.695312 20.28125 -7.125 L 20.328125 -7.859375 L 20.640625 -7.859375 Z M 20.640625 -0.03125 "/></g></g></g><g fill="#000000" fill-opacity="1"><g transform="translate(284.994036, 113.528686)"><g/></g></g><g fill="#000000" fill-opacity="1"><g transform="translate(295.031785, 113.528686)"><g/></g></g><g fill="#000000" fill-opacity="1"><g transform="translate(305.069534, 113.528686)"><g/></g></g><g fill="#000000" fill-opacity="1"><g transform="translate(315.107283, 113.528686)"><g/></g></g><g fill="#000000" fill-opacity="1"><g transform="translate(325.145032, 113.528686)"><g/></g></g><g fill="#000000" fill-opacity="1"><g transform="translate(335.182781, 113.528686)"><g/></g></g><g fill="#000000" fill-opacity="1"><g transform="translate(345.222452, 113.528686)"><g><path d="M 1.34375 4.53125 L 1.03125 4.53125 L 1.03125 -27.484375 L 1.34375 -27.484375 Z M 1.34375 4.53125 "/></g></g></g><g fill="#000000" fill-opacity="1"><g transform="translate(347.61191, 113.528686)"><g/></g></g><g fill="#000000" fill-opacity="1"><g transform="translate(357.64966, 113.528686)"><g/></g></g><g fill="#000000" fill-opacity="1"><g transform="translate(367.687409, 113.528686)"><g/></g></g><g fill="#000000" fill-opacity="1"><g transform="translate(377.725158, 113.528686)"><g/></g></g><g fill="#000000" fill-opacity="1"><g transform="translate(387.762907, 113.528686)"><g/></g></g><g fill="#000000" fill-opacity="1"><g transform="translate(397.802253, 113.528686)"><g><path d="M 13.78125 0.34375 C 10.0625 0.34375 7.015625 -0.957031 4.640625 -3.5625 C 2.472656 -6.125 1.390625 -9.140625 1.390625 -12.609375 C 1.390625 -16.046875 2.519531 -19.066406 4.78125 -21.671875 C 7.269531 -24.253906 10.257812 -25.546875 13.75 -25.546875 C 14.988281 -25.546875 16.054688 -25.378906 16.953125 -25.046875 C 17.859375 -24.710938 18.609375 -24.363281 19.203125 -24 C 19.804688 -23.644531 20.285156 -23.46875 20.640625 -23.46875 C 21.097656 -23.46875 21.429688 -23.644531 21.640625 -24 C 21.847656 -24.363281 21.984375 -24.71875 22.046875 -25.0625 L 22.359375 -25.0625 L 22.359375 -17.234375 L 22.046875 -17.234375 C 21.753906 -18.484375 21.296875 -19.722656 20.671875 -20.953125 C 19.171875 -23.804688 16.863281 -25.234375 13.75 -25.234375 C 12.082031 -25.234375 10.722656 -24.867188 9.671875 -24.140625 C 8.628906 -23.421875 7.804688 -22.503906 7.203125 -21.390625 C 6.597656 -20.285156 6.160156 -19.140625 5.890625 -17.953125 C 5.628906 -16.765625 5.46875 -15.675781 5.40625 -14.6875 C 5.351562 -13.707031 5.328125 -13.015625 5.328125 -12.609375 C 5.328125 -9.367188 5.789062 -6.675781 6.71875 -4.53125 C 8.03125 -1.488281 10.382812 0.03125 13.78125 0.03125 C 15.226562 0.03125 16.472656 -0.207031 17.515625 -0.6875 C 20.054688 -1.863281 21.847656 -4.007812 22.890625 -7.125 L 23.375 -6.921875 L 23.328125 -6.859375 C 22.828125 -5.242188 21.953125 -3.773438 20.703125 -2.453125 C 18.953125 -0.585938 16.644531 0.34375 13.78125 0.34375 Z M 13.78125 0.34375 "/></g></g></g><g fill="#000000" fill-opacity="1"><g transform="translate(422.550496, 113.528686)"><g><path d="M 20.5625 -0.03125 L 1.03125 -0.03125 L 1.03125 -0.34375 L 4.21875 -0.34375 L 4.21875 -24.890625 L 1.03125 -24.890625 L 1.03125 -25.203125 L 19.21875 -25.203125 L 19.21875 -18.765625 L 18.9375 -18.765625 L 18.875 -19.5625 C 18.800781 -20.71875 18.640625 -21.691406 18.390625 -22.484375 C 18.148438 -23.285156 17.617188 -23.882812 16.796875 -24.28125 C 15.984375 -24.6875 14.617188 -24.890625 12.703125 -24.890625 L 7.75 -24.890625 L 7.75 -12.78125 L 9.765625 -12.78125 C 11.515625 -12.78125 12.796875 -13.226562 13.609375 -14.125 C 14.328125 -14.9375 14.726562 -16.179688 14.8125 -17.859375 L 15.09375 -17.859375 L 15.09375 -7.375 L 14.8125 -7.375 C 14.726562 -9.082031 14.328125 -10.328125 13.609375 -11.109375 C 12.796875 -12.015625 11.515625 -12.46875 9.765625 -12.46875 L 7.75 -12.46875 L 7.75 -0.34375 L 14.09375 -0.34375 C 15.988281 -0.34375 17.351562 -0.632812 18.1875 -1.21875 C 19.03125 -1.8125 19.570312 -2.660156 19.8125 -3.765625 C 20.0625 -4.878906 20.207031 -6.222656 20.25 -7.796875 L 20.25 -7.859375 L 20.5625 -7.859375 Z M 20.5625 -0.03125 "/></g></g></g><g fill="#000000" fill-opacity="1"><g transform="translate(444.148963, 113.528686)"><g><path d="M 21.703125 0.34375 L 21.359375 0.34375 C 21.429688 0.0390625 21.46875 -0.253906 21.46875 -0.546875 C 21.46875 -1.222656 21.222656 -1.992188 20.734375 -2.859375 C 20.253906 -3.722656 18.894531 -4.328125 16.65625 -4.671875 C 13.863281 -5.160156 11.910156 -6.894531 10.796875 -9.875 C 10.222656 -11.375 9.9375 -12.46875 9.9375 -13.15625 L 11.453125 -13.15625 C 14.503906 -13.15625 16.03125 -14.96875 16.03125 -18.59375 C 16.03125 -19.71875 15.925781 -20.753906 15.71875 -21.703125 C 15.207031 -23.828125 13.625 -24.890625 10.96875 -24.890625 L 7.796875 -24.890625 L 7.796875 -0.34375 L 11.015625 -0.34375 L 11.015625 -0.03125 L 1.03125 -0.03125 L 1.03125 -0.34375 L 4.296875 -0.34375 L 4.296875 -24.890625 L 1.03125 -24.890625 L 1.03125 -25.203125 L 10.9375 -25.203125 C 13.632812 -25.203125 15.75 -24.707031 17.28125 -23.71875 C 18.9375 -22.601562 19.765625 -20.953125 19.765625 -18.765625 C 19.765625 -16.984375 19.117188 -15.585938 17.828125 -14.578125 C 16.398438 -13.472656 14.320312 -12.894531 11.59375 -12.84375 L 10.28125 -12.8125 C 10.300781 -12.53125 10.40625 -12.171875 10.59375 -11.734375 C 10.988281 -10.671875 12.570312 -9.816406 15.34375 -9.171875 C 16.75 -8.847656 18.164062 -8.34375 19.59375 -7.65625 C 21.1875 -6.75 22.003906 -5.175781 22.046875 -2.9375 C 22.046875 -2.019531 21.988281 -1.25 21.875 -0.625 Z M 21.703125 0.34375 "/></g></g></g><g fill="#000000" fill-opacity="1"><g transform="translate(467.581916, 113.528686)"><g><path d="M 20.5625 -0.03125 L 1.03125 -0.03125 L 1.03125 -0.34375 L 4.21875 -0.34375 L 4.21875 -24.890625 L 1.03125 -24.890625 L 1.03125 -25.203125 L 19.21875 -25.203125 L 19.21875 -18.765625 L 18.9375 -18.765625 L 18.875 -19.5625 C 18.800781 -20.71875 18.640625 -21.691406 18.390625 -22.484375 C 18.148438 -23.285156 17.617188 -23.882812 16.796875 -24.28125 C 15.984375 -24.6875 14.617188 -24.890625 12.703125 -24.890625 L 7.75 -24.890625 L 7.75 -12.78125 L 9.765625 -12.78125 C 11.515625 -12.78125 12.796875 -13.226562 13.609375 -14.125 C 14.328125 -14.9375 14.726562 -16.179688 14.8125 -17.859375 L 15.09375 -17.859375 L 15.09375 -7.375 L 14.8125 -7.375 C 14.726562 -9.082031 14.328125 -10.328125 13.609375 -11.109375 C 12.796875 -12.015625 11.515625 -12.46875 9.765625 -12.46875 L 7.75 -12.46875 L 7.75 -0.34375 L 14.09375 -0.34375 C 15.988281 -0.34375 17.351562 -0.632812 18.1875 -1.21875 C 19.03125 -1.8125 19.570312 -2.660156 19.8125 -3.765625 C 20.0625 -4.878906 20.207031 -6.222656 20.25 -7.796875 L 20.25 -7.859375 L 20.5625 -7.859375 Z M 20.5625 -0.03125 "/></g></g></g><g fill="#000000" fill-opacity="1"><g transform="translate(489.180383, 113.528686)"><g><path d="M 29.90625 -0.03125 L 19.984375 -0.03125 L 19.984375 -0.34375 L 23.15625 -0.34375 L 23.15625 -24.40625 L 14.015625 -0.03125 L 13.671875 -0.03125 L 4.53125 -24.234375 L 4.53125 -0.34375 L 7.71875 -0.34375 L 7.71875 -0.03125 L 1.03125 -0.03125 L 1.03125 -0.34375 L 4.21875 -0.34375 L 4.21875 -24.890625 L 1.03125 -24.890625 L 1.03125 -25.203125 L 7.71875 -25.203125 L 15.515625 -4.8125 L 23.125 -25.203125 L 29.90625 -25.203125 L 29.90625 -24.890625 L 26.6875 -24.890625 L 26.6875 -0.34375 L 29.90625 -0.34375 Z M 29.90625 -0.03125 "/></g></g></g><g fill="#000000" fill-opacity="1"><g transform="translate(520.124341, 113.528686)"><g><path d="M 13.75 0.34375 C 10.257812 0.34375 7.269531 -0.957031 4.78125 -3.5625 C 2.519531 -6.175781 1.390625 -9.191406 1.390625 -12.609375 C 1.390625 -16.046875 2.519531 -19.066406 4.78125 -21.671875 C 7.269531 -24.253906 10.257812 -25.546875 13.75 -25.546875 C 17.226562 -25.546875 20.21875 -24.253906 22.71875 -21.671875 C 24.976562 -19.066406 26.109375 -16.046875 26.109375 -12.609375 C 26.109375 -9.191406 24.976562 -6.175781 22.71875 -3.5625 C 20.21875 -0.957031 17.226562 0.34375 13.75 0.34375 Z M 13.75 0.03125 C 16.726562 0.03125 18.96875 -1.316406 20.46875 -4.015625 C 21.757812 -6.328125 22.40625 -9.191406 22.40625 -12.609375 C 22.40625 -15.742188 21.828125 -18.5 20.671875 -20.875 C 19.148438 -23.78125 16.84375 -25.234375 13.75 -25.234375 C 10.675781 -25.234375 8.378906 -23.78125 6.859375 -20.875 C 5.703125 -18.5 5.125 -15.742188 5.125 -12.609375 C 5.125 -9.191406 5.769531 -6.328125 7.0625 -4.015625 C 8.5625 -1.316406 10.789062 0.03125 13.75 0.03125 Z M 13.75 0.03125 "/></g></g></g><g fill="#000000" fill-opacity="1"><g transform="translate(547.607005, 113.528686)"><g><path d="M 21.53125 0.25 L 21.078125 0.25 L 4.53125 -23.546875 L 4.53125 -0.34375 L 7.71875 -0.34375 L 7.71875 -0.03125 L 1.03125 -0.03125 L 1.03125 -0.34375 L 4.21875 -0.34375 L 4.21875 -23.953125 L 3.59375 -24.890625 L 1.03125 -24.890625 L 1.03125 -25.203125 L 7.375 -25.203125 L 21.21875 -5.640625 L 21.21875 -24.890625 L 18.078125 -24.890625 L 18.078125 -25.203125 L 24.75 -25.203125 L 24.75 -24.890625 L 21.53125 -24.890625 Z M 21.53125 0.25 "/></g></g></g><g fill="#000000" fill-opacity="1"><g transform="translate(573.393636, 113.528686)"><g><path d="M 10.96875 -0.03125 L 1.03125 -0.03125 L 1.03125 -0.34375 L 4.265625 -0.34375 L 4.265625 -24.890625 L 1.03125 -24.890625 L 1.03125 -25.203125 L 10.96875 -25.203125 L 10.96875 -24.890625 L 7.796875 -24.890625 L 7.796875 -0.34375 L 10.96875 -0.34375 Z M 10.96875 -0.03125 "/></g></g></g><g fill="#000000" fill-opacity="1"><g transform="translate(585.404322, 113.528686)"><g><path d="M 24.265625 -0.03125 L 14.328125 -0.03125 L 14.328125 -0.34375 L 17.484375 -0.34375 L 14.4375 -8.59375 L 5.609375 -8.59375 L 2.625 -0.34375 L 5.1875 -0.34375 L 5.1875 -0.03125 L 0 -0.03125 L 0 -0.34375 L 2.25 -0.34375 L 11.421875 -25.453125 L 11.765625 -25.453125 L 21.015625 -0.34375 L 24.265625 -0.34375 Z M 14.328125 -8.9375 L 10 -20.59375 L 5.75 -8.9375 Z M 14.328125 -8.9375 "/></g></g></g><g fill="#000000" fill-opacity="1"><g transform="translate(609.679312, 113.528686)"><g/></g></g><g fill="#000000" fill-opacity="1"><g transform="translate(619.717061, 113.528686)"><g/></g></g><g fill="#000000" fill-opacity="1"><g transform="translate(629.75481, 113.528686)"><g/></g></g><g fill="#000000" fill-opacity="1"><g transform="translate(639.792559, 113.528686)"><g/></g></g><g fill="#000000" fill-opacity="1"><g transform="translate(649.830308, 113.528686)"><g/></g></g><g fill="#000000" fill-opacity="1"><g transform="translate(659.869655, 113.528686)"><g><path d="M 1.34375 4.53125 L 1.03125 4.53125 L 1.03125 -27.484375 L 1.34375 -27.484375 Z M 1.34375 4.53125 "/></g></g></g><g fill="#000000" fill-opacity="1"><g transform="translate(662.259114, 113.528686)"><g/></g></g><g fill="#000000" fill-opacity="1"><g transform="translate(672.296863, 113.528686)"><g/></g></g><g fill="#000000" fill-opacity="1"><g transform="translate(682.334612, 113.528686)"><g/></g></g><g fill="#000000" fill-opacity="1"><g transform="translate(692.372361, 113.528686)"><g/></g></g><g fill="#000000" fill-opacity="1"><g transform="translate(702.41011, 113.528686)"><g/></g></g><g fill="#000000" fill-opacity="1"><g transform="translate(712.449464, 113.528686)"><g><path d="M 10.96875 -0.03125 L 1.03125 -0.03125 L 1.03125 -0.34375 L 4.265625 -0.34375 L 4.265625 -24.890625 L 1.03125 -24.890625 L 1.03125 -25.203125 L 19.25 -25.203125 L 19.25 -18.765625 L 18.96875 -18.765625 L 18.9375 -19.109375 C 18.84375 -20.378906 18.664062 -21.441406 18.40625 -22.296875 C 18.15625 -23.148438 17.617188 -23.796875 16.796875 -24.234375 C 15.984375 -24.671875 14.644531 -24.890625 12.78125 -24.890625 L 7.796875 -24.890625 L 7.796875 -12.78125 L 9.828125 -12.78125 C 11.585938 -12.78125 12.859375 -13.226562 13.640625 -14.125 C 14.359375 -14.9375 14.765625 -16.179688 14.859375 -17.859375 L 15.125 -17.859375 L 15.125 -7.375 L 14.859375 -7.375 C 14.765625 -9.082031 14.359375 -10.328125 13.640625 -11.109375 C 12.859375 -12.015625 11.585938 -12.46875 9.828125 -12.46875 L 7.796875 -12.46875 L 7.796875 -0.34375 L 10.96875 -0.34375 Z M 10.96875 -0.03125 "/></g></g></g><g fill="#000000" fill-opacity="1"><g transform="translate(732.732639, 113.528686)"><g><path d="M 10.96875 -0.03125 L 1.03125 -0.03125 L 1.03125 -0.34375 L 4.265625 -0.34375 L 4.265625 -24.890625 L 1.03125 -24.890625 L 1.03125 -25.203125 L 10.96875 -25.203125 L 10.96875 -24.890625 L 7.796875 -24.890625 L 7.796875 -0.34375 L 10.96875 -0.34375 Z M 10.96875 -0.03125 "/></g></g></g><g fill="#000000" fill-opacity="1"><g transform="translate(744.743325, 113.528686)"><g><path d="M 20.5625 -0.03125 L 1.03125 -0.03125 L 1.03125 -0.34375 L 4.21875 -0.34375 L 4.21875 -24.890625 L 1.03125 -24.890625 L 1.03125 -25.203125 L 19.21875 -25.203125 L 19.21875 -18.765625 L 18.9375 -18.765625 L 18.875 -19.5625 C 18.800781 -20.71875 18.640625 -21.691406 18.390625 -22.484375 C 18.148438 -23.285156 17.617188 -23.882812 16.796875 -24.28125 C 15.984375 -24.6875 14.617188 -24.890625 12.703125 -24.890625 L 7.75 -24.890625 L 7.75 -12.78125 L 9.765625 -12.78125 C 11.515625 -12.78125 12.796875 -13.226562 13.609375 -14.125 C 14.328125 -14.9375 14.726562 -16.179688 14.8125 -17.859375 L 15.09375 -17.859375 L 15.09375 -7.375 L 14.8125 -7.375 C 14.726562 -9.082031 14.328125 -10.328125 13.609375 -11.109375 C 12.796875 -12.015625 11.515625 -12.46875 9.765625 -12.46875 L 7.75 -12.46875 L 7.75 -0.34375 L 14.09375 -0.34375 C 15.988281 -0.34375 17.351562 -0.632812 18.1875 -1.21875 C 19.03125 -1.8125 19.570312 -2.660156 19.8125 -3.765625 C 20.0625 -4.878906 20.207031 -6.222656 20.25 -7.796875 L 20.25 -7.859375 L 20.5625 -7.859375 Z M 20.5625 -0.03125 "/></g></g></g><g fill="#000000" fill-opacity="1"><g transform="translate(766.341792, 113.528686)"><g><path d="M 10.875 0.34375 C 9.226562 0.34375 7.941406 0.128906 7.015625 -0.296875 C 6.097656 -0.722656 5.421875 -1.113281 4.984375 -1.46875 C 4.546875 -1.832031 4.1875 -2.015625 3.90625 -2.015625 C 3.445312 -2.015625 3.078125 -1.757812 2.796875 -1.25 C 2.523438 -0.738281 2.390625 -0.273438 2.390625 0.140625 L 2.078125 0.140625 L 2.078125 -8 L 2.390625 -8 L 2.390625 -7.921875 C 2.785156 -6.148438 3.523438 -4.523438 4.609375 -3.046875 C 6.148438 -0.992188 8.238281 0.03125 10.875 0.03125 C 12.851562 0.03125 14.390625 -0.425781 15.484375 -1.34375 C 16.585938 -2.269531 17.140625 -3.578125 17.140625 -5.265625 C 17.140625 -6.273438 16.875 -7.109375 16.34375 -7.765625 C 15.8125 -8.429688 15.078125 -9.007812 14.140625 -9.5 C 13.203125 -10 12.125 -10.503906 10.90625 -11.015625 L 9.453125 -11.671875 C 6.910156 -12.753906 5.164062 -13.789062 4.21875 -14.78125 C 3.113281 -15.84375 2.5625 -17.273438 2.5625 -19.078125 C 2.5625 -20.878906 3.3125 -22.425781 4.8125 -23.71875 C 6.382812 -24.9375 8.234375 -25.546875 10.359375 -25.546875 C 11.617188 -25.546875 12.644531 -25.351562 13.4375 -24.96875 C 14.238281 -24.59375 14.847656 -24.242188 15.265625 -23.921875 C 15.609375 -23.648438 15.875 -23.515625 16.0625 -23.515625 C 16.78125 -23.515625 17.171875 -24.03125 17.234375 -25.0625 L 17.546875 -25.0625 L 17.546875 -18.625 L 17.3125 -18.625 L 17.28125 -18.65625 C 16.125 -23.039062 13.816406 -25.234375 10.359375 -25.234375 C 9.128906 -25.234375 8.117188 -25.023438 7.328125 -24.609375 C 6.546875 -24.203125 5.972656 -23.671875 5.609375 -23.015625 C 5.242188 -22.367188 5.0625 -21.691406 5.0625 -20.984375 C 5.0625 -20.316406 5.207031 -19.671875 5.5 -19.046875 C 5.800781 -18.421875 6.390625 -17.804688 7.265625 -17.203125 C 8.023438 -16.648438 9.273438 -16.015625 11.015625 -15.296875 C 13.484375 -14.328125 15.367188 -13.40625 16.671875 -12.53125 C 17.972656 -11.65625 18.84375 -10.765625 19.28125 -9.859375 C 19.71875 -8.960938 19.9375 -7.972656 19.9375 -6.890625 C 19.9375 -4.765625 19.128906 -3.019531 17.515625 -1.65625 C 15.804688 -0.320312 13.59375 0.34375 10.875 0.34375 Z M 10.875 0.34375 "/></g></g></g><g fill="#000000" fill-opacity="1"><g transform="translate(787.663356, 113.528686)"><g><path d="M 16.796875 -0.03125 L 6.78125 -0.03125 L 6.78125 -0.34375 L 10.046875 -0.34375 L 10.046875 -24.890625 L 8.203125 -24.890625 C 6.171875 -24.890625 4.703125 -24.648438 3.796875 -24.171875 C 2.898438 -23.703125 2.300781 -23.03125 2 -22.15625 C 1.707031 -21.28125 1.503906 -20.207031 1.390625 -18.9375 L 1.3125 -18.421875 L 1.03125 -18.421875 L 1.03125 -25.203125 L 22.578125 -25.203125 L 22.578125 -18.421875 L 22.265625 -18.421875 L 22.1875 -19.078125 C 22.070312 -20.296875 21.875 -21.335938 21.59375 -22.203125 C 21.320312 -23.078125 20.726562 -23.742188 19.8125 -24.203125 C 18.90625 -24.660156 17.425781 -24.890625 15.375 -24.890625 L 13.578125 -24.890625 L 13.578125 -0.34375 L 16.796875 -0.34375 Z M 16.796875 -0.03125 "/></g></g></g><g fill="#000000" fill-opacity="1"><g transform="translate(811.269373, 113.528686)"><g><path d="M 24.265625 -0.03125 L 14.328125 -0.03125 L 14.328125 -0.34375 L 17.484375 -0.34375 L 14.4375 -8.59375 L 5.609375 -8.59375 L 2.625 -0.34375 L 5.1875 -0.34375 L 5.1875 -0.03125 L 0 -0.03125 L 0 -0.34375 L 2.25 -0.34375 L 11.421875 -25.453125 L 11.765625 -25.453125 L 21.015625 -0.34375 L 24.265625 -0.34375 Z M 14.328125 -8.9375 L 10 -20.59375 L 5.75 -8.9375 Z M 14.328125 -8.9375 "/></g></g></g><g fill="#000000" fill-opacity="1"><g transform="translate(146.567433, 234.293672)"><g><path d="M 11.453125 -0.03125 L 1.03125 -0.03125 L 1.03125 -0.34375 L 4.265625 -0.34375 L 4.265625 -24.890625 L 1.03125 -24.890625 L 1.03125 -25.203125 L 11.453125 -25.203125 C 16.460938 -25.203125 20.179688 -23.84375 22.609375 -21.125 C 24.523438 -18.832031 25.484375 -15.992188 25.484375 -12.609375 C 25.484375 -9.234375 24.523438 -6.390625 22.609375 -4.078125 C 20.160156 -1.378906 16.441406 -0.03125 11.453125 -0.03125 Z M 11.453125 -0.34375 C 18.335938 -0.34375 21.78125 -4.347656 21.78125 -12.359375 C 21.78125 -16.003906 21.203125 -18.785156 20.046875 -20.703125 C 18.378906 -23.492188 15.515625 -24.890625 11.453125 -24.890625 L 7.796875 -24.890625 L 7.796875 -0.34375 Z M 11.453125 -0.34375 "/></g></g></g><g fill="#000000" fill-opacity="1"><g transform="translate(173.427065, 234.293672)"><g><path d="M 13.75 0.34375 C 10.257812 0.34375 7.269531 -0.957031 4.78125 -3.5625 C 2.519531 -6.175781 1.390625 -9.191406 1.390625 -12.609375 C 1.390625 -16.046875 2.519531 -19.066406 4.78125 -21.671875 C 7.269531 -24.253906 10.257812 -25.546875 13.75 -25.546875 C 17.226562 -25.546875 20.21875 -24.253906 22.71875 -21.671875 C 24.976562 -19.066406 26.109375 -16.046875 26.109375 -12.609375 C 26.109375 -9.191406 24.976562 -6.175781 22.71875 -3.5625 C 20.21875 -0.957031 17.226562 0.34375 13.75 0.34375 Z M 13.75 0.03125 C 16.726562 0.03125 18.96875 -1.316406 20.46875 -4.015625 C 21.757812 -6.328125 22.40625 -9.191406 22.40625 -12.609375 C 22.40625 -15.742188 21.828125 -18.5 20.671875 -20.875 C 19.148438 -23.78125 16.84375 -25.234375 13.75 -25.234375 C 10.675781 -25.234375 8.378906 -23.78125 6.859375 -20.875 C 5.703125 -18.5 5.125 -15.742188 5.125 -12.609375 C 5.125 -9.191406 5.769531 -6.328125 7.0625 -4.015625 C 8.5625 -1.316406 10.789062 0.03125 13.75 0.03125 Z M 13.75 0.03125 "/></g></g></g><g fill="#000000" fill-opacity="1"><g transform="translate(200.909729, 234.293672)"><g><path d="M 29.90625 -0.03125 L 19.984375 -0.03125 L 19.984375 -0.34375 L 23.15625 -0.34375 L 23.15625 -24.40625 L 14.015625 -0.03125 L 13.671875 -0.03125 L 4.53125 -24.234375 L 4.53125 -0.34375 L 7.71875 -0.34375 L 7.71875 -0.03125 L 1.03125 -0.03125 L 1.03125 -0.34375 L 4.21875 -0.34375 L 4.21875 -24.890625 L 1.03125 -24.890625 L 1.03125 -25.203125 L 7.71875 -25.203125 L 15.515625 -4.8125 L 23.125 -25.203125 L 29.90625 -25.203125 L 29.90625 -24.890625 L 26.6875 -24.890625 L 26.6875 -0.34375 L 29.90625 -0.34375 Z M 29.90625 -0.03125 "/></g></g></g><g fill="#000000" fill-opacity="1"><g transform="translate(231.853687, 234.293672)"><g><path d="M 10.96875 -0.03125 L 1.03125 -0.03125 L 1.03125 -0.34375 L 4.265625 -0.34375 L 4.265625 -24.890625 L 1.03125 -24.890625 L 1.03125 -25.203125 L 10.96875 -25.203125 L 10.96875 -24.890625 L 7.796875 -24.890625 L 7.796875 -0.34375 L 10.96875 -0.34375 Z M 10.96875 -0.03125 "/></g></g></g><g fill="#000000" fill-opacity="1"><g transform="translate(243.864373, 234.293672)"><g><path d="M 21.53125 0.25 L 21.078125 0.25 L 4.53125 -23.546875 L 4.53125 -0.34375 L 7.71875 -0.34375 L 7.71875 -0.03125 L 1.03125 -0.03125 L 1.03125 -0.34375 L 4.21875 -0.34375 L 4.21875 -23.953125 L 3.59375 -24.890625 L 1.03125 -24.890625 L 1.03125 -25.203125 L 7.375 -25.203125 L 21.21875 -5.640625 L 21.21875 -24.890625 L 18.078125 -24.890625 L 18.078125 -25.203125 L 24.75 -25.203125 L 24.75 -24.890625 L 21.53125 -24.890625 Z M 21.53125 0.25 "/></g></g></g><g fill="#000000" fill-opacity="1"><g transform="translate(269.651004, 234.293672)"><g><path d="M 13.75 0.34375 C 10.257812 0.34375 7.28125 -0.957031 4.8125 -3.5625 C 2.53125 -6.175781 1.390625 -9.191406 1.390625 -12.609375 C 1.390625 -16.046875 2.53125 -19.066406 4.8125 -21.671875 C 7.28125 -24.253906 10.257812 -25.546875 13.75 -25.546875 C 15.019531 -25.546875 16.09375 -25.378906 16.96875 -25.046875 C 17.84375 -24.710938 18.578125 -24.363281 19.171875 -24 C 19.773438 -23.644531 20.265625 -23.46875 20.640625 -23.46875 C 21.097656 -23.46875 21.429688 -23.640625 21.640625 -23.984375 C 21.847656 -24.335938 21.984375 -24.695312 22.046875 -25.0625 L 22.359375 -25.0625 L 22.359375 -17.234375 L 22.046875 -17.234375 C 20.804688 -22.566406 18.039062 -25.234375 13.75 -25.234375 C 10.789062 -25.234375 8.597656 -23.894531 7.171875 -21.21875 C 5.941406 -18.9375 5.328125 -16.066406 5.328125 -12.609375 C 5.328125 -9.140625 5.941406 -6.273438 7.171875 -4.015625 C 8.597656 -1.316406 10.789062 0.03125 13.75 0.03125 C 16.007812 0.03125 17.65625 -0.648438 18.6875 -2.015625 C 19.726562 -3.390625 20.25 -5.582031 20.25 -8.59375 L 20.25 -10.046875 L 15.515625 -10.046875 L 15.515625 -10.359375 L 25.625 -10.359375 L 25.625 -10.046875 L 23.265625 -10.046875 L 23.265625 -0.03125 L 22.953125 -0.03125 C 22.910156 -0.957031 22.820312 -1.707031 22.6875 -2.28125 C 22.5625 -2.863281 22.234375 -3.15625 21.703125 -3.15625 C 21.492188 -3.15625 21.273438 -3.070312 21.046875 -2.90625 C 20.816406 -2.75 20.5625 -2.53125 20.28125 -2.25 C 19.894531 -1.90625 19.414062 -1.53125 18.84375 -1.125 C 18.28125 -0.71875 17.585938 -0.367188 16.765625 -0.078125 C 15.953125 0.203125 14.945312 0.34375 13.75 0.34375 Z M 13.75 0.34375 "/></g></g></g><g fill="#000000" fill-opacity="1"><g transform="translate(295.956829, 234.293672)"><g><path d="M 13.75 0.34375 C 10.257812 0.34375 7.269531 -0.957031 4.78125 -3.5625 C 2.519531 -6.175781 1.390625 -9.191406 1.390625 -12.609375 C 1.390625 -16.046875 2.519531 -19.066406 4.78125 -21.671875 C 7.269531 -24.253906 10.257812 -25.546875 13.75 -25.546875 C 17.226562 -25.546875 20.21875 -24.253906 22.71875 -21.671875 C 24.976562 -19.066406 26.109375 -16.046875 26.109375 -12.609375 C 26.109375 -9.191406 24.976562 -6.175781 22.71875 -3.5625 C 20.21875 -0.957031 17.226562 0.34375 13.75 0.34375 Z M 13.75 0.03125 C 16.726562 0.03125 18.96875 -1.316406 20.46875 -4.015625 C 21.757812 -6.328125 22.40625 -9.191406 22.40625 -12.609375 C 22.40625 -15.742188 21.828125 -18.5 20.671875 -20.875 C 19.148438 -23.78125 16.84375 -25.234375 13.75 -25.234375 C 10.675781 -25.234375 8.378906 -23.78125 6.859375 -20.875 C 5.703125 -18.5 5.125 -15.742188 5.125 -12.609375 C 5.125 -9.191406 5.769531 -6.328125 7.0625 -4.015625 C 8.5625 -1.316406 10.789062 0.03125 13.75 0.03125 Z M 13.75 0.03125 "/></g></g></g><path stroke-linecap="butt" transform="matrix(0, 0.749634, -0.749634, 0, 513.661074, 167.407143)" fill="none" stroke-linejoin="miter" d="M -0.00119088 1.001712 L 278.780645 1.001712 " stroke="#000000" stroke-width="2" stroke-opacity="1" stroke-miterlimit="4"/><g fill="#000000" fill-opacity="1"><g transform="translate(148.243924, 318.669296)"><g><path d="M 26.640625 -0.078125 L 3.234375 -0.078125 L 3.234375 -0.78125 L 11.265625 -0.78125 L 11.265625 -51.921875 L 3.078125 -46.5625 L 2.765625 -47.203125 L 17.96875 -57.359375 L 18.515625 -57.359375 L 18.515625 -0.78125 L 26.640625 -0.78125 Z M 26.640625 -0.078125 "/></g></g></g><g fill="#000000" fill-opacity="1"><g transform="translate(177.632016, 318.669296)"><g><path d="M 22.0625 0.78125 C 17.226562 0.78125 13 -0.132812 9.375 -1.96875 C 4.96875 -4.332031 2.765625 -7.929688 2.765625 -12.765625 C 2.765625 -17.234375 4.679688 -20.910156 8.515625 -23.796875 C 11.191406 -25.796875 14.078125 -27.210938 17.171875 -28.046875 C 15.179688 -29.203125 13.289062 -30.503906 11.5 -31.953125 C 9.71875 -33.398438 8.25 -35.066406 7.09375 -36.953125 C 5.9375 -38.847656 5.359375 -41.003906 5.359375 -43.421875 C 5.359375 -48.515625 7.328125 -52.398438 11.265625 -55.078125 C 14.523438 -57.078125 18.097656 -58.078125 21.984375 -58.078125 C 25.972656 -58.078125 29.414062 -57.179688 32.3125 -55.390625 C 35.613281 -53.179688 37.265625 -50.03125 37.265625 -45.9375 C 37.265625 -43.15625 36.503906 -40.816406 34.984375 -38.921875 C 33.460938 -37.035156 31.78125 -35.550781 29.9375 -34.46875 C 28.101562 -33.394531 26.632812 -32.648438 25.53125 -32.234375 L 27.1875 -31.28125 C 29.707031 -29.914062 32.039062 -28.5 34.1875 -27.03125 C 36.34375 -25.5625 38.101562 -23.863281 39.46875 -21.9375 C 40.84375 -20.019531 41.53125 -17.695312 41.53125 -14.96875 C 41.53125 -9.5625 39.113281 -5.382812 34.28125 -2.4375 C 30.394531 -0.289062 26.320312 0.78125 22.0625 0.78125 Z M 24.578125 -32.78125 C 29.359375 -34.9375 31.75 -39.453125 31.75 -46.328125 C 31.75 -50.003906 30.988281 -52.757812 29.46875 -54.59375 C 27.945312 -56.4375 25.453125 -57.359375 21.984375 -57.359375 C 19.773438 -57.359375 17.753906 -56.832031 15.921875 -55.78125 C 13.023438 -54.15625 11.578125 -51.242188 11.578125 -47.046875 C 11.578125 -44.679688 12.179688 -42.671875 13.390625 -41.015625 C 14.597656 -39.359375 16.171875 -37.882812 18.109375 -36.59375 C 20.054688 -35.3125 22.210938 -34.039062 24.578125 -32.78125 Z M 22.0625 0.078125 C 30.625 0.078125 34.90625 -3.941406 34.90625 -11.984375 C 34.90625 -14.179688 34.328125 -16.03125 33.171875 -17.53125 C 32.015625 -19.03125 30.515625 -20.359375 28.671875 -21.515625 C 26.835938 -22.671875 24.867188 -23.800781 22.765625 -24.90625 C 21.191406 -25.6875 19.644531 -26.550781 18.125 -27.5 C 15.070312 -26.34375 12.707031 -24.460938 11.03125 -21.859375 C 9.351562 -19.265625 8.515625 -16.15625 8.515625 -12.53125 C 8.515625 -4.175781 13.03125 0.0234375 22.0625 0.078125 Z M 22.0625 0.078125 "/></g></g></g><g fill="#000000" fill-opacity="1"><g transform="translate(225.739635, 276.463139)"><g><path d="M 15.0625 -0.015625 L 8.890625 -0.015625 L 8.890625 -0.21875 L 10.84375 -0.21875 L 8.953125 -5.328125 L 3.484375 -5.328125 L 1.640625 -0.21875 L 3.21875 -0.21875 L 3.21875 -0.015625 L 0 -0.015625 L 0 -0.21875 L 1.390625 -0.21875 L 7.09375 -15.796875 L 7.3125 -15.796875 L 13.046875 -0.21875 L 15.0625 -0.21875 Z M 8.890625 -5.546875 L 6.203125 -12.78125 L 3.5625 -5.546875 Z M 8.890625 -5.546875 "/></g></g></g><g fill="#000000" fill-opacity="1"><g transform="translate(240.79818, 276.463139)"><g><path d="M 8.53125 0.21875 C 6.363281 0.21875 4.515625 -0.59375 2.984375 -2.21875 C 1.566406 -3.832031 0.859375 -5.703125 0.859375 -7.828125 C 0.859375 -9.953125 1.566406 -11.828125 2.984375 -13.453125 C 4.515625 -15.054688 6.363281 -15.859375 8.53125 -15.859375 C 9.320312 -15.859375 9.988281 -15.753906 10.53125 -15.546875 C 11.070312 -15.335938 11.53125 -15.117188 11.90625 -14.890625 C 12.28125 -14.671875 12.582031 -14.5625 12.8125 -14.5625 C 13.09375 -14.5625 13.296875 -14.671875 13.421875 -14.890625 C 13.554688 -15.109375 13.644531 -15.332031 13.6875 -15.5625 L 13.875 -15.5625 L 13.875 -10.703125 L 13.6875 -10.703125 C 12.914062 -14.003906 11.195312 -15.65625 8.53125 -15.65625 C 6.695312 -15.65625 5.335938 -14.828125 4.453125 -13.171875 C 3.691406 -11.753906 3.3125 -9.972656 3.3125 -7.828125 C 3.3125 -5.671875 3.691406 -3.894531 4.453125 -2.5 C 5.335938 -0.820312 6.695312 0.015625 8.53125 0.015625 C 9.9375 0.015625 10.957031 -0.40625 11.59375 -1.25 C 12.238281 -2.101562 12.5625 -3.460938 12.5625 -5.328125 L 12.5625 -6.234375 L 9.625 -6.234375 L 9.625 -6.421875 L 15.90625 -6.421875 L 15.90625 -6.234375 L 14.4375 -6.234375 L 14.4375 -0.015625 L 14.25 -0.015625 C 14.21875 -0.585938 14.160156 -1.050781 14.078125 -1.40625 C 14.003906 -1.769531 13.800781 -1.953125 13.46875 -1.953125 C 13.34375 -1.953125 13.207031 -1.898438 13.0625 -1.796875 C 12.914062 -1.703125 12.757812 -1.566406 12.59375 -1.390625 C 12.34375 -1.179688 12.039062 -0.953125 11.6875 -0.703125 C 11.34375 -0.453125 10.914062 -0.234375 10.40625 -0.046875 C 9.894531 0.128906 9.269531 0.21875 8.53125 0.21875 Z M 8.53125 0.21875 "/></g></g></g><g fill="#000000" fill-opacity="1"><g transform="translate(257.124135, 276.463139)"><g><path d="M 8.53125 0.21875 C 6.363281 0.21875 4.507812 -0.59375 2.96875 -2.21875 C 1.5625 -3.832031 0.859375 -5.703125 0.859375 -7.828125 C 0.859375 -9.953125 1.5625 -11.828125 2.96875 -13.453125 C 4.507812 -15.054688 6.363281 -15.859375 8.53125 -15.859375 C 10.695312 -15.859375 12.550781 -15.054688 14.09375 -13.453125 C 15.5 -11.828125 16.203125 -9.953125 16.203125 -7.828125 C 16.203125 -5.703125 15.5 -3.832031 14.09375 -2.21875 C 12.550781 -0.59375 10.695312 0.21875 8.53125 0.21875 Z M 8.53125 0.015625 C 10.375 0.015625 11.765625 -0.820312 12.703125 -2.5 C 13.503906 -3.925781 13.90625 -5.703125 13.90625 -7.828125 C 13.90625 -9.773438 13.546875 -11.484375 12.828125 -12.953125 C 11.878906 -14.753906 10.445312 -15.65625 8.53125 -15.65625 C 6.625 -15.65625 5.195312 -14.753906 4.25 -12.953125 C 3.539062 -11.484375 3.1875 -9.773438 3.1875 -7.828125 C 3.1875 -5.703125 3.585938 -3.925781 4.390625 -2.5 C 5.316406 -0.820312 6.695312 0.015625 8.53125 0.015625 Z M 8.53125 0.015625 "/></g></g></g><g fill="#000000" fill-opacity="1"><g transform="translate(274.180462, 276.463139)"><g><path d="M 6.75 0.21875 C 5.726562 0.21875 4.929688 0.0859375 4.359375 -0.171875 C 3.785156 -0.441406 3.363281 -0.6875 3.09375 -0.90625 C 2.820312 -1.132812 2.597656 -1.25 2.421875 -1.25 C 2.140625 -1.25 1.910156 -1.085938 1.734375 -0.765625 C 1.566406 -0.453125 1.484375 -0.164062 1.484375 0.09375 L 1.296875 0.09375 L 1.296875 -4.96875 L 1.484375 -4.96875 L 1.484375 -4.921875 C 1.722656 -3.816406 2.179688 -2.804688 2.859375 -1.890625 C 3.816406 -0.617188 5.113281 0.015625 6.75 0.015625 C 7.976562 0.015625 8.929688 -0.269531 9.609375 -0.84375 C 10.296875 -1.414062 10.640625 -2.222656 10.640625 -3.265625 C 10.640625 -3.898438 10.472656 -4.421875 10.140625 -4.828125 C 9.804688 -5.234375 9.347656 -5.585938 8.765625 -5.890625 C 8.191406 -6.203125 7.523438 -6.515625 6.765625 -6.828125 L 5.859375 -7.234375 C 4.285156 -7.910156 3.207031 -8.554688 2.625 -9.171875 C 1.9375 -9.828125 1.59375 -10.71875 1.59375 -11.84375 C 1.59375 -12.957031 2.054688 -13.914062 2.984375 -14.71875 C 3.960938 -15.476562 5.109375 -15.859375 6.421875 -15.859375 C 7.210938 -15.859375 7.851562 -15.738281 8.34375 -15.5 C 8.84375 -15.257812 9.21875 -15.039062 9.46875 -14.84375 C 9.6875 -14.675781 9.851562 -14.59375 9.96875 -14.59375 C 10.414062 -14.59375 10.660156 -14.914062 10.703125 -15.5625 L 10.890625 -15.5625 L 10.890625 -11.5625 L 10.75 -11.5625 L 10.71875 -11.578125 C 10 -14.296875 8.566406 -15.65625 6.421875 -15.65625 C 5.660156 -15.65625 5.035156 -15.523438 4.546875 -15.265625 C 4.066406 -15.015625 3.710938 -14.6875 3.484375 -14.28125 C 3.253906 -13.882812 3.140625 -13.460938 3.140625 -13.015625 C 3.140625 -12.597656 3.234375 -12.195312 3.421875 -11.8125 C 3.609375 -11.425781 3.972656 -11.046875 4.515625 -10.671875 C 4.984375 -10.328125 5.753906 -9.9375 6.828125 -9.5 C 8.359375 -8.894531 9.53125 -8.320312 10.34375 -7.78125 C 11.15625 -7.238281 11.695312 -6.6875 11.96875 -6.125 C 12.238281 -5.5625 12.375 -4.945312 12.375 -4.28125 C 12.375 -2.957031 11.875 -1.875 10.875 -1.03125 C 9.8125 -0.195312 8.4375 0.21875 6.75 0.21875 Z M 6.75 0.21875 "/></g></g></g><g fill="#000000" fill-opacity="1"><g transform="translate(287.413078, 276.463139)"><g><path d="M 10.421875 -0.015625 L 4.21875 -0.015625 L 4.21875 -0.21875 L 6.234375 -0.21875 L 6.234375 -15.453125 L 5.09375 -15.453125 C 3.832031 -15.453125 2.921875 -15.300781 2.359375 -15 C 1.804688 -14.707031 1.4375 -14.289062 1.25 -13.75 C 1.0625 -13.207031 0.929688 -12.539062 0.859375 -11.75 L 0.8125 -11.4375 L 0.640625 -11.4375 L 0.640625 -15.640625 L 14.015625 -15.640625 L 14.015625 -11.4375 L 13.8125 -11.4375 L 13.765625 -11.84375 C 13.703125 -12.601562 13.582031 -13.25 13.40625 -13.78125 C 13.238281 -14.320312 12.867188 -14.734375 12.296875 -15.015625 C 11.734375 -15.304688 10.816406 -15.453125 9.546875 -15.453125 L 8.421875 -15.453125 L 8.421875 -0.21875 L 10.421875 -0.21875 Z M 10.421875 -0.015625 "/></g></g></g><g fill="#000000" fill-opacity="1"><g transform="translate(302.063474, 276.463139)"><g><path d="M 8.53125 0.21875 C 6.363281 0.21875 4.507812 -0.59375 2.96875 -2.21875 C 1.5625 -3.832031 0.859375 -5.703125 0.859375 -7.828125 C 0.859375 -9.953125 1.5625 -11.828125 2.96875 -13.453125 C 4.507812 -15.054688 6.363281 -15.859375 8.53125 -15.859375 C 10.695312 -15.859375 12.550781 -15.054688 14.09375 -13.453125 C 15.5 -11.828125 16.203125 -9.953125 16.203125 -7.828125 C 16.203125 -5.703125 15.5 -3.832031 14.09375 -2.21875 C 12.550781 -0.59375 10.695312 0.21875 8.53125 0.21875 Z M 8.53125 0.015625 C 10.375 0.015625 11.765625 -0.820312 12.703125 -2.5 C 13.503906 -3.925781 13.90625 -5.703125 13.90625 -7.828125 C 13.90625 -9.773438 13.546875 -11.484375 12.828125 -12.953125 C 11.878906 -14.753906 10.445312 -15.65625 8.53125 -15.65625 C 6.625 -15.65625 5.195312 -14.753906 4.25 -12.953125 C 3.539062 -11.484375 3.1875 -9.773438 3.1875 -7.828125 C 3.1875 -5.703125 3.585938 -3.925781 4.390625 -2.5 C 5.316406 -0.820312 6.695312 0.015625 8.53125 0.015625 Z M 8.53125 0.015625 "/></g></g></g><g fill="#000000" fill-opacity="1"><g transform="translate(240.697178, 315.939107)"><g><path d="M 14.265625 -0.03125 L 1 -0.03125 L 1 -0.234375 L 3.578125 -2.515625 C 6.078125 -4.773438 7.929688 -6.878906 9.140625 -8.828125 C 10.359375 -10.773438 10.96875 -13.09375 10.96875 -15.78125 C 10.96875 -19.15625 9.84375 -20.84375 7.59375 -20.84375 C 5.945312 -20.84375 4.644531 -20.359375 3.6875 -19.390625 C 3.175781 -18.816406 2.804688 -18.140625 2.578125 -17.359375 C 2.941406 -17.703125 3.320312 -17.875 3.71875 -17.875 C 4.125 -17.875 4.46875 -17.726562 4.75 -17.4375 C 5.039062 -17.15625 5.1875 -16.800781 5.1875 -16.375 C 5.1875 -15.957031 5.039062 -15.601562 4.75 -15.3125 C 4.46875 -15.03125 4.125 -14.890625 3.71875 -14.890625 C 3.144531 -14.890625 2.707031 -15.15625 2.40625 -15.6875 C 2.25 -16.03125 2.171875 -16.382812 2.171875 -16.75 C 2.171875 -17.09375 2.285156 -17.535156 2.515625 -18.078125 C 2.742188 -18.628906 3.050781 -19.09375 3.4375 -19.46875 C 4.488281 -20.5625 5.804688 -21.109375 7.390625 -21.109375 C 8.441406 -21.109375 9.457031 -20.921875 10.4375 -20.546875 C 11.425781 -20.171875 12.234375 -19.566406 12.859375 -18.734375 C 13.492188 -17.910156 13.8125 -16.789062 13.8125 -15.375 C 13.8125 -14.113281 13.484375 -12.914062 12.828125 -11.78125 C 12.179688 -10.644531 11.296875 -9.515625 10.171875 -8.390625 C 9.054688 -7.265625 7.8125 -6.070312 6.4375 -4.8125 C 5.632812 -4.082031 4.816406 -3.316406 3.984375 -2.515625 L 9.96875 -2.515625 C 10.8125 -2.515625 11.5 -2.550781 12.03125 -2.625 C 12.5625 -2.707031 12.972656 -2.863281 13.265625 -3.09375 C 13.773438 -3.53125 14.03125 -4.457031 14.03125 -5.875 L 14.265625 -5.875 Z M 14.265625 -0.03125 "/></g></g></g><g fill="#000000" fill-opacity="1"><g transform="translate(256.393009, 315.939107)"><g><path d="M 7.875 0.28125 C 5.988281 0.28125 4.359375 -0.75 2.984375 -2.8125 C 1.660156 -4.96875 1 -7.503906 1 -10.421875 C 1 -13.347656 1.660156 -15.890625 2.984375 -18.046875 C 4.367188 -20.109375 6 -21.140625 7.875 -21.140625 C 9.769531 -21.140625 11.40625 -20.109375 12.78125 -18.046875 C 14.09375 -15.890625 14.75 -13.347656 14.75 -10.421875 C 14.75 -7.503906 14.09375 -4.96875 12.78125 -2.8125 C 11.40625 -0.75 9.769531 0.28125 7.875 0.28125 Z M 7.875 0.03125 C 9.0625 0.03125 9.945312 -0.460938 10.53125 -1.453125 C 11.113281 -2.453125 11.492188 -3.742188 11.671875 -5.328125 C 11.847656 -6.910156 11.9375 -8.609375 11.9375 -10.421875 C 11.9375 -13.898438 11.691406 -16.375 11.203125 -17.84375 C 10.585938 -19.863281 9.476562 -20.875 7.875 -20.875 C 6.289062 -20.875 5.179688 -19.863281 4.546875 -17.84375 C 4.078125 -16.351562 3.84375 -13.878906 3.84375 -10.421875 C 3.84375 -8.609375 3.925781 -6.910156 4.09375 -5.328125 C 4.269531 -3.742188 4.644531 -2.453125 5.21875 -1.453125 C 5.800781 -0.460938 6.6875 0.03125 7.875 0.03125 Z M 7.875 0.03125 "/></g></g></g><g fill="#000000" fill-opacity="1"><g transform="translate(272.146123, 315.939107)"><g><path d="M 14.265625 -0.03125 L 1 -0.03125 L 1 -0.234375 L 3.578125 -2.515625 C 6.078125 -4.773438 7.929688 -6.878906 9.140625 -8.828125 C 10.359375 -10.773438 10.96875 -13.09375 10.96875 -15.78125 C 10.96875 -19.15625 9.84375 -20.84375 7.59375 -20.84375 C 5.945312 -20.84375 4.644531 -20.359375 3.6875 -19.390625 C 3.175781 -18.816406 2.804688 -18.140625 2.578125 -17.359375 C 2.941406 -17.703125 3.320312 -17.875 3.71875 -17.875 C 4.125 -17.875 4.46875 -17.726562 4.75 -17.4375 C 5.039062 -17.15625 5.1875 -16.800781 5.1875 -16.375 C 5.1875 -15.957031 5.039062 -15.601562 4.75 -15.3125 C 4.46875 -15.03125 4.125 -14.890625 3.71875 -14.890625 C 3.144531 -14.890625 2.707031 -15.15625 2.40625 -15.6875 C 2.25 -16.03125 2.171875 -16.382812 2.171875 -16.75 C 2.171875 -17.09375 2.285156 -17.535156 2.515625 -18.078125 C 2.742188 -18.628906 3.050781 -19.09375 3.4375 -19.46875 C 4.488281 -20.5625 5.804688 -21.109375 7.390625 -21.109375 C 8.441406 -21.109375 9.457031 -20.921875 10.4375 -20.546875 C 11.425781 -20.171875 12.234375 -19.566406 12.859375 -18.734375 C 13.492188 -17.910156 13.8125 -16.789062 13.8125 -15.375 C 13.8125 -14.113281 13.484375 -12.914062 12.828125 -11.78125 C 12.179688 -10.644531 11.296875 -9.515625 10.171875 -8.390625 C 9.054688 -7.265625 7.8125 -6.070312 6.4375 -4.8125 C 5.632812 -4.082031 4.816406 -3.316406 3.984375 -2.515625 L 9.96875 -2.515625 C 10.8125 -2.515625 11.5 -2.550781 12.03125 -2.625 C 12.5625 -2.707031 12.972656 -2.863281 13.265625 -3.09375 C 13.773438 -3.53125 14.03125 -4.457031 14.03125 -5.875 L 14.265625 -5.875 Z M 14.265625 -0.03125 "/></g></g></g><g fill="#000000" fill-opacity="1"><g transform="translate(287.841953, 315.939107)"><g><path d="M 14.46875 -0.03125 L 5.921875 -0.03125 L 5.921875 -0.28125 L 8.875 -0.28125 L 8.875 -5.40625 L 1 -5.40625 L 1 -5.609375 L 11.28125 -20.84375 L 11.515625 -20.84375 L 11.515625 -5.671875 C 12.597656 -5.671875 13.398438 -5.847656 13.921875 -6.203125 C 14.453125 -6.554688 14.789062 -6.929688 14.9375 -7.328125 C 15.09375 -7.734375 15.171875 -8.003906 15.171875 -8.140625 L 15.328125 -8.140625 L 15.328125 -5.40625 L 11.515625 -5.40625 L 11.515625 -0.28125 L 14.46875 -0.28125 Z M 8.875 -5.671875 L 8.875 -16.8125 L 1.34375 -5.671875 Z M 8.875 -5.671875 "/></g></g></g><g fill="#000000" fill-opacity="1"><g transform="translate(719.997444, 294.18856)"><g><path d="M 22.90625 -0.0625 L 2.78125 -0.0625 L 2.78125 -0.671875 L 9.6875 -0.671875 L 9.6875 -44.65625 L 2.640625 -40.046875 L 2.375 -40.59375 L 15.453125 -49.328125 L 15.921875 -49.328125 L 15.921875 -0.671875 L 22.90625 -0.671875 Z M 22.90625 -0.0625 "/></g></g></g><g fill="#000000" fill-opacity="1"><g transform="translate(745.272568, 294.18856)"><g><path d="M 15.046875 0.671875 C 11.023438 0.671875 7.726562 -0.660156 5.15625 -3.328125 C 3.613281 -5.035156 2.84375 -7.179688 2.84375 -9.765625 C 2.84375 -10.890625 2.976562 -11.789062 3.25 -12.46875 C 3.75 -13.820312 4.832031 -14.5 6.5 -14.5 C 7.445312 -14.5 8.257812 -14.171875 8.9375 -13.515625 C 9.625 -12.859375 9.96875 -12.035156 9.96875 -11.046875 C 9.96875 -10.054688 9.625 -9.207031 8.9375 -8.5 C 8.257812 -7.800781 7.445312 -7.453125 6.5 -7.453125 C 5.332031 -7.453125 4.382812 -7.945312 3.65625 -8.9375 C 3.75 -6.90625 4.492188 -5.125 5.890625 -3.59375 C 8.242188 -1.15625 11.296875 0.0625 15.046875 0.0625 C 18.253906 0.0625 20.738281 -1.335938 22.5 -4.140625 C 24.082031 -6.796875 24.875 -10.429688 24.875 -15.046875 C 24.875 -23.492188 21.460938 -27.71875 14.640625 -27.71875 C 12.203125 -27.71875 9.378906 -27.175781 6.171875 -26.09375 L 8.875 -49.328125 L 23.71875 -49.328125 C 26.113281 -49.328125 27.691406 -49.585938 28.453125 -50.109375 C 29.222656 -50.628906 29.609375 -51.769531 29.609375 -53.53125 L 30.21875 -53.53125 L 30.21875 -43.171875 L 8.8125 -43.171875 L 6.84375 -26.90625 C 10.1875 -28.03125 13.507812 -28.59375 16.8125 -28.59375 C 20.875 -28.59375 24.144531 -27.710938 26.625 -25.953125 C 29.882812 -23.648438 31.515625 -19.988281 31.515625 -14.96875 C 31.515625 -10.863281 30.15625 -7.273438 27.4375 -4.203125 C 24.320312 -0.953125 20.191406 0.671875 15.046875 0.671875 Z M 15.046875 0.671875 "/></g></g></g><g fill="#000000" fill-opacity="1"><g transform="translate(779.153431, 294.18856)"><g><path d="M 5.484375 0.34375 C 4.535156 0.34375 3.722656 -0.00390625 3.046875 -0.703125 C 2.367188 -1.410156 2.03125 -2.238281 2.03125 -3.1875 C 2.03125 -4.132812 2.367188 -4.945312 3.046875 -5.625 C 3.722656 -6.300781 4.535156 -6.640625 5.484375 -6.640625 C 6.429688 -6.640625 7.234375 -6.300781 7.890625 -5.625 C 8.546875 -4.945312 8.875 -4.132812 8.875 -3.1875 C 8.875 -2.238281 8.546875 -1.410156 7.890625 -0.703125 C 7.234375 -0.00390625 6.429688 0.34375 5.484375 0.34375 Z M 5.484375 0.34375 "/></g></g></g><g fill="#000000" fill-opacity="1"><g transform="translate(790.063069, 294.18856)"><g><path d="M 15.65625 0.671875 C 11.539062 0.671875 8.082031 -0.769531 5.28125 -3.65625 C 3.34375 -5.820312 2.375 -8.128906 2.375 -10.578125 C 2.375 -11.523438 2.675781 -12.40625 3.28125 -13.21875 C 3.894531 -14.03125 4.789062 -14.457031 5.96875 -14.5 C 6.957031 -14.5 7.78125 -14.171875 8.4375 -13.515625 C 9.09375 -12.859375 9.421875 -12.035156 9.421875 -11.046875 C 9.421875 -10.054688 9.09375 -9.207031 8.4375 -8.5 C 7.78125 -7.800781 6.957031 -7.453125 5.96875 -7.453125 C 5.507812 -7.453125 5.03125 -7.550781 4.53125 -7.75 C 4.039062 -7.957031 3.640625 -8.21875 3.328125 -8.53125 C 3.816406 -6.726562 4.695312 -5.148438 5.96875 -3.796875 C 8.539062 -1.222656 11.769531 0.0625 15.65625 0.0625 C 17.238281 0.0625 18.84375 -0.285156 20.46875 -0.984375 C 22.09375 -1.679688 23.457031 -2.988281 24.5625 -4.90625 C 25.664062 -6.832031 26.21875 -9.625 26.21875 -13.28125 C 26.21875 -17.207031 25.363281 -20.210938 23.65625 -22.296875 C 21.4375 -25.003906 17.707031 -26.359375 12.46875 -26.359375 L 12.46875 -26.90625 C 17.257812 -26.90625 20.535156 -28.191406 22.296875 -30.765625 C 23.554688 -32.660156 24.1875 -35.300781 24.1875 -38.6875 C 24.1875 -41.8125 23.753906 -44.128906 22.890625 -45.640625 C 22.035156 -47.148438 21.019531 -48.15625 19.84375 -48.65625 C 18.675781 -49.15625 17.617188 -49.40625 16.671875 -49.40625 C 13.097656 -49.40625 10.207031 -48.273438 8 -46.015625 C 6.820312 -44.742188 6.007812 -43.207031 5.5625 -41.40625 C 6.238281 -41.988281 7.023438 -42.28125 7.921875 -42.28125 C 8.867188 -42.28125 9.679688 -41.941406 10.359375 -41.265625 C 11.046875 -40.585938 11.390625 -39.753906 11.390625 -38.765625 C 11.390625 -37.765625 11.046875 -36.925781 10.359375 -36.25 C 9.679688 -35.570312 8.867188 -35.234375 7.921875 -35.234375 C 6.929688 -35.234375 6.109375 -35.550781 5.453125 -36.1875 C 4.796875 -36.820312 4.46875 -37.816406 4.46875 -39.171875 C 4.46875 -41.609375 5.441406 -43.957031 7.390625 -46.21875 C 9.828125 -48.75 12.921875 -50.015625 16.671875 -50.015625 C 18.796875 -50.015625 20.914062 -49.660156 23.03125 -48.953125 C 25.15625 -48.253906 26.929688 -47.101562 28.359375 -45.5 C 29.785156 -43.894531 30.5 -41.738281 30.5 -39.03125 C 30.5 -35.1875 29.050781 -32.179688 26.15625 -30.015625 C 23.8125 -28.296875 20.738281 -27.164062 16.9375 -26.625 C 21.363281 -26.175781 24.929688 -25.023438 27.640625 -23.171875 C 31.117188 -20.773438 32.859375 -17.457031 32.859375 -13.21875 C 32.859375 -8.96875 31.28125 -5.554688 28.125 -2.984375 C 24.914062 -0.546875 20.757812 0.671875 15.65625 0.671875 Z M 15.65625 0.671875 "/></g></g></g><g fill="#000000" fill-opacity="1"><g transform="translate(825.299167, 294.18856)"><g><path d="M 18.640625 0.671875 C 14.160156 0.671875 10.296875 -1.765625 7.046875 -6.640625 C 3.929688 -11.742188 2.375 -17.753906 2.375 -24.671875 C 2.375 -31.578125 3.929688 -37.582031 7.046875 -42.6875 C 10.347656 -47.570312 14.210938 -50.015625 18.640625 -50.015625 C 23.109375 -50.015625 26.96875 -47.570312 30.21875 -42.6875 C 33.34375 -37.582031 34.90625 -31.578125 34.90625 -24.671875 C 34.90625 -17.753906 33.34375 -11.742188 30.21875 -6.640625 C 26.96875 -1.765625 23.109375 0.671875 18.640625 0.671875 Z M 18.640625 0.0625 C 21.441406 0.0625 23.53125 -1.109375 24.90625 -3.453125 C 26.28125 -5.804688 27.179688 -8.859375 27.609375 -12.609375 C 28.035156 -16.359375 28.25 -20.378906 28.25 -24.671875 C 28.25 -32.890625 27.664062 -38.738281 26.5 -42.21875 C 25.050781 -47.007812 22.429688 -49.40625 18.640625 -49.40625 C 14.890625 -49.40625 12.269531 -47.007812 10.78125 -42.21875 C 9.644531 -38.695312 9.078125 -32.847656 9.078125 -24.671875 C 9.078125 -20.378906 9.28125 -16.359375 9.6875 -12.609375 C 10.09375 -8.859375 10.984375 -5.804688 12.359375 -3.453125 C 13.742188 -1.109375 15.835938 0.0625 18.640625 0.0625 Z M 18.640625 0.0625 "/></g></g></g><g fill="#000000" fill-opacity="1"><g transform="translate(897.869514, 294.794915)"><g><path d="M 21.21875 -0.03125 L 12.96875 -0.03125 L 12.96875 -0.28125 L 15.640625 -0.28125 L 15.640625 -10.5625 L 6.4375 -10.5625 L 6.4375 -0.28125 L 9.109375 -0.28125 L 9.109375 -0.03125 L 0.859375 -0.03125 L 0.859375 -0.28125 L 3.515625 -0.28125 L 3.515625 -20.59375 L 0.859375 -20.59375 L 0.859375 -20.84375 L 9.109375 -20.84375 L 9.109375 -20.59375 L 6.4375 -20.59375 L 6.4375 -10.859375 L 15.640625 -10.859375 L 15.640625 -20.59375 L 12.96875 -20.59375 L 12.96875 -20.84375 L 21.21875 -20.84375 L 21.21875 -20.59375 L 18.5625 -20.59375 L 18.5625 -0.28125 L 21.21875 -0.28125 Z M 21.21875 -0.03125 "/></g></g></g><g fill="#000000" fill-opacity="1"><g transform="translate(919.952516, 294.794915)"><g><path d="M 6.296875 0.28125 C 5.535156 0.28125 4.882812 0.15625 4.34375 -0.09375 C 3.8125 -0.351562 3.363281 -0.613281 3 -0.875 C 2.644531 -1.144531 2.351562 -1.28125 2.125 -1.28125 C 1.875 -1.28125 1.671875 -1.046875 1.515625 -0.578125 L 1.375 0.140625 L 1.140625 0.140625 L 1.140625 -4.921875 L 1.375 -4.921875 C 1.5625 -4.140625 1.867188 -3.367188 2.296875 -2.609375 C 3.304688 -0.847656 4.640625 0.03125 6.296875 0.03125 C 8.398438 0.03125 9.507812 -0.894531 9.625 -2.75 C 9.625 -3.457031 9.34375 -3.988281 8.78125 -4.34375 C 8.21875 -4.695312 7.488281 -5.035156 6.59375 -5.359375 C 4.445312 -6.179688 3.03125 -7 2.34375 -7.8125 C 1.789062 -8.488281 1.515625 -9.34375 1.515625 -10.375 C 1.515625 -11.476562 1.929688 -12.375 2.765625 -13.0625 C 3.609375 -13.75 4.691406 -14.09375 6.015625 -14.09375 C 6.660156 -14.09375 7.210938 -13.988281 7.671875 -13.78125 C 8.128906 -13.570312 8.492188 -13.363281 8.765625 -13.15625 C 9.046875 -12.957031 9.265625 -12.859375 9.421875 -12.859375 C 9.742188 -12.859375 9.953125 -13.066406 10.046875 -13.484375 L 10.109375 -13.828125 L 10.3125 -13.828125 L 10.3125 -9.765625 L 10.109375 -9.765625 C 9.941406 -10.453125 9.675781 -11.113281 9.3125 -11.75 C 8.507812 -13.15625 7.410156 -13.859375 6.015625 -13.859375 C 5.003906 -13.859375 4.289062 -13.597656 3.875 -13.078125 C 3.46875 -12.566406 3.265625 -12.035156 3.265625 -11.484375 C 3.265625 -10.867188 3.46875 -10.359375 3.875 -9.953125 C 4.289062 -9.554688 5.175781 -9.101562 6.53125 -8.59375 C 7.945312 -8.019531 9.023438 -7.488281 9.765625 -7 C 10.515625 -6.507812 11.007812 -6.019531 11.25 -5.53125 C 11.5 -5.050781 11.625 -4.515625 11.625 -3.921875 C 11.625 -2.734375 11.15625 -1.734375 10.21875 -0.921875 C 9.207031 -0.117188 7.898438 0.28125 6.296875 0.28125 Z M 6.296875 0.28125 "/></g></g></g><g fill="#000000" fill-opacity="1"><g transform="translate(932.583649, 294.794915)"><g><path d="M 2.3125 0.140625 C 1.914062 0.140625 1.570312 -0.00390625 1.28125 -0.296875 C 1 -0.597656 0.859375 -0.945312 0.859375 -1.34375 C 0.859375 -1.75 1 -2.09375 1.28125 -2.375 C 1.570312 -2.664062 1.914062 -2.8125 2.3125 -2.8125 C 2.71875 -2.8125 3.054688 -2.664062 3.328125 -2.375 C 3.609375 -2.09375 3.75 -1.75 3.75 -1.34375 C 3.75 -0.945312 3.609375 -0.597656 3.328125 -0.296875 C 3.054688 -0.00390625 2.71875 0.140625 2.3125 0.140625 Z M 2.3125 0.140625 "/></g></g></g><g clip-path="url(#62e4368519)"><path stroke-linecap="butt" transform="matrix(0.749634, -0.000000000000000093, 0.000000000000000093, 0.749634, -42.90259, 376.552177)" fill="none" stroke-linejoin="miter" d="M 0.000327834 0.998626 L 1482.911261 0.998626 " stroke="#000000" stroke-width="2" stroke-opacity="1" stroke-miterlimit="4"/></g><g fill="#000000" fill-opacity="1"><g transform="translate(329.304436, 484.924068)"><g><path d="M 17.96875 7.234375 C 17.15625 7.234375 16.441406 7.070312 15.828125 6.75 C 14.921875 6.21875 14.078125 5.597656 13.296875 4.890625 C 12.515625 4.191406 11.71875 3.597656 10.90625 3.109375 C 10.21875 2.722656 9.476562 2.53125 8.6875 2.53125 L 8.3125 2.53125 L 8.203125 2.1875 L 14.4375 0.3125 L 13.75 0.34375 C 10.257812 0.34375 7.269531 -0.957031 4.78125 -3.5625 C 2.519531 -6.175781 1.390625 -9.191406 1.390625 -12.609375 C 1.390625 -16.046875 2.519531 -19.066406 4.78125 -21.671875 C 7.25 -24.253906 10.238281 -25.546875 13.75 -25.546875 C 17.226562 -25.546875 20.203125 -24.253906 22.671875 -21.671875 C 24.960938 -19.066406 26.109375 -16.046875 26.109375 -12.609375 C 26.109375 -9.191406 24.960938 -6.175781 22.671875 -3.5625 C 21.265625 -2.019531 19.59375 -0.925781 17.65625 -0.28125 L 9.484375 2.1875 L 10.53125 1.96875 C 11.289062 1.757812 12.070312 1.65625 12.875 1.65625 C 14.238281 1.65625 15.648438 2.460938 17.109375 4.078125 C 17.867188 4.984375 18.707031 5.632812 19.625 6.03125 C 19.863281 6.113281 20.109375 6.15625 20.359375 6.15625 C 21.140625 6.15625 22.070312 5.753906 23.15625 4.953125 L 23.40625 5.234375 C 22.113281 6.203125 20.765625 6.820312 19.359375 7.09375 C 18.867188 7.1875 18.40625 7.234375 17.96875 7.234375 Z M 13.75 0.03125 C 16.726562 0.03125 18.96875 -1.316406 20.46875 -4.015625 C 21.726562 -6.328125 22.359375 -9.191406 22.359375 -12.609375 C 22.359375 -15.742188 21.785156 -18.5 20.640625 -20.875 C 19.109375 -23.78125 16.8125 -25.234375 13.75 -25.234375 C 10.65625 -25.234375 8.359375 -23.78125 6.859375 -20.875 C 5.703125 -18.5 5.125 -15.742188 5.125 -12.609375 C 5.125 -9.191406 5.769531 -6.328125 7.0625 -4.015625 C 8.539062 -1.316406 10.769531 0.03125 13.75 0.03125 Z M 13.75 0.03125 "/></g></g></g><g fill="#000000" fill-opacity="1"><g transform="translate(356.787101, 484.924068)"><g><path d="M 13.359375 0.34375 C 10.410156 0.34375 8.207031 -0.273438 6.75 -1.515625 C 5.09375 -2.878906 4.265625 -5.109375 4.265625 -8.203125 L 4.265625 -24.890625 L 1.03125 -24.890625 L 1.03125 -25.203125 L 10.96875 -25.203125 L 10.96875 -24.890625 L 7.796875 -24.890625 L 7.796875 -8.203125 C 7.796875 -5.453125 8.253906 -3.421875 9.171875 -2.109375 C 10.097656 -0.703125 11.609375 0 13.703125 0 C 16.128906 0 18.003906 -0.703125 19.328125 -2.109375 C 20.660156 -3.515625 21.328125 -5.5 21.328125 -8.0625 L 21.328125 -24.890625 L 18.140625 -24.890625 L 18.140625 -25.203125 L 24.890625 -25.203125 L 24.890625 -24.890625 L 21.640625 -24.890625 L 21.640625 -8.0625 C 21.640625 -5.382812 20.914062 -3.3125 19.46875 -1.84375 C 18.03125 -0.382812 15.992188 0.34375 13.359375 0.34375 Z M 13.359375 0.34375 "/></g></g></g><g fill="#000000" fill-opacity="1"><g transform="translate(382.712184, 484.924068)"><g><path d="M 10.96875 -0.03125 L 1.03125 -0.03125 L 1.03125 -0.34375 L 4.265625 -0.34375 L 4.265625 -24.890625 L 1.03125 -24.890625 L 1.03125 -25.203125 L 10.96875 -25.203125 L 10.96875 -24.890625 L 7.796875 -24.890625 L 7.796875 -0.34375 L 10.96875 -0.34375 Z M 10.96875 -0.03125 "/></g></g></g><g fill="#000000" fill-opacity="1"><g transform="translate(394.72287, 484.924068)"><g><path d="M 21.53125 0.25 L 21.078125 0.25 L 4.53125 -23.546875 L 4.53125 -0.34375 L 7.71875 -0.34375 L 7.71875 -0.03125 L 1.03125 -0.03125 L 1.03125 -0.34375 L 4.21875 -0.34375 L 4.21875 -23.953125 L 3.59375 -24.890625 L 1.03125 -24.890625 L 1.03125 -25.203125 L 7.375 -25.203125 L 21.21875 -5.640625 L 21.21875 -24.890625 L 18.078125 -24.890625 L 18.078125 -25.203125 L 24.75 -25.203125 L 24.75 -24.890625 L 21.53125 -24.890625 Z M 21.53125 0.25 "/></g></g></g><g fill="#000000" fill-opacity="1"><g transform="translate(420.509501, 484.924068)"><g><path d="M 16.796875 -0.03125 L 6.78125 -0.03125 L 6.78125 -0.34375 L 10.046875 -0.34375 L 10.046875 -24.890625 L 8.203125 -24.890625 C 6.171875 -24.890625 4.703125 -24.648438 3.796875 -24.171875 C 2.898438 -23.703125 2.300781 -23.03125 2 -22.15625 C 1.707031 -21.28125 1.503906 -20.207031 1.390625 -18.9375 L 1.3125 -18.421875 L 1.03125 -18.421875 L 1.03125 -25.203125 L 22.578125 -25.203125 L 22.578125 -18.421875 L 22.265625 -18.421875 L 22.1875 -19.078125 C 22.070312 -20.296875 21.875 -21.335938 21.59375 -22.203125 C 21.320312 -23.078125 20.726562 -23.742188 19.8125 -24.203125 C 18.90625 -24.660156 17.425781 -24.890625 15.375 -24.890625 L 13.578125 -24.890625 L 13.578125 -0.34375 L 16.796875 -0.34375 Z M 16.796875 -0.03125 "/></g></g></g><g fill="#000000" fill-opacity="1"><g transform="translate(444.115517, 484.924068)"><g><path d="M 24.265625 -0.03125 L 14.328125 -0.03125 L 14.328125 -0.34375 L 17.484375 -0.34375 L 14.4375 -8.59375 L 5.609375 -8.59375 L 2.625 -0.34375 L 5.1875 -0.34375 L 5.1875 -0.03125 L 0 -0.03125 L 0 -0.34375 L 2.25 -0.34375 L 11.421875 -25.453125 L 11.765625 -25.453125 L 21.015625 -0.34375 L 24.265625 -0.34375 Z M 14.328125 -8.9375 L 10 -20.59375 L 5.75 -8.9375 Z M 14.328125 -8.9375 "/></g></g></g><g fill="#000000" fill-opacity="1"><g transform="translate(468.379179, 484.924068)"><g/></g></g><g fill="#000000" fill-opacity="1"><g transform="translate(478.416929, 484.924068)"><g><path d="M 13.78125 0.34375 C 10.0625 0.34375 7.015625 -0.957031 4.640625 -3.5625 C 2.472656 -6.125 1.390625 -9.140625 1.390625 -12.609375 C 1.390625 -16.046875 2.519531 -19.066406 4.78125 -21.671875 C 7.269531 -24.253906 10.257812 -25.546875 13.75 -25.546875 C 14.988281 -25.546875 16.054688 -25.378906 16.953125 -25.046875 C 17.859375 -24.710938 18.609375 -24.363281 19.203125 -24 C 19.804688 -23.644531 20.285156 -23.46875 20.640625 -23.46875 C 21.097656 -23.46875 21.429688 -23.644531 21.640625 -24 C 21.847656 -24.363281 21.984375 -24.71875 22.046875 -25.0625 L 22.359375 -25.0625 L 22.359375 -17.234375 L 22.046875 -17.234375 C 21.753906 -18.484375 21.296875 -19.722656 20.671875 -20.953125 C 19.171875 -23.804688 16.863281 -25.234375 13.75 -25.234375 C 12.082031 -25.234375 10.722656 -24.867188 9.671875 -24.140625 C 8.628906 -23.421875 7.804688 -22.503906 7.203125 -21.390625 C 6.597656 -20.285156 6.160156 -19.140625 5.890625 -17.953125 C 5.628906 -16.765625 5.46875 -15.675781 5.40625 -14.6875 C 5.351562 -13.707031 5.328125 -13.015625 5.328125 -12.609375 C 5.328125 -9.367188 5.789062 -6.675781 6.71875 -4.53125 C 8.03125 -1.488281 10.382812 0.03125 13.78125 0.03125 C 15.226562 0.03125 16.472656 -0.207031 17.515625 -0.6875 C 20.054688 -1.863281 21.847656 -4.007812 22.890625 -7.125 L 23.375 -6.921875 L 23.328125 -6.859375 C 22.828125 -5.242188 21.953125 -3.773438 20.703125 -2.453125 C 18.953125 -0.585938 16.644531 0.34375 13.78125 0.34375 Z M 13.78125 0.34375 "/></g></g></g><g fill="#000000" fill-opacity="1"><g transform="translate(503.165172, 484.924068)"><g><path d="M 13.75 0.34375 C 10.257812 0.34375 7.269531 -0.957031 4.78125 -3.5625 C 2.519531 -6.175781 1.390625 -9.191406 1.390625 -12.609375 C 1.390625 -16.046875 2.519531 -19.066406 4.78125 -21.671875 C 7.269531 -24.253906 10.257812 -25.546875 13.75 -25.546875 C 17.226562 -25.546875 20.21875 -24.253906 22.71875 -21.671875 C 24.976562 -19.066406 26.109375 -16.046875 26.109375 -12.609375 C 26.109375 -9.191406 24.976562 -6.175781 22.71875 -3.5625 C 20.21875 -0.957031 17.226562 0.34375 13.75 0.34375 Z M 13.75 0.03125 C 16.726562 0.03125 18.96875 -1.316406 20.46875 -4.015625 C 21.757812 -6.328125 22.40625 -9.191406 22.40625 -12.609375 C 22.40625 -15.742188 21.828125 -18.5 20.671875 -20.875 C 19.148438 -23.78125 16.84375 -25.234375 13.75 -25.234375 C 10.675781 -25.234375 8.378906 -23.78125 6.859375 -20.875 C 5.703125 -18.5 5.125 -15.742188 5.125 -12.609375 C 5.125 -9.191406 5.769531 -6.328125 7.0625 -4.015625 C 8.5625 -1.316406 10.789062 0.03125 13.75 0.03125 Z M 13.75 0.03125 "/></g></g></g><g fill="#000000" fill-opacity="1"><g transform="translate(530.647836, 484.924068)"><g><path d="M 21.53125 0.25 L 21.078125 0.25 L 4.53125 -23.546875 L 4.53125 -0.34375 L 7.71875 -0.34375 L 7.71875 -0.03125 L 1.03125 -0.03125 L 1.03125 -0.34375 L 4.21875 -0.34375 L 4.21875 -23.953125 L 3.59375 -24.890625 L 1.03125 -24.890625 L 1.03125 -25.203125 L 7.375 -25.203125 L 21.21875 -5.640625 L 21.21875 -24.890625 L 18.078125 -24.890625 L 18.078125 -25.203125 L 24.75 -25.203125 L 24.75 -24.890625 L 21.53125 -24.890625 Z M 21.53125 0.25 "/></g></g></g><g fill="#000000" fill-opacity="1"><g transform="translate(556.434467, 484.924068)"><g><path d="M 10.875 0.34375 C 9.226562 0.34375 7.941406 0.128906 7.015625 -0.296875 C 6.097656 -0.722656 5.421875 -1.113281 4.984375 -1.46875 C 4.546875 -1.832031 4.1875 -2.015625 3.90625 -2.015625 C 3.445312 -2.015625 3.078125 -1.757812 2.796875 -1.25 C 2.523438 -0.738281 2.390625 -0.273438 2.390625 0.140625 L 2.078125 0.140625 L 2.078125 -8 L 2.390625 -8 L 2.390625 -7.921875 C 2.785156 -6.148438 3.523438 -4.523438 4.609375 -3.046875 C 6.148438 -0.992188 8.238281 0.03125 10.875 0.03125 C 12.851562 0.03125 14.390625 -0.425781 15.484375 -1.34375 C 16.585938 -2.269531 17.140625 -3.578125 17.140625 -5.265625 C 17.140625 -6.273438 16.875 -7.109375 16.34375 -7.765625 C 15.8125 -8.429688 15.078125 -9.007812 14.140625 -9.5 C 13.203125 -10 12.125 -10.503906 10.90625 -11.015625 L 9.453125 -11.671875 C 6.910156 -12.753906 5.164062 -13.789062 4.21875 -14.78125 C 3.113281 -15.84375 2.5625 -17.273438 2.5625 -19.078125 C 2.5625 -20.878906 3.3125 -22.425781 4.8125 -23.71875 C 6.382812 -24.9375 8.234375 -25.546875 10.359375 -25.546875 C 11.617188 -25.546875 12.644531 -25.351562 13.4375 -24.96875 C 14.238281 -24.59375 14.847656 -24.242188 15.265625 -23.921875 C 15.609375 -23.648438 15.875 -23.515625 16.0625 -23.515625 C 16.78125 -23.515625 17.171875 -24.03125 17.234375 -25.0625 L 17.546875 -25.0625 L 17.546875 -18.625 L 17.3125 -18.625 L 17.28125 -18.65625 C 16.125 -23.039062 13.816406 -25.234375 10.359375 -25.234375 C 9.128906 -25.234375 8.117188 -25.023438 7.328125 -24.609375 C 6.546875 -24.203125 5.972656 -23.671875 5.609375 -23.015625 C 5.242188 -22.367188 5.0625 -21.691406 5.0625 -20.984375 C 5.0625 -20.316406 5.207031 -19.671875 5.5 -19.046875 C 5.800781 -18.421875 6.390625 -17.804688 7.265625 -17.203125 C 8.023438 -16.648438 9.273438 -16.015625 11.015625 -15.296875 C 13.484375 -14.328125 15.367188 -13.40625 16.671875 -12.53125 C 17.972656 -11.65625 18.84375 -10.765625 19.28125 -9.859375 C 19.71875 -8.960938 19.9375 -7.972656 19.9375 -6.890625 C 19.9375 -4.765625 19.128906 -3.019531 17.515625 -1.65625 C 15.804688 -0.320312 13.59375 0.34375 10.875 0.34375 Z M 10.875 0.34375 "/></g></g></g><g fill="#000000" fill-opacity="1"><g transform="translate(577.756031, 484.924068)"><g><path d="M 16.796875 -0.03125 L 6.78125 -0.03125 L 6.78125 -0.34375 L 10.046875 -0.34375 L 10.046875 -24.890625 L 8.203125 -24.890625 C 6.171875 -24.890625 4.703125 -24.648438 3.796875 -24.171875 C 2.898438 -23.703125 2.300781 -23.03125 2 -22.15625 C 1.707031 -21.28125 1.503906 -20.207031 1.390625 -18.9375 L 1.3125 -18.421875 L 1.03125 -18.421875 L 1.03125 -25.203125 L 22.578125 -25.203125 L 22.578125 -18.421875 L 22.265625 -18.421875 L 22.1875 -19.078125 C 22.070312 -20.296875 21.875 -21.335938 21.59375 -22.203125 C 21.320312 -23.078125 20.726562 -23.742188 19.8125 -24.203125 C 18.90625 -24.660156 17.425781 -24.890625 15.375 -24.890625 L 13.578125 -24.890625 L 13.578125 -0.34375 L 16.796875 -0.34375 Z M 16.796875 -0.03125 "/></g></g></g><g fill="#000000" fill-opacity="1"><g transform="translate(601.362047, 484.924068)"><g><path d="M 24.265625 -0.03125 L 14.328125 -0.03125 L 14.328125 -0.34375 L 17.484375 -0.34375 L 14.4375 -8.59375 L 5.609375 -8.59375 L 2.625 -0.34375 L 5.1875 -0.34375 L 5.1875 -0.03125 L 0 -0.03125 L 0 -0.34375 L 2.25 -0.34375 L 11.421875 -25.453125 L 11.765625 -25.453125 L 21.015625 -0.34375 L 24.265625 -0.34375 Z M 14.328125 -8.9375 L 10 -20.59375 L 5.75 -8.9375 Z M 14.328125 -8.9375 "/></g></g></g><g fill="#000000" fill-opacity="1"><g transform="translate(625.625709, 484.924068)"><g><path d="M 21.53125 0.25 L 21.078125 0.25 L 4.53125 -23.546875 L 4.53125 -0.34375 L 7.71875 -0.34375 L 7.71875 -0.03125 L 1.03125 -0.03125 L 1.03125 -0.34375 L 4.21875 -0.34375 L 4.21875 -23.953125 L 3.59375 -24.890625 L 1.03125 -24.890625 L 1.03125 -25.203125 L 7.375 -25.203125 L 21.21875 -5.640625 L 21.21875 -24.890625 L 18.078125 -24.890625 L 18.078125 -25.203125 L 24.75 -25.203125 L 24.75 -24.890625 L 21.53125 -24.890625 Z M 21.53125 0.25 "/></g></g></g><g fill="#000000" fill-opacity="1"><g transform="translate(651.41234, 484.924068)"><g><path d="M 19.796875 -0.03125 L 1.03125 -0.03125 L 15.265625 -24.890625 L 9.59375 -24.890625 C 7.882812 -24.890625 6.5625 -24.632812 5.625 -24.125 C 4.6875 -23.625 4.007812 -22.914062 3.59375 -22 C 3.1875 -21.09375 2.898438 -19.910156 2.734375 -18.453125 L 2.453125 -18.453125 L 2.453125 -25.203125 L 19.53125 -25.203125 L 5.328125 -0.34375 L 13.296875 -0.34375 C 14.867188 -0.34375 16.085938 -0.632812 16.953125 -1.21875 C 17.816406 -1.8125 18.4375 -2.664062 18.8125 -3.78125 C 19.195312 -4.90625 19.425781 -6.265625 19.5 -7.859375 L 19.796875 -7.859375 Z M 19.796875 -0.03125 "/></g></g></g><g fill="#000000" fill-opacity="1"><g transform="translate(672.249323, 484.924068)"><g><path d="M 24.265625 -0.03125 L 14.328125 -0.03125 L 14.328125 -0.34375 L 17.484375 -0.34375 L 14.4375 -8.59375 L 5.609375 -8.59375 L 2.625 -0.34375 L 5.1875 -0.34375 L 5.1875 -0.03125 L 0 -0.03125 L 0 -0.34375 L 2.25 -0.34375 L 11.421875 -25.453125 L 11.765625 -25.453125 L 21.015625 -0.34375 L 24.265625 -0.34375 Z M 14.328125 -8.9375 L 10 -20.59375 L 5.75 -8.9375 Z M 14.328125 -8.9375 "/></g></g></g></svg>