<svg xmlns="http://www.w3.org/2000/svg" xmlns:xlink="http://www.w3.org/1999/xlink" width="1366" zoomAndPan="magnify" viewBox="0 0 1024.5 576" height="768" preserveAspectRatio="xMidYMid meet" version="1.0"><metadata><ContainsAiGeneratedContent>Yes</ContainsAiGeneratedContent></metadata><defs><g/><clipPath id="ed57281f10"><path d="M 164.796875 235.117188 L 859.203125 235.117188 L 859.203125 316.265625 L 164.796875 316.265625 Z M 164.796875 235.117188 " clip-rule="nonzero"/></clipPath></defs><g fill="#000000" fill-opacity="1"><g transform="translate(486.357432, 463.623652)"><g><path d="M 161.953125 3.984375 C 130.648438 3.984375 104.648438 -2.113281 83.953125 -14.3125 C 63.265625 -26.519531 47.8125 -43.566406 37.59375 -65.453125 C 27.382812 -87.347656 22.28125 -113.019531 22.28125 -142.46875 C 22.28125 -171.113281 27.382812 -196.378906 37.59375 -218.265625 C 47.8125 -240.148438 63.203125 -257.257812 83.765625 -269.59375 C 104.328125 -281.9375 130.257812 -288.109375 161.5625 -288.109375 C 192.070312 -288.109375 215.347656 -283.925781 231.390625 -275.5625 C 247.441406 -267.207031 255.46875 -256.664062 255.46875 -243.9375 C 255.46875 -234.914062 252.21875 -227.75 245.71875 -222.4375 C 239.226562 -217.132812 228.816406 -214.21875 214.484375 -213.6875 C 214.484375 -238.894531 210.304688 -256.9375 201.953125 -267.8125 C 193.597656 -278.6875 179.335938 -284.125 159.171875 -284.125 C 138.484375 -284.125 121.835938 -279.347656 109.234375 -269.796875 C 96.628906 -260.242188 87.410156 -245.054688 81.578125 -224.234375 C 75.742188 -203.410156 72.828125 -176.15625 72.828125 -142.46875 C 72.828125 -108.507812 76.078125 -81.050781 82.578125 -60.09375 C 89.078125 -39.132812 99.351562 -23.878906 113.40625 -14.328125 C 127.46875 -4.773438 145.773438 0 168.328125 0 C 174.960938 0 181.59375 -0.53125 188.21875 -1.59375 C 194.851562 -2.65625 200.820312 -3.847656 206.125 -5.171875 L 206.125 -100.671875 C 206.125 -118.984375 195.644531 -128.140625 174.6875 -128.140625 L 172.3125 -128.140625 L 172.3125 -132.109375 L 281.734375 -132.109375 L 281.734375 -128.140625 L 278.953125 -128.140625 C 269.140625 -128.140625 262.304688 -125.75 258.453125 -120.96875 C 254.609375 -116.195312 252.6875 -108.90625 252.6875 -99.09375 L 252.6875 -15.125 C 238.625 -8.757812 224.296875 -3.984375 209.703125 -0.796875 C 195.117188 2.390625 179.203125 3.984375 161.953125 3.984375 Z M 161.953125 3.984375 "/></g></g></g><g fill="#000000" fill-opacity="1"><g transform="translate(251.911615, 334.56067)"><g><path d="M 0.390625 0 L 0.390625 -3.984375 L 13.125 -3.984375 C 21.351562 -3.984375 27.851562 -6.238281 32.625 -10.75 C 37.40625 -15.257812 41.785156 -23.21875 45.765625 -34.625 L 134.109375 -284.125 L 159.578125 -284.125 L 256.265625 -27.0625 C 259.710938 -18.300781 263.296875 -12.265625 267.015625 -8.953125 C 270.734375 -5.640625 275.640625 -3.984375 281.734375 -3.984375 L 285.71875 -3.984375 L 285.71875 0 L 170.3125 0 L 170.3125 -3.984375 L 183.046875 -3.984375 C 192.066406 -3.984375 198.566406 -5.109375 202.546875 -7.359375 C 206.523438 -9.617188 208.515625 -13.664062 208.515625 -19.5 C 208.515625 -21.625 208.25 -24.207031 207.71875 -27.25 C 207.1875 -30.300781 206.257812 -33.6875 204.9375 -37.40625 L 181.0625 -103.46875 L 74.8125 -103.46875 L 52.53125 -40.984375 C 51.195312 -37.003906 50.132812 -33.488281 49.34375 -30.4375 C 48.550781 -27.382812 48.15625 -24.535156 48.15625 -21.890625 C 48.15625 -15.253906 50.875 -10.609375 56.3125 -7.953125 C 61.75 -5.304688 70.566406 -3.984375 82.765625 -3.984375 L 97.09375 -3.984375 L 97.09375 0 Z M 76 -107.4375 L 179.46875 -107.4375 L 151.609375 -183.84375 C 147.097656 -196.3125 142.71875 -208.847656 138.46875 -221.453125 C 134.226562 -234.054688 130.785156 -245.660156 128.140625 -256.265625 C 124.421875 -245.128906 120.769531 -234.519531 117.1875 -224.4375 C 113.613281 -214.351562 109.570312 -202.8125 105.0625 -189.8125 Z M 76 -107.4375 "/></g></g></g><g fill="#000000" fill-opacity="1"><g transform="translate(261.218813, 361.955722)"><g><path d="M 5.953125 -0.015625 L 0.71875 -0.015625 L 0.71875 -0.171875 L 2.515625 -0.171875 L 2.515625 -11.59375 L 0.6875 -10.390625 L 0.609375 -10.53125 L 4.015625 -12.8125 L 4.140625 -12.8125 L 4.140625 -0.171875 L 5.953125 -0.171875 Z M 5.953125 -0.015625 "/></g></g></g><g fill="#000000" fill-opacity="1"><g transform="translate(281.616172, 361.955722)"><g><path d="M 4.921875 0.171875 C 3.847656 0.171875 2.90625 -0.03125 2.09375 -0.4375 C 1.101562 -0.96875 0.609375 -1.769531 0.609375 -2.84375 C 0.609375 -3.84375 1.039062 -4.664062 1.90625 -5.3125 C 2.5 -5.757812 3.140625 -6.078125 3.828125 -6.265625 C 3.390625 -6.523438 2.96875 -6.816406 2.5625 -7.140625 C 2.164062 -7.460938 1.835938 -7.832031 1.578125 -8.25 C 1.328125 -8.675781 1.203125 -9.15625 1.203125 -9.6875 C 1.203125 -10.832031 1.640625 -11.703125 2.515625 -12.296875 C 3.242188 -12.742188 4.039062 -12.96875 4.90625 -12.96875 C 5.800781 -12.96875 6.570312 -12.769531 7.21875 -12.375 C 7.957031 -11.875 8.328125 -11.164062 8.328125 -10.25 C 8.328125 -9.632812 8.15625 -9.113281 7.8125 -8.6875 C 7.46875 -8.269531 7.085938 -7.941406 6.671875 -7.703125 C 6.265625 -7.460938 5.941406 -7.296875 5.703125 -7.203125 L 6.0625 -6.984375 C 6.632812 -6.679688 7.160156 -6.363281 7.640625 -6.03125 C 8.117188 -5.707031 8.507812 -5.328125 8.8125 -4.890625 C 9.113281 -4.460938 9.265625 -3.945312 9.265625 -3.34375 C 9.265625 -2.132812 8.726562 -1.203125 7.65625 -0.546875 C 6.78125 -0.0664062 5.867188 0.171875 4.921875 0.171875 Z M 5.484375 -7.3125 C 6.554688 -7.800781 7.09375 -8.8125 7.09375 -10.34375 C 7.09375 -11.164062 6.921875 -11.78125 6.578125 -12.1875 C 6.234375 -12.601562 5.675781 -12.8125 4.90625 -12.8125 C 4.414062 -12.8125 3.960938 -12.691406 3.546875 -12.453125 C 2.910156 -12.085938 2.59375 -11.4375 2.59375 -10.5 C 2.59375 -9.976562 2.722656 -9.53125 2.984375 -9.15625 C 3.253906 -8.789062 3.609375 -8.460938 4.046875 -8.171875 C 4.484375 -7.878906 4.960938 -7.59375 5.484375 -7.3125 Z M 4.921875 0.015625 C 6.835938 0.015625 7.796875 -0.878906 7.796875 -2.671875 C 7.796875 -3.160156 7.664062 -3.570312 7.40625 -3.90625 C 7.144531 -4.25 6.804688 -4.546875 6.390625 -4.796875 C 5.984375 -5.054688 5.546875 -5.3125 5.078125 -5.5625 C 4.734375 -5.738281 4.390625 -5.929688 4.046875 -6.140625 C 3.367188 -5.878906 2.84375 -5.457031 2.46875 -4.875 C 2.09375 -4.300781 1.90625 -3.609375 1.90625 -2.796875 C 1.90625 -0.929688 2.910156 0.00390625 4.921875 0.015625 Z M 4.921875 0.015625 "/></g></g></g><g fill="#000000" fill-opacity="1"><g transform="translate(305.338522, 361.955722)"><g><path d="M 6.859375 -5.78125 L 0.703125 -5.78125 L 0.703125 -5.953125 L 6.859375 -5.953125 Z M 6.859375 -5.78125 "/></g></g></g><g fill="#000000" fill-opacity="1"><g transform="translate(326.738656, 361.955722)"><g/></g></g><g fill="#000000" fill-opacity="1"><g transform="translate(345.675833, 361.955722)"><g><path d="M 4.84375 0.171875 C 3.675781 0.171875 2.671875 -0.457031 1.828125 -1.71875 C 1.015625 -3.050781 0.609375 -4.613281 0.609375 -6.40625 C 0.609375 -8.195312 1.015625 -9.753906 1.828125 -11.078125 C 2.679688 -12.347656 3.6875 -12.984375 4.84375 -12.984375 C 6 -12.984375 7 -12.347656 7.84375 -11.078125 C 8.65625 -9.753906 9.0625 -8.195312 9.0625 -6.40625 C 9.0625 -4.613281 8.65625 -3.050781 7.84375 -1.71875 C 7 -0.457031 6 0.171875 4.84375 0.171875 Z M 4.84375 0.015625 C 5.5625 0.015625 6.097656 -0.285156 6.453125 -0.890625 C 6.816406 -1.503906 7.054688 -2.296875 7.171875 -3.265625 C 7.285156 -4.242188 7.34375 -5.289062 7.34375 -6.40625 C 7.34375 -8.539062 7.1875 -10.054688 6.875 -10.953125 C 6.5 -12.203125 5.820312 -12.828125 4.84375 -12.828125 C 3.863281 -12.828125 3.179688 -12.203125 2.796875 -10.953125 C 2.503906 -10.046875 2.359375 -8.53125 2.359375 -6.40625 C 2.359375 -5.289062 2.410156 -4.242188 2.515625 -3.265625 C 2.617188 -2.296875 2.847656 -1.503906 3.203125 -0.890625 C 3.566406 -0.285156 4.113281 0.015625 4.84375 0.015625 Z M 4.84375 0.015625 "/></g></g></g><g fill="#000000" fill-opacity="1"><g transform="translate(369.187078, 361.955722)"><g><path d="M 4.921875 0.171875 C 3.847656 0.171875 2.90625 -0.03125 2.09375 -0.4375 C 1.101562 -0.96875 0.609375 -1.769531 0.609375 -2.84375 C 0.609375 -3.84375 1.039062 -4.664062 1.90625 -5.3125 C 2.5 -5.757812 3.140625 -6.078125 3.828125 -6.265625 C 3.390625 -6.523438 2.96875 -6.816406 2.5625 -7.140625 C 2.164062 -7.460938 1.835938 -7.832031 1.578125 -8.25 C 1.328125 -8.675781 1.203125 -9.15625 1.203125 -9.6875 C 1.203125 -10.832031 1.640625 -11.703125 2.515625 -12.296875 C 3.242188 -12.742188 4.039062 -12.96875 4.90625 -12.96875 C 5.800781 -12.96875 6.570312 -12.769531 7.21875 -12.375 C 7.957031 -11.875 8.328125 -11.164062 8.328125 -10.25 C 8.328125 -9.632812 8.15625 -9.113281 7.8125 -8.6875 C 7.46875 -8.269531 7.085938 -7.941406 6.671875 -7.703125 C 6.265625 -7.460938 5.941406 -7.296875 5.703125 -7.203125 L 6.0625 -6.984375 C 6.632812 -6.679688 7.160156 -6.363281 7.640625 -6.03125 C 8.117188 -5.707031 8.507812 -5.328125 8.8125 -4.890625 C 9.113281 -4.460938 9.265625 -3.945312 9.265625 -3.34375 C 9.265625 -2.132812 8.726562 -1.203125 7.65625 -0.546875 C 6.78125 -0.0664062 5.867188 0.171875 4.921875 0.171875 Z M 5.484375 -7.3125 C 6.554688 -7.800781 7.09375 -8.8125 7.09375 -10.34375 C 7.09375 -11.164062 6.921875 -11.78125 6.578125 -12.1875 C 6.234375 -12.601562 5.675781 -12.8125 4.90625 -12.8125 C 4.414062 -12.8125 3.960938 -12.691406 3.546875 -12.453125 C 2.910156 -12.085938 2.59375 -11.4375 2.59375 -10.5 C 2.59375 -9.976562 2.722656 -9.53125 2.984375 -9.15625 C 3.253906 -8.789062 3.609375 -8.460938 4.046875 -8.171875 C 4.484375 -7.878906 4.960938 -7.59375 5.484375 -7.3125 Z M 4.921875 0.015625 C 6.835938 0.015625 7.796875 -0.878906 7.796875 -2.671875 C 7.796875 -3.160156 7.664062 -3.570312 7.40625 -3.90625 C 7.144531 -4.25 6.804688 -4.546875 6.390625 -4.796875 C 5.984375 -5.054688 5.546875 -5.3125 5.078125 -5.5625 C 4.734375 -5.738281 4.390625 -5.929688 4.046875 -6.140625 C 3.367188 -5.878906 2.84375 -5.457031 2.46875 -4.875 C 2.09375 -4.300781 1.90625 -3.609375 1.90625 -2.796875 C 1.90625 -0.929688 2.910156 0.00390625 4.921875 0.015625 Z M 4.921875 0.015625 "/></g></g></g><g fill="#000000" fill-opacity="1"><g transform="translate(392.909434, 361.955722)"><g><path d="M 6.859375 -5.78125 L 0.703125 -5.78125 L 0.703125 -5.953125 L 6.859375 -5.953125 Z M 6.859375 -5.78125 "/></g></g></g><g fill="#000000" fill-opacity="1"><g transform="translate(414.309574, 361.955722)"><g><path d="M 8.765625 -0.015625 L 0.609375 -0.015625 L 0.609375 -0.140625 L 2.203125 -1.546875 C 3.734375 -2.929688 4.867188 -4.222656 5.609375 -5.421875 C 6.359375 -6.617188 6.734375 -8.039062 6.734375 -9.6875 C 6.734375 -11.769531 6.039062 -12.8125 4.65625 -12.8125 C 3.65625 -12.8125 2.859375 -12.507812 2.265625 -11.90625 C 1.953125 -11.5625 1.722656 -11.144531 1.578125 -10.65625 C 1.804688 -10.875 2.039062 -10.984375 2.28125 -10.984375 C 2.53125 -10.984375 2.742188 -10.894531 2.921875 -10.71875 C 3.097656 -10.539062 3.1875 -10.320312 3.1875 -10.0625 C 3.1875 -9.800781 3.097656 -9.582031 2.921875 -9.40625 C 2.742188 -9.238281 2.53125 -9.15625 2.28125 -9.15625 C 1.9375 -9.15625 1.671875 -9.316406 1.484375 -9.640625 C 1.390625 -9.847656 1.34375 -10.066406 1.34375 -10.296875 C 1.34375 -10.503906 1.410156 -10.773438 1.546875 -11.109375 C 1.691406 -11.441406 1.878906 -11.726562 2.109375 -11.96875 C 2.753906 -12.632812 3.566406 -12.96875 4.546875 -12.96875 C 5.179688 -12.96875 5.800781 -12.851562 6.40625 -12.625 C 7.007812 -12.394531 7.503906 -12.023438 7.890625 -11.515625 C 8.285156 -11.003906 8.484375 -10.316406 8.484375 -9.453125 C 8.484375 -8.671875 8.28125 -7.929688 7.875 -7.234375 C 7.476562 -6.535156 6.9375 -5.835938 6.25 -5.140625 C 5.5625 -4.453125 4.796875 -3.722656 3.953125 -2.953125 C 3.460938 -2.503906 2.960938 -2.035156 2.453125 -1.546875 L 6.125 -1.546875 C 6.632812 -1.546875 7.050781 -1.566406 7.375 -1.609375 C 7.707031 -1.660156 7.960938 -1.757812 8.140625 -1.90625 C 8.460938 -2.175781 8.625 -2.742188 8.625 -3.609375 L 8.765625 -3.609375 Z M 8.765625 -0.015625 "/></g></g></g><g fill="#000000" fill-opacity="1"><g transform="translate(437.785634, 361.955722)"><g><path d="M 4.84375 0.171875 C 3.675781 0.171875 2.671875 -0.457031 1.828125 -1.71875 C 1.015625 -3.050781 0.609375 -4.613281 0.609375 -6.40625 C 0.609375 -8.195312 1.015625 -9.753906 1.828125 -11.078125 C 2.679688 -12.347656 3.6875 -12.984375 4.84375 -12.984375 C 6 -12.984375 7 -12.347656 7.84375 -11.078125 C 8.65625 -9.753906 9.0625 -8.195312 9.0625 -6.40625 C 9.0625 -4.613281 8.65625 -3.050781 7.84375 -1.71875 C 7 -0.457031 6 0.171875 4.84375 0.171875 Z M 4.84375 0.015625 C 5.5625 0.015625 6.097656 -0.285156 6.453125 -0.890625 C 6.816406 -1.503906 7.054688 -2.296875 7.171875 -3.265625 C 7.285156 -4.242188 7.34375 -5.289062 7.34375 -6.40625 C 7.34375 -8.539062 7.1875 -10.054688 6.875 -10.953125 C 6.5 -12.203125 5.820312 -12.828125 4.84375 -12.828125 C 3.863281 -12.828125 3.179688 -12.203125 2.796875 -10.953125 C 2.503906 -10.046875 2.359375 -8.53125 2.359375 -6.40625 C 2.359375 -5.289062 2.410156 -4.242188 2.515625 -3.265625 C 2.617188 -2.296875 2.847656 -1.503906 3.203125 -0.890625 C 3.566406 -0.285156 4.113281 0.015625 4.84375 0.015625 Z M 4.84375 0.015625 "/></g></g></g><g fill="#000000" fill-opacity="1"><g transform="translate(461.296879, 361.955722)"><g><path d="M 8.765625 -0.015625 L 0.609375 -0.015625 L 0.609375 -0.140625 L 2.203125 -1.546875 C 3.734375 -2.929688 4.867188 -4.222656 5.609375 -5.421875 C 6.359375 -6.617188 6.734375 -8.039062 6.734375 -9.6875 C 6.734375 -11.769531 6.039062 -12.8125 4.65625 -12.8125 C 3.65625 -12.8125 2.859375 -12.507812 2.265625 -11.90625 C 1.953125 -11.5625 1.722656 -11.144531 1.578125 -10.65625 C 1.804688 -10.875 2.039062 -10.984375 2.28125 -10.984375 C 2.53125 -10.984375 2.742188 -10.894531 2.921875 -10.71875 C 3.097656 -10.539062 3.1875 -10.320312 3.1875 -10.0625 C 3.1875 -9.800781 3.097656 -9.582031 2.921875 -9.40625 C 2.742188 -9.238281 2.53125 -9.15625 2.28125 -9.15625 C 1.9375 -9.15625 1.671875 -9.316406 1.484375 -9.640625 C 1.390625 -9.847656 1.34375 -10.066406 1.34375 -10.296875 C 1.34375 -10.503906 1.410156 -10.773438 1.546875 -11.109375 C 1.691406 -11.441406 1.878906 -11.726562 2.109375 -11.96875 C 2.753906 -12.632812 3.566406 -12.96875 4.546875 -12.96875 C 5.179688 -12.96875 5.800781 -12.851562 6.40625 -12.625 C 7.007812 -12.394531 7.503906 -12.023438 7.890625 -11.515625 C 8.285156 -11.003906 8.484375 -10.316406 8.484375 -9.453125 C 8.484375 -8.671875 8.28125 -7.929688 7.875 -7.234375 C 7.476562 -6.535156 6.9375 -5.835938 6.25 -5.140625 C 5.5625 -4.453125 4.796875 -3.722656 3.953125 -2.953125 C 3.460938 -2.503906 2.960938 -2.035156 2.453125 -1.546875 L 6.125 -1.546875 C 6.632812 -1.546875 7.050781 -1.566406 7.375 -1.609375 C 7.707031 -1.660156 7.960938 -1.757812 8.140625 -1.90625 C 8.460938 -2.175781 8.625 -2.742188 8.625 -3.609375 L 8.765625 -3.609375 Z M 8.765625 -0.015625 "/></g></g></g><g fill="#000000" fill-opacity="1"><g transform="translate(484.772939, 361.955722)"><g><path d="M 8.890625 -0.015625 L 3.640625 -0.015625 L 3.640625 -0.171875 L 5.453125 -0.171875 L 5.453125 -3.328125 L 0.609375 -3.328125 L 0.609375 -3.453125 L 6.9375 -12.8125 L 7.078125 -12.8125 L 7.078125 -3.484375 C 7.742188 -3.484375 8.238281 -3.59375 8.5625 -3.8125 C 8.882812 -4.03125 9.09375 -4.257812 9.1875 -4.5 C 9.28125 -4.75 9.328125 -4.914062 9.328125 -5 L 9.40625 -5 L 9.40625 -3.328125 L 7.078125 -3.328125 L 7.078125 -0.171875 L 8.890625 -0.171875 Z M 5.453125 -3.484375 L 5.453125 -10.328125 L 0.828125 -3.484375 Z M 5.453125 -3.484375 "/></g></g></g><g clip-path="url(#ed57281f10)"><path fill="#ffffff" d="M 164.796875 235.117188 L 859.335938 235.117188 L 859.335938 316.265625 L 164.796875 316.265625 Z M 164.796875 235.117188 " fill-opacity="1" fill-rule="nonzero"/></g><g fill="#000000" fill-opacity="1"><g transform="translate(262.326167, 293.164132)"><g><path d="M 44.296875 -10.363281 C 45.875 -13.039062 46.902344 -12.386719 49.132812 -11.871094 C 51.808594 -10.84375 54.316406 -9.882812 56.578125 -9.058594 C 57.300781 -8.785156 57.78125 -8.199219 57.882812 -7.445312 C 58.46875 -3.226562 59.359375 -0.996094 60.730469 -0.550781 C 60.972656 -0.445312 61.210938 -0.480469 61.417969 -0.582031 C 61.625 -0.6875 61.796875 -0.890625 61.863281 -1.097656 C 62 -1.578125 61.761719 -2.09375 61.28125 -2.265625 C 60.695312 -2.46875 60.25 -3.84375 59.90625 -5.9375 C 59.804688 -6.382812 59.976562 -6.828125 60.320312 -7.101562 C 60.628906 -7.378906 61.109375 -7.480469 61.519531 -7.34375 C 63.855469 -6.484375 66.324219 -5.96875 68.828125 -5.832031 C 69.035156 -5.832031 69.273438 -5.9375 69.445312 -6.109375 C 69.617188 -6.277344 69.6875 -6.519531 69.6875 -6.757812 C 69.6875 -7 69.582031 -7.238281 69.414062 -7.378906 C 69.242188 -7.546875 69 -7.652344 68.761719 -7.652344 C 65.980469 -7.855469 63.269531 -8.507812 60.664062 -9.539062 C 59.90625 -9.777344 59.359375 -10.464844 59.289062 -11.253906 C 58.742188 -18.425781 58.671875 -28.066406 58.636719 -33.453125 C 58.605469 -40.96875 58.535156 -43.882812 58.191406 -44.707031 C 58.054688 -45.085938 57.710938 -45.324219 57.335938 -45.292969 C 56.921875 -45.257812 56.613281 -44.984375 56.511719 -44.605469 C 54.488281 -37.296875 51.980469 -30.125 48.996094 -23.160156 C 48 -20.894531 47.042969 -18.835938 46.046875 -16.914062 C 45.601562 -16.023438 44.503906 -15.613281 43.574219 -15.953125 C 32.320312 -20.277344 19.453125 -24.910156 9.605469 -25.664062 C 5.796875 -25.941406 3.328125 -25.253906 2.265625 -23.640625 C 1.371094 -22.269531 1.542969 -20.449219 2.746094 -18.21875 C 6.519531 -11.324219 21.066406 -0.34375 31.257812 -0.34375 C 36.0625 -0.34375 40.488281 -4.5625 44.296875 -10.363281 Z M 7.925781 -23.914062 C 8.40625 -23.914062 8.921875 -23.914062 9.46875 -23.882812 C 18.835938 -23.160156 31.15625 -18.804688 42.066406 -14.617188 C 42.613281 -14.410156 43.0625 -13.929688 43.234375 -13.382812 C 43.4375 -12.796875 43.335938 -12.179688 43.027344 -11.664062 C 39.011719 -5.386719 35.03125 -2.160156 31.257812 -2.160156 C 22.472656 -2.160156 8.199219 -11.976562 4.324219 -19.078125 C 3.738281 -20.175781 3.15625 -21.683594 3.773438 -22.644531 C 4.289062 -23.46875 5.765625 -23.914062 7.925781 -23.914062 Z M 56.132812 -37.089844 C 56.375 -37.8125 56.820312 -37.675781 56.820312 -36.886719 C 56.820312 -35.785156 56.820312 -34.621094 56.855469 -33.453125 C 56.886719 -25.011719 57.027344 -18.289062 57.335938 -13.175781 C 57.402344 -12.59375 57.128906 -12.078125 56.683594 -11.734375 C 56.238281 -11.390625 55.652344 -11.324219 55.140625 -11.527344 C 52.976562 -12.351562 50.644531 -13.246094 48.242188 -14.171875 L 46.902344 -14.683594 C 50.644531 -21.855469 53.730469 -29.371094 56.132812 -37.089844 Z M 56.132812 -37.089844 "/></g></g></g><g fill="#000000" fill-opacity="1"><g transform="translate(333.799736, 293.164132)"><g><path d="M 23.882812 -9.023438 C 23.503906 -9.367188 22.921875 -9.332031 22.613281 -8.957031 C 19.902344 -6.140625 15.507812 -5.867188 12.488281 -8.304688 C 11.769531 -8.816406 10.773438 -8.785156 10.121094 -8.167969 C 9.746094 -7.824219 9.332031 -7.445312 8.921875 -7 C 7.617188 -5.523438 7.378906 -6.757812 7.378906 -7.582031 C 7.378906 -8.304688 7.238281 -9.058594 7 -9.746094 C 6.863281 -10.085938 6.519531 -10.328125 6.140625 -10.328125 C 5.765625 -10.292969 5.457031 -10.085938 5.316406 -9.710938 C 4.359375 -7.035156 2.300781 -3.121094 0.859375 -2.847656 C 0.753906 -2.8125 0.480469 -2.777344 0.0703125 -3.226562 C -0.136719 -4.117188 0 -5.078125 0.445312 -5.902344 C 1.476562 -8.679688 4.015625 -10.636719 6.964844 -10.910156 C 7.480469 -10.945312 7.855469 -11.390625 7.824219 -11.871094 C 7.789062 -12.386719 7.34375 -12.765625 6.863281 -12.730469 C 3.191406 -12.386719 0.0351562 -9.984375 -1.269531 -6.519531 C -1.851562 -5.007812 -2.195312 -3.019531 -1.269531 -2.023438 C -0.652344 -1.269531 0.273438 -0.925781 1.199219 -1.097656 C 2.917969 -1.441406 4.460938 -3.707031 5.558594 -5.765625 C 5.488281 -4.941406 5.386719 -4.015625 5.25 -3.054688 C 5.214844 -2.847656 5.148438 -2.675781 5.042969 -2.539062 C 1.03125 2.539062 -2.609375 8.679688 -2.675781 12.558594 C -2.777344 13.585938 -2.402344 14.617188 -1.714844 15.371094 C -1.371094 15.714844 -0.960938 15.886719 -0.515625 15.886719 C -0.136719 15.886719 0.238281 15.785156 0.550781 15.578125 C 2.8125 14.066406 5.695312 5.25 6.828125 -1.75 C 6.863281 -1.886719 6.929688 -2.023438 7.035156 -2.160156 C 8.234375 -3.636719 9.503906 -5.042969 10.84375 -6.382812 C 11.152344 -6.691406 11.632812 -6.726562 11.976562 -6.484375 C 15.75 -3.945312 20.757812 -4.496094 23.914062 -7.753906 C 24.222656 -8.132812 24.222656 -8.679688 23.882812 -9.023438 Z M 1.03125 11.941406 C 0.238281 13.519531 -0.0351562 14.203125 -0.445312 14.066406 C -0.859375 13.964844 -0.890625 13.277344 -0.859375 12.59375 C -0.789062 9.949219 3.808594 0.996094 4.460938 1.269531 C 5.113281 1.542969 2.332031 9.230469 1.03125 11.941406 Z M 1.03125 11.941406 "/></g></g></g><g fill="#000000" fill-opacity="1"><g transform="translate(356.401031, 293.164132)"><g><path d="M 29.75 -9.640625 C 29.578125 -9.8125 29.335938 -9.882812 29.097656 -9.882812 C 28.855469 -9.882812 28.648438 -9.777344 28.480469 -9.605469 C 25.390625 -6.347656 18.460938 -1.578125 13.382812 -1.578125 L 13.3125 -1.578125 C 11.90625 -1.507812 10.566406 -2.058594 9.605469 -3.054688 C 8.371094 -4.390625 9.230469 -8.027344 9.640625 -9.195312 C 9.8125 -9.640625 9.605469 -10.121094 9.195312 -10.292969 C 8.816406 -10.5 8.304688 -10.394531 8.0625 -10.019531 C 5.421875 -6.175781 1.648438 -2.4375 0.410156 -3.15625 C 0 -3.429688 0.617188 -6.074219 2.300781 -9.058594 C 2.503906 -9.46875 2.367188 -9.984375 1.957031 -10.226562 C 1.542969 -10.464844 0.996094 -10.363281 0.753906 -9.949219 C -0.410156 -7.925781 -2.847656 -3.019531 -0.515625 -1.613281 C 1.339844 -0.515625 3.84375 -2.300781 5.9375 -4.460938 C 6.140625 -4.699219 6.449219 -4.769531 6.726562 -4.667969 C 7 -4.597656 7.207031 -4.359375 7.273438 -4.046875 C 7.378906 -3.226562 7.71875 -2.46875 8.269531 -1.820312 C 9.574219 -0.445312 11.390625 0.308594 13.277344 0.238281 L 13.382812 0.238281 C 19.042969 0.238281 26.386719 -4.769531 29.78125 -8.335938 C 29.953125 -8.542969 30.023438 -8.75 30.023438 -8.988281 C 30.023438 -9.230469 29.917969 -9.46875 29.75 -9.640625 Z M 29.75 -9.640625 "/></g></g></g><g fill="#000000" fill-opacity="1"><g transform="translate(384.764118, 293.164132)"><g><path d="M 23.539062 -9.503906 C 23.367188 -9.675781 23.160156 -9.746094 22.921875 -9.746094 C 22.679688 -9.746094 22.441406 -9.675781 22.269531 -9.503906 C 18.972656 -6.382812 14.925781 -4.1875 10.5 -3.121094 C 10.328125 -3.054688 10.121094 -3.121094 10.019531 -3.257812 C 9.917969 -3.429688 9.882812 -3.601562 9.984375 -3.773438 C 10.601562 -4.976562 10.464844 -6.417969 9.675781 -7.515625 C 9.195312 -8.167969 8.578125 -8.714844 7.855469 -9.125 C 6.898438 -9.777344 5.832031 -10.535156 5.796875 -11.324219 C 5.832031 -11.769531 6.003906 -12.179688 6.3125 -12.523438 L 8.167969 -14.273438 C 8.507812 -14.617188 8.542969 -15.164062 8.234375 -15.507812 C 7.925781 -15.886719 7.410156 -15.953125 7 -15.644531 C 6.277344 -15.097656 5.59375 -14.480469 5.007812 -13.757812 L -0.273438 -8.816406 C -0.515625 -8.613281 -0.617188 -8.269531 -0.550781 -7.960938 C -0.480469 -7.617188 -0.238281 -7.378906 0.0703125 -7.273438 C 0.378906 -7.207031 0.71875 -7.273438 0.960938 -7.515625 L 3.570312 -9.949219 C 3.707031 -10.085938 3.878906 -10.121094 4.046875 -10.121094 C 4.21875 -10.085938 4.359375 -9.984375 4.425781 -9.847656 C 5.078125 -8.957031 5.902344 -8.199219 6.828125 -7.652344 C 7.34375 -7.34375 7.789062 -7 8.167969 -6.554688 C 8.507812 -6.175781 8.679688 -5.660156 8.578125 -5.148438 C 8.476562 -4.632812 8.167969 -4.1875 7.71875 -3.945312 C 5.523438 -2.710938 2.746094 -3.292969 1.234375 -5.316406 C 0.996094 -5.695312 0.445312 -5.832031 0.0351562 -5.558594 C -0.378906 -5.316406 -0.515625 -4.804688 -0.273438 -4.359375 C 0.859375 -2.402344 2.882812 -1.132812 5.148438 -0.960938 C 5.730469 -0.859375 6.277344 -0.824219 6.863281 -0.824219 C 12.660156 -0.824219 19.796875 -4.460938 23.539062 -8.234375 C 23.882812 -8.578125 23.882812 -9.160156 23.539062 -9.503906 Z M 23.539062 -9.503906 "/></g></g></g><g fill="#000000" fill-opacity="1"><g transform="translate(406.919567, 293.164132)"><g><path d="M 23.539062 -9.332031 C 23.195312 -9.675781 22.613281 -9.675781 22.269531 -9.296875 C 22.199219 -9.230469 12.902344 0.136719 6.726562 -2.195312 C 3.980469 -3.257812 2.8125 -6.449219 2.367188 -9.605469 C 2.984375 -11.117188 4.015625 -13.621094 4.976562 -16.433594 C 5.078125 -16.777344 5.179688 -16.8125 5.59375 -16.847656 C 10.226562 -17.191406 14.824219 -17.363281 17.535156 -17.363281 C 18.046875 -17.363281 18.425781 -17.773438 18.425781 -18.253906 C 18.425781 -18.769531 18.046875 -19.144531 17.535156 -19.144531 C 14.925781 -19.144531 10.636719 -18.941406 6.246094 -18.699219 C 6.074219 -18.664062 5.765625 -18.769531 6.003906 -19.386719 C 7.652344 -24.085938 8.816406 -28.855469 8.097656 -30.296875 C 7.378906 -31.738281 6.417969 -31.773438 5.9375 -31.667969 C 3.398438 -31.1875 1.542969 -24.601562 0.71875 -19.214844 C 0.652344 -18.734375 0.410156 -18.324219 -0.0351562 -18.289062 C -5.421875 -17.875 -9.847656 -17.566406 -9.917969 -17.566406 C -10.429688 -17.535156 -10.808594 -17.121094 -10.773438 -16.605469 C -10.773438 -16.125 -10.363281 -15.714844 -9.847656 -15.75 L -9.777344 -15.75 C -9.675781 -15.75 -5.523438 -16.058594 -0.34375 -16.433594 C -0.171875 -16.46875 0 -16.433594 0.136719 -16.296875 C 0.273438 -16.195312 0.378906 -16.023438 0.378906 -15.851562 C -0.136719 -7.6875 1.921875 -2.09375 6.074219 -0.515625 C 6.964844 -0.207031 7.890625 -0.0351562 8.851562 -0.0351562 C 15.644531 -0.0351562 23.195312 -7.6875 23.570312 -8.027344 C 23.742188 -8.199219 23.8125 -8.441406 23.8125 -8.679688 C 23.8125 -8.921875 23.710938 -9.160156 23.539062 -9.332031 Z M 2.539062 -19.28125 C 3.328125 -24.5 4.90625 -28.617188 5.832031 -29.679688 C 5.9375 -29.75 6.074219 -29.78125 6.210938 -29.75 C 6.3125 -29.714844 6.417969 -29.644531 6.484375 -29.507812 C 6.898438 -28.617188 5.730469 -24.257812 3.980469 -19.078125 C 3.910156 -18.769531 3.671875 -18.527344 3.328125 -18.492188 C 3.15625 -18.460938 2.984375 -18.460938 2.777344 -18.460938 C 2.4375 -18.460938 2.503906 -19.007812 2.539062 -19.25 Z M 2.128906 -13.894531 C 1.785156 -13.894531 1.921875 -16.296875 2.230469 -16.640625 C 2.503906 -16.8125 2.847656 -16.847656 3.121094 -16.675781 C 3.429688 -16.402344 2.503906 -13.894531 2.128906 -13.894531 Z M 2.128906 -13.894531 "/></g></g></g><g fill="#000000" fill-opacity="1"><g transform="translate(428.834932, 293.164132)"><g><path d="M 22.234375 -9.265625 C 21.855469 -9.605469 21.308594 -9.605469 20.964844 -9.230469 C 20.828125 -9.125 9.710938 2.195312 2.332031 -3.191406 C 0.0703125 -4.839844 2.265625 -9.125 2.300781 -9.160156 C 2.503906 -9.605469 2.332031 -10.121094 1.886719 -10.363281 C 1.441406 -10.566406 0.925781 -10.429688 0.6875 -9.984375 C 0.550781 -9.777344 -2.230469 -4.324219 1.269531 -1.75 C 2.882812 -0.550781 4.871094 0.101562 6.898438 0.0703125 C 14.308594 0.0703125 21.820312 -7.582031 22.234375 -7.996094 C 22.40625 -8.167969 22.507812 -8.371094 22.507812 -8.613281 C 22.472656 -8.851562 22.40625 -9.09375 22.234375 -9.265625 Z M 0.308594 -11.976562 C 0.445312 -11.976562 0.582031 -12.007812 0.71875 -12.078125 C 1.542969 -12.488281 2.265625 -13.039062 2.917969 -13.691406 C 3.257812 -14.066406 3.226562 -14.617188 2.882812 -14.960938 C 2.503906 -15.304688 1.957031 -15.304688 1.613281 -14.925781 C 1.097656 -14.410156 0.515625 -14 -0.136719 -13.65625 C -0.480469 -13.484375 -0.6875 -13.039062 -0.582031 -12.660156 C -0.480469 -12.25 -0.101562 -11.976562 0.308594 -11.976562 Z M 0.308594 -11.976562 "/></g></g></g><g fill="#000000" fill-opacity="1"><g transform="translate(449.892897, 293.164132)"><g><path d="M 29.988281 -8.542969 C 29.78125 -8.679688 29.578125 -8.785156 29.335938 -8.785156 C 29.097656 -8.75 28.855469 -8.648438 28.71875 -8.476562 C 28.617188 -8.40625 21.066406 -0.34375 14.515625 -2.984375 C 13.105469 -3.738281 11.976562 -4.871094 11.1875 -6.277344 C 10.910156 -6.726562 10.566406 -7.171875 10.15625 -7.582031 C 9.710938 -8.132812 9.023438 -8.441406 8.304688 -8.476562 C 6.554688 -8.613281 4.425781 -7.445312 1.886719 -5.042969 C 1.820312 -4.976562 1.714844 -4.941406 1.613281 -5.007812 C 1.507812 -5.042969 1.441406 -5.179688 1.476562 -5.285156 L 2.230469 -8.648438 C 2.367188 -9.125 2.058594 -9.640625 1.578125 -9.746094 C 1.097656 -9.847656 0.617188 -9.539062 0.480469 -9.058594 L -1.234375 -1.542969 C -1.339844 -1.132812 -1.132812 -0.71875 -0.753906 -0.550781 C -0.378906 -0.34375 0.0703125 -0.445312 0.34375 -0.753906 C 4.941406 -6.140625 7.273438 -6.65625 8.097656 -6.691406 C 8.921875 -6.726562 9.4375 -5.660156 9.710938 -5.25 C 10.671875 -3.570312 12.113281 -2.195312 13.828125 -1.339844 C 21.511719 1.785156 29.679688 -6.898438 30.023438 -7.273438 C 30.367188 -7.617188 30.332031 -8.199219 29.988281 -8.542969 Z M 29.988281 -8.542969 "/></g></g></g><g fill="#000000" fill-opacity="1"><g transform="translate(478.461747, 293.164132)"><g><path d="M 28.683594 -8.304688 C 28.339844 -8.679688 27.757812 -8.714844 27.378906 -8.371094 C 27.277344 -8.269531 17.085938 0.890625 10.773438 -3.257812 C 8.269531 -4.90625 7.652344 -8.886719 7.652344 -8.921875 C 7.617188 -9.332031 7.308594 -9.640625 6.898438 -9.710938 C 6.519531 -9.746094 6.109375 -9.539062 5.9375 -9.195312 C 4.324219 -5.628906 1.476562 -1.097656 0.6875 -1.613281 C 0.617188 -1.613281 0.480469 -1.75 0.378906 -1.988281 C -0.0351562 -3.121094 0.101562 -4.359375 0.6875 -5.421875 C 1.988281 -8.097656 4.390625 -10.019531 7.273438 -10.738281 C 7.582031 -10.808594 7.824219 -11.046875 7.925781 -11.355469 C 8.027344 -11.664062 7.925781 -12.007812 7.71875 -12.25 C 7.480469 -12.457031 7.171875 -12.558594 6.863281 -12.488281 C 3.429688 -11.664062 0.582031 -9.332031 -0.960938 -6.175781 C -1.785156 -4.632812 -1.886719 -2.777344 -1.234375 -1.167969 C -0.925781 -0.378906 -0.171875 0.171875 0.6875 0.171875 L 0.71875 0.171875 C 2.402344 0.136719 4.496094 -1.957031 5.9375 -4.21875 C 6.109375 -4.496094 6.417969 -4.632812 6.726562 -4.597656 C 7.035156 -4.597656 7.308594 -4.425781 7.445312 -4.152344 C 8.027344 -3.191406 8.816406 -2.367188 9.777344 -1.785156 C 17.257812 3.191406 28.136719 -6.621094 28.617188 -7.035156 C 28.789062 -7.207031 28.890625 -7.445312 28.890625 -7.652344 C 28.925781 -7.890625 28.820312 -8.132812 28.683594 -8.304688 Z M 28.683594 -8.304688 "/></g></g></g><g fill="#000000" fill-opacity="1"><g transform="translate(506.173199, 293.164132)"><g/></g></g><g fill="#000000" fill-opacity="1"><g transform="translate(518.931441, 293.164132)"><g><path d="M 27.140625 -9.4375 C 26.761719 -9.777344 26.214844 -9.777344 25.871094 -9.4375 C 25.664062 -9.230469 21.171875 -4.769531 15.097656 -9.230469 C 14.753906 -9.46875 14.308594 -9.46875 13.964844 -9.160156 C 13.414062 -8.679688 12.832031 -8.097656 12.214844 -7.480469 C 11.976562 -7.207031 11.5625 -7.101562 11.21875 -7.238281 C 10.875 -7.378906 10.636719 -7.6875 10.601562 -8.0625 C 10.601562 -8.785156 10.5 -9.503906 10.257812 -10.191406 C 10.121094 -10.566406 9.746094 -10.808594 9.332031 -10.738281 C 8.921875 -10.707031 8.613281 -10.394531 8.542969 -10.019531 C 8.542969 -9.949219 7.445312 -3.878906 2.777344 -2.640625 C 2.367188 -2.503906 1.921875 -2.609375 1.613281 -2.917969 C 1.339844 -3.226562 0.550781 -4.597656 2.332031 -8.957031 C 2.503906 -9.4375 2.300781 -9.949219 1.820312 -10.121094 C 1.371094 -10.328125 0.824219 -10.085938 0.652344 -9.640625 C -1.269531 -4.90625 -0.617188 -2.710938 0.238281 -1.714844 C 0.996094 -0.890625 2.160156 -0.582031 3.226562 -0.925781 C 5.628906 -1.578125 7.617188 -3.226562 8.75 -5.421875 C 8.714844 -4.769531 8.613281 -4.117188 8.507812 -3.429688 C 8.476562 -3.292969 8.40625 -3.121094 8.304688 -2.984375 C 4.289062 2.058594 0.652344 8.234375 0.582031 12.113281 C 0.480469 13.140625 0.859375 14.171875 1.578125 14.960938 C 1.886719 15.269531 2.300781 15.472656 2.746094 15.472656 C 3.121094 15.441406 3.5 15.335938 3.808594 15.132812 C 6.074219 13.621094 8.957031 4.839844 10.085938 -2.160156 C 10.121094 -2.332031 10.191406 -2.46875 10.292969 -2.609375 C 11.355469 -3.910156 12.457031 -5.148438 13.554688 -6.246094 C 14.171875 -6.898438 15.097656 -7.035156 15.886719 -6.621094 C 19.59375 -4.667969 24.121094 -5.285156 27.140625 -8.167969 C 27.3125 -8.335938 27.414062 -8.578125 27.414062 -8.816406 C 27.414062 -9.058594 27.3125 -9.265625 27.140625 -9.4375 Z M 7.546875 1.578125 C 6.792969 5.007812 5.695312 8.304688 4.253906 11.496094 C 3.464844 13.074219 3.121094 13.691406 2.777344 13.621094 C 2.46875 13.585938 2.367188 12.832031 2.402344 12.144531 C 2.4375 9.640625 4.496094 5.523438 7.238281 1.507812 C 7.410156 1.269531 7.617188 1.339844 7.546875 1.578125 Z M 7.546875 1.578125 "/></g></g></g><g fill="#000000" fill-opacity="1"><g transform="translate(544.413632, 293.164132)"><g/></g></g><g fill="#000000" fill-opacity="1"><g transform="translate(557.171875, 293.164132)"><g><path d="M 18.324219 1.304688 C 21.410156 0.101562 23.8125 -5.25 25.390625 -10.054688 C 25.628906 -10.808594 26.144531 -11.460938 26.832031 -11.835938 C 28.890625 -13.003906 30.914062 -14.066406 32.664062 -14.925781 C 33.109375 -15.132812 33.316406 -15.679688 33.078125 -16.125 C 32.871094 -16.574219 32.320312 -16.777344 31.875 -16.539062 C 31.429688 -16.332031 30.058594 -15.679688 28.273438 -14.71875 C 27.964844 -14.546875 27.585938 -14.582031 27.3125 -14.789062 C 27.039062 -14.996094 26.933594 -15.335938 27.003906 -15.679688 C 27.3125 -16.882812 27.484375 -17.738281 27.550781 -18.082031 C 27.621094 -18.425781 27.484375 -18.804688 27.140625 -19.007812 C 26.832031 -19.214844 26.421875 -19.214844 26.109375 -18.972656 C 26.007812 -18.871094 13.175781 -9.265625 5.96875 -13.3125 C 3.601562 -14.652344 3.363281 -17.394531 3.570312 -19.453125 C 4.253906 -26.589844 11.289062 -36.300781 20.585938 -39.320312 C 24.636719 -40.660156 27.414062 -39.9375 28.375 -37.332031 C 30.023438 -33.078125 26.421875 -24.257812 17.085938 -20.210938 C 16.605469 -20.003906 16.402344 -19.453125 16.605469 -19.007812 C 16.8125 -18.5625 17.328125 -18.355469 17.808594 -18.5625 C 27.449219 -22.75 32.253906 -32.289062 30.089844 -37.984375 C 28.71875 -41.515625 24.980469 -42.648438 20.039062 -41.035156 C 10.054688 -37.777344 2.539062 -27.347656 1.75 -19.625 C 1.40625 -15.953125 2.574219 -13.175781 5.078125 -11.769531 C 10.84375 -8.507812 19.144531 -12.457031 23.777344 -15.234375 C 24.019531 -15.40625 24.328125 -15.371094 24.566406 -15.199219 C 24.808594 -14.996094 24.910156 -14.683594 24.808594 -14.410156 L 24.394531 -12.933594 C 24.292969 -12.625 24.085938 -12.351562 23.8125 -12.179688 C 18.804688 -9.160156 13.347656 -5.179688 13.105469 -2.058594 C 13.003906 -0.890625 13.585938 0.207031 14.546875 0.789062 C 15.269531 1.304688 16.09375 1.578125 16.949219 1.578125 C 17.394531 1.578125 17.875 1.476562 18.324219 1.304688 Z M 22.441406 -7.308594 C 21.101562 -3.945312 19.453125 -1.0625 17.671875 -0.34375 C 16.949219 -0.101562 16.160156 -0.207031 15.613281 -0.6875 C 14.925781 -1.167969 14.855469 -1.578125 14.890625 -1.886719 C 15.027344 -3.570312 17.703125 -5.9375 21.171875 -8.335938 C 21.480469 -8.542969 21.890625 -8.542969 22.199219 -8.304688 C 22.507812 -8.0625 22.613281 -7.652344 22.441406 -7.308594 Z M 22.441406 -7.308594 "/></g></g></g><g fill="#000000" fill-opacity="1"><g transform="translate(586.906797, 293.164132)"><g><path d="M 25.011719 -9.746094 C 24.839844 -9.917969 24.636719 -9.984375 24.394531 -9.984375 C 24.15625 -9.984375 23.914062 -9.917969 23.742188 -9.746094 C 19.625 -5.628906 13.792969 -3.738281 8.0625 -4.699219 C 7.617188 -4.804688 7.308594 -5.214844 7.378906 -5.660156 C 7.652344 -7.308594 7.515625 -8.988281 6.554688 -9.539062 C 5.9375 -9.882812 5.007812 -9.917969 3.910156 -8.0625 C 3.5 -7.445312 3.363281 -6.691406 3.5 -5.96875 C 3.671875 -5.25 4.117188 -4.597656 4.734375 -4.21875 C 5.113281 -3.910156 4.667969 -3.398438 4.425781 -3.15625 C 3.773438 -2.367188 2.640625 -2.230469 1.851562 -2.847656 C 0.859375 -3.292969 0.410156 -4.390625 0.789062 -5.386719 C 1.234375 -7.207031 3.019531 -8.785156 3.671875 -8.785156 C 4.152344 -8.785156 4.5625 -9.195312 4.5625 -9.675781 C 4.597656 -10.15625 4.1875 -10.566406 3.707031 -10.601562 L 3.671875 -10.601562 C 1.957031 -10.601562 -0.34375 -8.269531 -0.960938 -5.832031 C -1.542969 -4.046875 -0.71875 -2.09375 0.996094 -1.269531 C 1.648438 -0.890625 2.367188 -0.71875 3.121094 -0.6875 C 4.597656 -0.753906 5.902344 -1.648438 6.519531 -3.019531 C 6.585938 -3.121094 6.757812 -3.191406 6.898438 -3.15625 C 11.253906 -1.851562 19.214844 -2.675781 25.011719 -8.441406 C 25.183594 -8.613281 25.289062 -8.851562 25.289062 -9.09375 C 25.289062 -9.332031 25.183594 -9.574219 25.011719 -9.746094 Z M 5.59375 -5.832031 C 5.214844 -6.175781 5.148438 -6.726562 5.457031 -7.136719 C 5.558594 -7.308594 5.628906 -7.410156 5.695312 -7.515625 C 5.730469 -6.964844 5.695312 -6.382812 5.59375 -5.832031 Z M 5.59375 -5.832031 "/></g></g></g><g fill="#000000" fill-opacity="1"><g transform="translate(610.605575, 293.164132)"><g><path d="M 29.988281 -8.542969 C 29.78125 -8.679688 29.578125 -8.785156 29.335938 -8.785156 C 29.097656 -8.75 28.855469 -8.648438 28.71875 -8.476562 C 28.617188 -8.40625 21.066406 -0.34375 14.515625 -2.984375 C 13.105469 -3.738281 11.976562 -4.871094 11.1875 -6.277344 C 10.910156 -6.726562 10.566406 -7.171875 10.15625 -7.582031 C 9.710938 -8.132812 9.023438 -8.441406 8.304688 -8.476562 C 6.554688 -8.613281 4.425781 -7.445312 1.886719 -5.042969 C 1.820312 -4.976562 1.714844 -4.941406 1.613281 -5.007812 C 1.507812 -5.042969 1.441406 -5.179688 1.476562 -5.285156 L 2.230469 -8.648438 C 2.367188 -9.125 2.058594 -9.640625 1.578125 -9.746094 C 1.097656 -9.847656 0.617188 -9.539062 0.480469 -9.058594 L -1.234375 -1.542969 C -1.339844 -1.132812 -1.132812 -0.71875 -0.753906 -0.550781 C -0.378906 -0.34375 0.0703125 -0.445312 0.34375 -0.753906 C 4.941406 -6.140625 7.273438 -6.65625 8.097656 -6.691406 C 8.921875 -6.726562 9.4375 -5.660156 9.710938 -5.25 C 10.671875 -3.570312 12.113281 -2.195312 13.828125 -1.339844 C 21.511719 1.785156 29.679688 -6.898438 30.023438 -7.273438 C 30.367188 -7.617188 30.332031 -8.199219 29.988281 -8.542969 Z M 29.988281 -8.542969 "/></g></g></g><g fill="#000000" fill-opacity="1"><g transform="translate(639.174425, 293.164132)"><g><path d="M 28.136719 -9.058594 C 27.828125 -9.402344 27.242188 -9.46875 26.867188 -9.125 C 26.796875 -9.058594 20.039062 -3.292969 14.515625 -7.066406 C 13.792969 -7.546875 12.796875 -7.480469 12.144531 -6.898438 C 11.527344 -6.3125 10.875 -5.628906 10.191406 -4.871094 C 9.847656 -4.527344 9.296875 -4.460938 8.921875 -4.769531 L 8.921875 -4.804688 C 8.648438 -4.976562 8.507812 -5.285156 8.542969 -5.59375 C 8.578125 -5.9375 8.75 -6.210938 9.058594 -6.347656 C 10.464844 -7.035156 11.5625 -7.890625 11.664062 -8.886719 C 11.734375 -9.777344 11.1875 -10.535156 9.949219 -11.117188 C 7.101562 -12.488281 2.710938 -11.324219 0.273438 -9.46875 C -0.136719 -9.195312 -0.207031 -8.613281 0.101562 -8.234375 C 0.410156 -7.824219 0.960938 -7.753906 1.371094 -8.0625 C 3.328125 -9.539062 7.035156 -10.5 9.195312 -9.46875 C 9.4375 -9.367188 9.640625 -9.230469 9.847656 -9.058594 C 9.605469 -8.441406 6.792969 -7.207031 3.945312 -6.484375 C 3.535156 -6.382812 3.226562 -6.003906 3.257812 -5.558594 C 3.292969 -5.148438 3.636719 -4.769531 4.046875 -4.734375 C 5.351562 -4.632812 6.585938 -4.1875 7.652344 -3.464844 C 7.855469 -3.328125 7.996094 -3.089844 8.027344 -2.847656 C 8.027344 -2.609375 7.960938 -2.367188 7.824219 -2.160156 C 3.191406 3.464844 -1.476562 10.875 -0.652344 14.136719 C -0.445312 15.027344 0.238281 15.679688 1.097656 15.886719 C 1.269531 15.921875 1.441406 15.921875 1.578125 15.921875 C 3.121094 15.921875 4.769531 14.410156 5.96875 13.074219 C 8.851562 9.777344 12.796875 2.640625 10.808594 -2.265625 C 10.707031 -2.539062 10.773438 -2.847656 10.945312 -3.089844 C 11.597656 -3.808594 12.25 -4.496094 12.902344 -5.113281 C 13.210938 -5.421875 13.691406 -5.457031 14.035156 -5.25 C 20.550781 -1.371094 27.964844 -7.71875 28.066406 -7.789062 C 28.445312 -8.097656 28.480469 -8.679688 28.136719 -9.058594 Z M 4.597656 11.90625 C 3.019531 13.691406 1.886719 14.203125 1.507812 14.136719 C 1.304688 14.101562 1.132812 13.929688 1.097656 13.726562 C 0.617188 11.769531 3.808594 5.9375 7.855469 0.652344 C 8.097656 0.34375 8.542969 0.207031 8.921875 0.34375 C 9.296875 0.480469 9.539062 0.859375 9.539062 1.269531 C 9.296875 4.699219 7.171875 8.988281 4.597656 11.90625 Z M 4.597656 11.90625 "/></g></g></g><g fill="#000000" fill-opacity="1"><g transform="translate(665.754099, 293.164132)"><g><path d="M 28.683594 -8.304688 C 28.339844 -8.679688 27.757812 -8.714844 27.378906 -8.371094 C 27.277344 -8.269531 17.085938 0.890625 10.773438 -3.257812 C 8.269531 -4.90625 7.652344 -8.886719 7.652344 -8.921875 C 7.617188 -9.332031 7.308594 -9.640625 6.898438 -9.710938 C 6.519531 -9.746094 6.109375 -9.539062 5.9375 -9.195312 C 4.324219 -5.628906 1.476562 -1.097656 0.6875 -1.613281 C 0.617188 -1.613281 0.480469 -1.75 0.378906 -1.988281 C -0.0351562 -3.121094 0.101562 -4.359375 0.6875 -5.421875 C 1.988281 -8.097656 4.390625 -10.019531 7.273438 -10.738281 C 7.582031 -10.808594 7.824219 -11.046875 7.925781 -11.355469 C 8.027344 -11.664062 7.925781 -12.007812 7.71875 -12.25 C 7.480469 -12.457031 7.171875 -12.558594 6.863281 -12.488281 C 3.429688 -11.664062 0.582031 -9.332031 -0.960938 -6.175781 C -1.785156 -4.632812 -1.886719 -2.777344 -1.234375 -1.167969 C -0.925781 -0.378906 -0.171875 0.171875 0.6875 0.171875 L 0.71875 0.171875 C 2.402344 0.136719 4.496094 -1.957031 5.9375 -4.21875 C 6.109375 -4.496094 6.417969 -4.632812 6.726562 -4.597656 C 7.035156 -4.597656 7.308594 -4.425781 7.445312 -4.152344 C 8.027344 -3.191406 8.816406 -2.367188 9.777344 -1.785156 C 17.257812 3.191406 28.136719 -6.621094 28.617188 -7.035156 C 28.789062 -7.207031 28.890625 -7.445312 28.890625 -7.652344 C 28.925781 -7.890625 28.820312 -8.132812 28.683594 -8.304688 Z M 28.683594 -8.304688 "/></g></g></g><g fill="#000000" fill-opacity="1"><g transform="translate(693.465551, 293.164132)"><g><path d="M 23.605469 -8.785156 C 23.433594 -8.957031 23.195312 -9.058594 22.953125 -9.058594 C 22.714844 -9.058594 22.472656 -8.957031 22.300781 -8.785156 C 22.234375 -8.714844 13.210938 0.171875 6.726562 -1.785156 C 4.425781 -2.46875 3.15625 -4.667969 2.4375 -7 C 2.230469 -7.753906 2.300781 -8.578125 2.640625 -9.296875 C 5.042969 -14.171875 10.945312 -26.933594 8.027344 -30.058594 C 7.34375 -30.914062 6.210938 -31.1875 5.214844 -30.777344 C 1.75 -29.269531 -0.550781 -19.144531 -0.136719 -11.769531 C -0.0703125 -10.636719 0.0703125 -9.503906 0.273438 -8.371094 C 0.273438 -8.234375 0.273438 -8.132812 0.34375 -8.027344 C 1.234375 -3.707031 3.257812 -0.925781 6.210938 -0.0703125 C 7.035156 0.171875 7.855469 0.308594 8.679688 0.308594 C 15.644531 0.308594 23.230469 -7.171875 23.570312 -7.515625 C 23.742188 -7.6875 23.847656 -7.890625 23.847656 -8.132812 C 23.847656 -8.40625 23.777344 -8.613281 23.605469 -8.785156 Z M 1.75 -12.285156 C 0.6875 -18.011719 4.21875 -28.410156 5.9375 -29.128906 C 6.003906 -29.164062 6.074219 -29.199219 6.140625 -29.199219 C 6.277344 -29.199219 6.449219 -29.128906 6.691406 -28.855469 C 8.0625 -27.414062 4.152344 -14.996094 2.332031 -12.078125 C 2.160156 -11.769531 1.820312 -11.941406 1.75 -12.285156 Z M 1.75 -12.285156 "/></g></g></g><g fill="#000000" fill-opacity="1"><g transform="translate(716.066821, 293.164132)"><g><path d="M 25.011719 -9.746094 C 24.839844 -9.917969 24.636719 -9.984375 24.394531 -9.984375 C 24.15625 -9.984375 23.914062 -9.917969 23.742188 -9.746094 C 19.625 -5.628906 13.792969 -3.738281 8.0625 -4.699219 C 7.617188 -4.804688 7.308594 -5.214844 7.378906 -5.660156 C 7.652344 -7.308594 7.515625 -8.988281 6.554688 -9.539062 C 5.9375 -9.882812 5.007812 -9.917969 3.910156 -8.0625 C 3.5 -7.445312 3.363281 -6.691406 3.5 -5.96875 C 3.671875 -5.25 4.117188 -4.597656 4.734375 -4.21875 C 5.113281 -3.910156 4.667969 -3.398438 4.425781 -3.15625 C 3.773438 -2.367188 2.640625 -2.230469 1.851562 -2.847656 C 0.859375 -3.292969 0.410156 -4.390625 0.789062 -5.386719 C 1.234375 -7.207031 3.019531 -8.785156 3.671875 -8.785156 C 4.152344 -8.785156 4.5625 -9.195312 4.5625 -9.675781 C 4.597656 -10.15625 4.1875 -10.566406 3.707031 -10.601562 L 3.671875 -10.601562 C 1.957031 -10.601562 -0.34375 -8.269531 -0.960938 -5.832031 C -1.542969 -4.046875 -0.71875 -2.09375 0.996094 -1.269531 C 1.648438 -0.890625 2.367188 -0.71875 3.121094 -0.6875 C 4.597656 -0.753906 5.902344 -1.648438 6.519531 -3.019531 C 6.585938 -3.121094 6.757812 -3.191406 6.898438 -3.15625 C 11.253906 -1.851562 19.214844 -2.675781 25.011719 -8.441406 C 25.183594 -8.613281 25.289062 -8.851562 25.289062 -9.09375 C 25.289062 -9.332031 25.183594 -9.574219 25.011719 -9.746094 Z M 5.59375 -5.832031 C 5.214844 -6.175781 5.148438 -6.726562 5.457031 -7.136719 C 5.558594 -7.308594 5.628906 -7.410156 5.695312 -7.515625 C 5.730469 -6.964844 5.695312 -6.382812 5.59375 -5.832031 Z M 5.59375 -5.832031 "/></g></g></g></svg>