<svg xmlns="http://www.w3.org/2000/svg" xmlns:xlink="http://www.w3.org/1999/xlink" width="1366" zoomAndPan="magnify" viewBox="0 0 1024.5 576" height="768" preserveAspectRatio="xMidYMid meet" version="1.0"><metadata><ContainsAiGeneratedContent>Yes</ContainsAiGeneratedContent></metadata><defs><clipPath id="cbb4525b48"><path d="M 296 29 L 728.53125 29 L 728.53125 546.921875 L 296 546.921875 Z M 296 29 " clip-rule="nonzero"/></clipPath></defs><g clip-path="url(#cbb4525b48)"><path fill="#000000" d="M 459.492188 29.121094 C 441.105469 30.316406 423.179688 36.03125 407.054688 45.859375 C 405.335938 46.90625 401.308594 49.589844 398.296875 51.703125 C 397.019531 52.585938 396.496094 52.785156 392.863281 53.621094 C 375.363281 57.632812 357.238281 66.046875 342.769531 76.886719 C 317.230469 95.996094 302.070312 121.902344 297.519531 154.226562 C 295.277344 170.207031 295.621094 187.808594 298.550781 205.25 C 303.871094 236.886719 316.640625 266.671875 337.25 295.570312 C 353.261719 318.023438 374.804688 341.304688 401.621094 365.132812 C 411.804688 374.1875 419.957031 381.0625 439.601562 397.144531 C 463.503906 416.710938 476.171875 427.453125 488.042969 438.164062 C 496.667969 445.941406 504.167969 453.324219 507.867188 457.714844 C 508.667969 458.664062 509.375 459.320312 509.929688 459.628906 L 510.75 460.070312 L 510.78125 458.992188 C 510.8125 458.007812 510.75 457.746094 510.160156 456.535156 C 508.359375 452.816406 505.164062 448.90625 498.585938 442.402344 C 488.515625 432.449219 476.089844 421.722656 444.757812 395.917969 C 412.621094 369.472656 400.03125 358.402344 384.136719 342.617188 C 360.253906 318.957031 342.390625 296.636719 329.148438 273.925781 C 312.285156 245.039062 302.757812 214.515625 301.105469 184.109375 C 300.890625 180.179688 300.890625 171.042969 301.105469 167.40625 C 302.300781 146.792969 307.160156 129.433594 316.101562 113.828125 C 328.183594 92.738281 348.21875 75.707031 373.234375 65.292969 C 378.144531 63.246094 386.296875 60.480469 387.066406 60.59375 C 387.328125 60.628906 386.59375 61.445312 383.582031 64.492188 C 378.226562 69.878906 374.722656 73.941406 370.222656 79.964844 C 353.800781 101.957031 342.832031 129.613281 339.183594 158.238281 C 338.183594 166.097656 337.875 171.207031 337.875 179.933594 C 337.875 188.597656 338.167969 193.65625 339.167969 201.628906 C 343.703125 237.769531 359.925781 274.792969 387.917969 312.816406 C 405.089844 336.132812 425.816406 358.15625 450.40625 379.230469 C 460.128906 387.546875 469.558594 395.128906 486.257812 408.035156 C 496.621094 416.039062 496.980469 416.335938 503.691406 422.28125 C 514.957031 432.269531 522.027344 437.738281 526.675781 440.046875 C 531.226562 442.304688 534.042969 443.089844 538.855469 443.4375 C 540.363281 443.535156 541.589844 443.679688 541.589844 443.730469 C 541.589844 443.796875 541.035156 445.058594 540.347656 446.53125 C 528.804688 471.421875 522.386719 490.464844 519.753906 507.589844 C 518.785156 513.796875 518.605469 516.484375 518.605469 523.722656 C 518.589844 530.957031 518.703125 532.351562 519.589844 536.738281 C 520.339844 540.488281 521.652344 543.699219 523.042969 545.269531 C 524.269531 546.628906 525.238281 546.921875 525.859375 546.136719 C 526.332031 545.53125 526.285156 544.976562 525.628906 542.878906 C 524.335938 538.851562 523.878906 535.183594 523.878906 528.714844 C 523.878906 506.984375 531.195312 480.082031 546.339844 446.1875 C 548.351562 441.683594 548.402344 441.601562 549.988281 440.503906 C 551.90625 439.160156 554.898438 436.179688 557.207031 433.316406 C 559.613281 430.304688 561.972656 427.011719 568.4375 417.613281 C 580.472656 400.15625 588.082031 390.054688 597.726562 378.804688 C 609.054688 365.605469 619.515625 354.929688 641.863281 333.773438 C 658.871094 317.660156 668.628906 307.738281 676.175781 298.8125 C 695.492188 275.988281 705.902344 253.765625 707.425781 232.167969 C 707.933594 224.832031 707.164062 216.761719 705.296875 210.097656 C 705.035156 209.128906 704.808594 208.132812 704.808594 207.871094 C 704.808594 207.605469 705.738281 205.332031 706.886719 202.792969 C 720.03125 173.5625 726.5625 150.984375 728.25 129.007812 C 728.496094 125.75 728.496094 116.1875 728.25 113.207031 C 727.054688 98.976562 723.976562 87.21875 718.476562 76.035156 C 714.777344 68.488281 711.078125 63.214844 706.003906 58.253906 C 693.96875 46.464844 677.730469 43.007812 656.496094 47.707031 C 637.246094 51.980469 614.769531 63.230469 595.546875 78.230469 C 579.015625 91.101562 565.082031 106.296875 553.28125 124.242188 C 552.835938 124.914062 552.410156 125.472656 552.3125 125.472656 C 552.230469 125.488281 551.839844 123.6875 551.445312 121.476562 C 546.011719 90.316406 538.332031 70.550781 525.695312 55.242188 C 523.664062 52.785156 518.230469 47.429688 515.757812 45.464844 C 504.070312 36.148438 490.695312 30.941406 474.308594 29.367188 C 471.097656 29.058594 462.734375 28.925781 459.492188 29.121094 Z M 474.878906 35.589844 C 495.882812 37.621094 512.238281 46.449219 524.1875 62.214844 C 533.191406 74.085938 539.675781 89.90625 544.210938 111.027344 C 545.832031 118.644531 548.089844 131.90625 547.910156 132.792969 C 547.859375 133.054688 547.191406 134.394531 546.421875 135.789062 C 538.398438 150.441406 532.441406 166.507812 529.066406 182.636719 C 528.28125 186.46875 528.199219 186.746094 528.085938 186.613281 C 528.035156 186.566406 527.445312 183.996094 526.792969 180.898438 C 521.996094 158.597656 516.953125 141.289062 510.566406 125.160156 C 502.90625 105.839844 494.769531 91.574219 484.71875 79.882812 C 482.625 77.445312 477.367188 72.238281 474.960938 70.207031 C 465.679688 62.378906 455.613281 57.007812 444.152344 53.785156 C 435.804688 51.425781 425.636719 50.214844 416.730469 50.492188 C 414.308594 50.574219 413.246094 50.558594 413.246094 50.425781 C 413.246094 50 421.347656 45.808594 426.011719 43.8125 C 437.40625 38.929688 449.292969 36.097656 461.539062 35.34375 C 464.582031 35.148438 471.71875 35.28125 474.878906 35.589844 Z M 679.121094 51.230469 C 694.511719 52.769531 705.707031 61.316406 713.761719 77.675781 C 717.332031 84.945312 720 93.441406 721.503906 102.398438 C 725.449219 125.765625 721.441406 151.636719 708.980469 183.289062 C 706.445312 189.742188 702.203125 199.617188 701.777344 200.042969 C 701.613281 200.238281 701.417969 200.007812 700.664062 198.730469 C 698.980469 195.867188 697.75 194.328125 695.117188 191.691406 C 693.691406 190.265625 692.527344 189.023438 692.527344 188.90625 C 692.527344 188.792969 692.90625 187.808594 693.363281 186.730469 C 709.929688 147.660156 717.050781 120.542969 716.542969 98.386719 C 716.316406 88.710938 714.859375 81.621094 711.832031 75.546875 C 708.179688 68.191406 702.792969 64.015625 695.066406 62.558594 C 693.9375 62.347656 692.742188 62.28125 689.992188 62.296875 C 686.863281 62.3125 686.0625 62.363281 683.933594 62.757812 C 669.644531 65.277344 652.078125 74.710938 632.859375 90.152344 C 608.234375 109.933594 582.617188 138.851562 560.777344 171.535156 C 559.859375 172.910156 559.027344 174.039062 558.945312 174.039062 C 558.746094 174.039062 558.796875 174.332031 557.46875 164.050781 C 556.128906 153.703125 554.882812 144.320312 554.195312 139.375 C 553.753906 136.277344 553.722656 135.820312 553.917969 135.246094 C 554.359375 134.019531 558.894531 126.8125 562.332031 121.902344 C 572.367188 107.625 584.664062 94.523438 598.070312 83.796875 C 611.953125 72.695312 627.472656 63.625 642.597656 57.777344 C 651.175781 54.453125 660.425781 52.097656 667.90625 51.328125 C 670.492188 51.046875 676.828125 51 679.121094 51.230469 Z M 426.421875 56.222656 C 448.589844 58.171875 466.792969 67.703125 481.363281 84.992188 C 496.882812 103.382812 510.289062 133.625 519.800781 171.664062 C 521.210938 177.332031 522.4375 182.621094 524.515625 192.132812 L 526.121094 199.5 L 526.039062 203.1875 C 525.988281 205.214844 525.957031 209.835938 525.957031 213.46875 C 525.957031 217.089844 525.90625 220.050781 525.84375 220.050781 C 525.777344 220.050781 524.859375 218.332031 523.8125 216.238281 C 510.648438 190.035156 497.242188 172.253906 481.675781 160.351562 C 474.847656 155.125 466.925781 150.949219 460.195312 149.019531 C 455.414062 147.644531 451.960938 147.136719 447.378906 147.136719 C 442.644531 147.117188 438.945312 147.726562 434.738281 149.164062 C 428.386719 151.359375 423.199219 154.734375 417.976562 160.054688 C 407.941406 170.320312 401.144531 186.140625 398.757812 204.742188 C 397.953125 210.996094 397.644531 220.65625 398.003906 227.09375 C 400.066406 262.707031 414.863281 297.503906 444.003906 335.167969 C 454.710938 349.019531 464.222656 359.957031 486.519531 384.0625 C 503.59375 402.5 508.539062 408.050781 522.519531 424.390625 C 526.546875 429.125 530.851562 434.085938 532.0625 435.429688 C 533.273438 436.753906 534.207031 437.902344 534.160156 437.964844 C 533.816406 438.292969 527.90625 435.347656 524.8125 433.300781 C 520.046875 430.140625 516.542969 427.339844 504.183594 416.792969 C 490.824219 405.398438 488.84375 403.777344 481.101562 397.929688 C 473.144531 391.9375 458 379.164062 447.539062 369.617188 C 436.785156 359.808594 427.191406 350.214844 418.515625 340.570312 C 388.574219 307.328125 366.160156 270.109375 355.046875 235.214844 C 350.332031 220.363281 347.613281 206.460938 346.453125 191.152344 C 346.15625 187.484375 346.058594 175.726562 346.273438 171.582031 C 348.1875 134.148438 362.136719 98.929688 385.183594 73.335938 C 390.359375 67.585938 400.113281 58.726562 402.816406 57.351562 C 405.253906 56.09375 418.007812 55.484375 426.421875 56.222656 Z M 693.675781 67.113281 C 704.578125 68.453125 710.898438 77.59375 712.191406 93.886719 C 712.4375 96.964844 712.289062 104.757812 711.945312 108.050781 C 709.949219 126.488281 704.121094 144.890625 689.042969 180.34375 C 686.667969 185.925781 686.800781 185.664062 686.457031 185.664062 C 686.308594 185.664062 685.308594 185.371094 684.246094 185.011719 C 679.644531 183.488281 674.503906 182.929688 669.199219 183.371094 C 652.960938 184.765625 633.953125 194.179688 614.246094 210.585938 C 604.816406 218.429688 597.003906 226.207031 584.089844 240.601562 C 572.171875 253.867188 568.011719 257.699219 562.789062 260.1875 C 560.433594 261.316406 558.683594 261.710938 556.40625 261.59375 C 553.804688 261.464844 551.660156 260.660156 549.171875 258.84375 C 547.925781 257.925781 544.816406 254.816406 544.898438 254.554688 C 544.945312 254.457031 545.371094 254.308594 545.863281 254.257812 C 552.003906 253.554688 556.457031 247.414062 559.417969 235.527344 C 561.171875 228.46875 561.957031 221.199219 561.941406 211.863281 C 561.941406 204.316406 561.496094 197.652344 560.320312 187.058594 C 559.992188 184.175781 559.777344 181.570312 559.828125 181.277344 C 559.878906 180.933594 561.007812 179.082031 562.757812 176.445312 C 588.886719 137.195312 622.429688 101.972656 652.421875 82.308594 C 666.203125 73.269531 678.402344 68.0625 688.109375 67.0625 C 689.402344 66.933594 692.382812 66.964844 693.675781 67.113281 Z M 549.679688 144.105469 C 550.003906 145.90625 554.394531 179.394531 554.410156 180.261719 L 554.441406 181.324219 L 551.96875 185.335938 C 549.269531 189.742188 547.761719 192.246094 543.636719 199.257812 C 542.113281 201.828125 540.265625 204.921875 539.496094 206.132812 C 536.941406 210.195312 535.058594 212.46875 534.46875 212.257812 C 533.914062 212.042969 532.800781 209 531.816406 205.070312 C 531.113281 202.234375 531.179688 200.992188 532.421875 193.507812 C 534.976562 178.164062 540.050781 162.476562 547.351562 147.347656 C 549.300781 143.289062 549.480469 143.042969 549.679688 144.105469 Z M 450.324219 152.277344 C 466.859375 153.683594 484.800781 166.492188 500.597656 188.136719 C 508.097656 198.421875 514.414062 209.425781 523.46875 227.992188 C 530.933594 243.304688 533.175781 247.546875 536.613281 252.734375 C 541.738281 260.53125 546.960938 265 552.707031 266.574219 C 554.476562 267.0625 558.027344 267.179688 559.976562 266.816406 C 562.921875 266.261719 565.804688 264.984375 569.027344 262.804688 C 573.808594 259.582031 577.640625 255.832031 588.050781 244.15625 C 596.023438 235.214844 598.511719 232.53125 603.71875 227.324219 C 610.21875 220.820312 614.785156 216.695312 621.152344 211.617188 C 634.9375 200.613281 648.917969 193 661.015625 189.921875 C 668.613281 187.992188 675.226562 187.808594 681.070312 189.367188 C 683.148438 189.921875 684.441406 190.542969 684.394531 190.988281 C 684.375 191.167969 682.707031 195.0625 680.691406 199.664062 C 661.066406 244.351562 645.726562 274.644531 628.027344 303.644531 C 619.695312 317.300781 613.113281 327.40625 595.695312 353.34375 C 568.113281 394.410156 559.941406 407.691406 547.648438 431.480469 C 545.519531 435.625 545.273438 435.9375 543.996094 436.148438 C 543.292969 436.261719 542.097656 435.65625 539.378906 433.824219 C 534.140625 430.304688 530.933594 427.144531 523.074219 417.777344 C 514.449219 407.492188 508.652344 400.863281 493.460938 383.960938 C 478.546875 367.359375 474.601562 362.886719 468.644531 355.878906 C 441.484375 323.898438 424.949219 298.0625 414.765625 271.632812 C 402.441406 239.621094 400.882812 206.59375 410.574219 182.0625 C 418.597656 161.757812 433.214844 150.804688 450.324219 152.277344 Z M 555.570312 189.054688 C 555.785156 190.742188 556.503906 198.207031 556.75 201.304688 C 557.09375 205.742188 557.242188 217.039062 556.996094 220.804688 C 556.601562 226.75 555.929688 231.449219 554.753906 236.230469 C 552.214844 246.59375 548.628906 251.34375 543.980469 250.492188 C 542.621094 250.246094 541.378906 249.625 540.738281 248.886719 C 539.625 247.578125 534.320312 237.949219 532.882812 234.578125 C 531.769531 232.023438 531.015625 227.632812 530.621094 221.609375 C 530.425781 218.445312 530.410156 214.484375 530.589844 214.484375 C 530.671875 214.484375 530.949219 214.761719 531.226562 215.105469 C 531.507812 215.433594 532.113281 215.925781 532.570312 216.1875 C 534.289062 217.121094 536.253906 216.679688 538.085938 214.941406 C 540.199219 212.960938 541.589844 210.832031 548.875 198.683594 C 554.753906 188.859375 555.113281 188.285156 555.324219 188.285156 C 555.40625 188.285156 555.507812 188.628906 555.570312 189.054688 Z M 691.695312 195.605469 C 693.886719 197.914062 695.902344 201.007812 697.425781 204.496094 C 698.011719 205.824219 698.324219 206.773438 698.339844 207.199219 C 698.339844 208.246094 689.46875 225.964844 683.066406 237.65625 C 669.300781 262.855469 654.367188 286.269531 635.589844 312.160156 C 627.882812 322.769531 621.070312 331.792969 605.191406 352.441406 C 599.511719 359.828125 592.472656 368.996094 589.574219 372.828125 C 586.660156 376.660156 584.054688 380 583.792969 380.277344 C 582.582031 381.488281 586.660156 375.382812 601.179688 354.242188 C 619.433594 327.648438 626.75 316.5 636.082031 301.023438 C 653.207031 272.613281 670.347656 239.09375 686.75 201.957031 C 688.140625 198.796875 689.453125 195.832031 689.664062 195.359375 C 689.925781 194.800781 690.15625 194.507812 690.351562 194.507812 C 690.515625 194.507812 691.121094 195 691.695312 195.605469 Z M 701.027344 217.136719 C 701.714844 220.492188 702.039062 227.796875 701.714844 232.332031 C 700.402344 250.476562 692.59375 269.078125 678.320312 288.089844 C 673.308594 294.753906 667.972656 300.910156 660.328125 308.882812 C 654.777344 314.664062 650.078125 319.199219 632.039062 336.132812 C 623.265625 344.386719 617.4375 350.050781 609.839844 357.746094 C 605.519531 362.101562 602 365.605469 602 365.542969 C 602 365.328125 602.851562 364.183594 612.867188 351.050781 C 624 336.441406 631.746094 326.144531 637.128906 318.792969 C 662.785156 283.796875 681.035156 254.585938 697.785156 221.769531 C 699.324219 218.757812 700.632812 216.285156 700.714844 216.285156 C 700.796875 216.285156 700.925781 216.679688 701.027344 217.136719 Z M 701.027344 217.136719 " fill-opacity="1" fill-rule="nonzero"/></g></svg>