<svg xmlns="http://www.w3.org/2000/svg" xmlns:xlink="http://www.w3.org/1999/xlink" width="1366" zoomAndPan="magnify" viewBox="0 0 1024.5 576" height="768" preserveAspectRatio="xMidYMid meet" version="1.0"><metadata><ContainsAiGeneratedContent>Yes</ContainsAiGeneratedContent></metadata><defs><clipPath id="17e3ef731b"><path d="M 37 243 L 987 243 L 987 333.382812 L 37 333.382812 Z M 37 243 " clip-rule="nonzero"/></clipPath></defs><g clip-path="url(#17e3ef731b)"><path fill="#000000" d="M 505.136719 317.089844 L 508.410156 320.363281 L 498.238281 330.539062 C 496.386719 332.390625 493.949219 333.316406 491.511719 333.316406 C 489.070312 333.316406 486.632812 332.394531 484.773438 330.542969 L 445.027344 290.773438 L 44.898438 290.773438 C 44.167969 291.800781 42.976562 292.480469 41.621094 292.480469 C 39.398438 292.480469 37.601562 290.679688 37.601562 288.457031 C 37.601562 286.238281 39.398438 284.4375 41.621094 284.4375 C 42.976562 284.4375 44.167969 285.113281 44.898438 286.140625 L 445.011719 286.140625 L 484.765625 246.382812 C 488.496094 242.671875 494.535156 242.683594 498.238281 246.382812 L 533.554688 281.722656 C 535.359375 283.519531 536.355469 285.914062 536.355469 288.464844 C 536.355469 291.011719 535.359375 293.40625 533.550781 295.207031 L 518.933594 309.832031 L 515.664062 306.5625 L 530.285156 291.929688 C 531.21875 291 531.730469 289.769531 531.730469 288.464844 C 531.730469 287.15625 531.21875 285.925781 530.289062 285 L 494.96875 249.65625 C 493.058594 247.753906 489.949219 247.757812 488.03125 249.660156 L 449.246094 288.457031 L 488.035156 327.269531 C 489.949219 329.167969 493.0625 329.175781 494.96875 327.269531 L 505.136719 317.09375 Z M 982.4375 284.441406 C 981.082031 284.441406 979.890625 285.113281 979.160156 286.144531 L 579.046875 286.144531 L 539.285156 246.378906 C 535.5625 242.675781 529.523438 242.671875 525.820312 246.382812 L 515.664062 256.542969 L 518.933594 259.816406 L 529.089844 249.652344 C 531 247.746094 534.105469 247.75 536.019531 249.652344 L 574.808594 288.453125 L 536.023438 327.261719 C 534.109375 329.167969 530.996094 329.171875 529.089844 327.265625 L 493.765625 291.921875 C 492.839844 291 492.324219 289.769531 492.324219 288.460938 C 492.324219 287.152344 492.839844 285.921875 493.773438 284.992188 L 508.410156 270.347656 L 505.136719 267.074219 L 490.507812 281.714844 C 488.699219 283.515625 487.699219 285.910156 487.699219 288.460938 C 487.699219 291.011719 488.699219 293.40625 490.5 295.199219 L 525.820312 330.539062 C 527.671875 332.390625 530.109375 333.320312 532.546875 333.316406 C 534.984375 333.316406 537.425781 332.390625 539.289062 330.539062 L 579.035156 290.773438 L 979.160156 290.773438 C 979.886719 291.800781 981.082031 292.480469 982.433594 292.480469 C 984.65625 292.480469 986.453125 290.679688 986.453125 288.457031 C 986.453125 286.238281 984.65625 284.4375 982.433594 284.4375 Z M 982.4375 284.441406 " fill-opacity="1" fill-rule="nonzero"/></g></svg>