<svg xmlns="http://www.w3.org/2000/svg" xmlns:xlink="http://www.w3.org/1999/xlink" width="1366" zoomAndPan="magnify" viewBox="0 0 1024.5 576" height="768" preserveAspectRatio="xMidYMid meet" version="1.0"><metadata><ContainsAiGeneratedContent>Yes</ContainsAiGeneratedContent></metadata><defs><clipPath id="cad5a04351"><path d="M 72 48.582031 L 984 48.582031 L 984 527.597656 L 72 527.597656 Z M 72 48.582031 " clip-rule="nonzero"/></clipPath></defs><g clip-path="url(#cad5a04351)"><path fill="#231f20" d="M 983.316406 133.050781 C 982.445312 132.097656 981.054688 132.097656 980.101562 132.878906 C 957.429688 153.644531 930.5 170.757812 902.003906 185.09375 C 873.511719 199.429688 843.367188 210.984375 814.265625 220.628906 C 773.351562 234.179688 729.742188 243.738281 686.480469 243.652344 C 666.589844 243.652344 646.695312 241.652344 627.238281 237.136719 C 620.375 235.570312 613.25 233.484375 605.867188 231.835938 C 603.085938 231.226562 600.21875 230.621094 597.441406 230.183594 C 597.441406 223.40625 597.265625 216.632812 597.09375 209.855469 C 597.003906 206.292969 597.003906 202.730469 597.003906 199.082031 C 597.003906 192.304688 597.09375 185.441406 597.09375 178.492188 C 597.09375 162.246094 596.746094 145.738281 594.3125 129.664062 C 591.96875 114.199219 587.625 99.167969 579.804688 85.441406 C 579.457031 82.140625 578.589844 78.925781 577.460938 75.796875 C 576.070312 72.0625 573.550781 66.066406 570.25 60.59375 C 568.597656 57.902344 566.6875 55.292969 564.601562 53.210938 C 563.5625 52.167969 562.433594 51.210938 561.214844 50.515625 C 560 49.734375 558.695312 49.214844 557.304688 48.953125 C 556.613281 48.777344 555.828125 48.691406 555.132812 48.691406 C 554.09375 48.691406 553.136719 48.867188 552.179688 49.039062 C 550.792969 49.386719 549.488281 49.910156 548.273438 50.515625 C 547.054688 51.125 545.925781 51.820312 544.796875 52.515625 C 502.492188 78.578125 461.226562 106.46875 421.355469 136.179688 C 420.398438 136.875 419.355469 137.65625 418.402344 138.613281 C 417.445312 139.570312 416.492188 140.699219 415.796875 142.089844 C 415.363281 143.042969 415.101562 144 414.925781 144.957031 C 414.753906 145.910156 414.753906 146.78125 414.753906 147.734375 C 414.753906 148.777344 414.839844 149.734375 414.925781 150.6875 C 415.621094 160.332031 416.316406 169.890625 416.925781 179.535156 C 415.449219 182.054688 414.058594 184.746094 412.929688 187.441406 C 412.582031 188.222656 412.753906 189.175781 413.363281 189.785156 C 413.972656 190.394531 414.839844 190.652344 415.707031 190.480469 C 416.402344 190.304688 417.011719 190.132812 417.707031 189.871094 C 420.050781 225.40625 421.964844 260.941406 422.136719 296.472656 C 414.144531 296.820312 406.238281 299.339844 399.464844 303.597656 C 392.167969 308.117188 386 314.632812 382.265625 322.539062 C 380.179688 326.96875 379.050781 332.007812 379.050781 336.960938 C 379.050781 340.871094 379.746094 344.691406 381.308594 348.167969 C 382.089844 349.90625 383.132812 351.46875 384.347656 352.945312 C 385.652344 354.421875 387.128906 355.640625 388.867188 356.683594 C 391.820312 358.417969 395.035156 359.203125 398.246094 359.203125 C 400.855469 359.203125 403.460938 358.679688 405.980469 357.8125 C 403.632812 359.722656 401.203125 361.460938 398.683594 363.023438 C 390.515625 368.238281 381.308594 372.148438 371.492188 375.101562 C 356.722656 379.617188 340.480469 381.964844 324.0625 383.703125 C 307.644531 385.441406 291.050781 386.394531 275.5 388.046875 C 234.238281 392.476562 190.628906 405.25 153.625 427.488281 C 135.121094 438.609375 118.355469 452.164062 104.367188 468.238281 C 90.382812 484.308594 79.351562 502.902344 72.226562 524.1875 C 71.792969 525.402344 72.488281 526.621094 73.703125 527.054688 C 74.917969 527.488281 76.136719 526.792969 76.570312 525.578125 C 83.433594 504.898438 94.203125 486.828125 107.84375 471.191406 C 128.257812 447.734375 155.011719 429.660156 184.289062 416.714844 C 213.5625 403.769531 245.445312 395.867188 275.9375 392.5625 C 291.570312 390.914062 308.511719 389.871094 325.277344 388.132812 C 337.875 386.828125 350.46875 385.09375 362.457031 382.226562 C 371.40625 380.140625 380.09375 377.359375 388.171875 373.710938 C 400.332031 368.238281 411.191406 360.851562 419.792969 350.425781 C 428.480469 340.089844 434.820312 326.796875 438.207031 309.855469 C 438.46875 308.636719 438.640625 307.246094 438.640625 305.859375 C 438.640625 304.988281 438.554688 304.121094 438.382812 303.25 C 438.121094 302.382812 437.773438 301.511719 437.253906 300.730469 C 436.730469 300.035156 436.125 299.429688 435.429688 298.90625 C 434.386719 298.210938 433.34375 297.691406 432.214844 297.429688 C 431.171875 297.082031 430.042969 296.910156 429.085938 296.820312 C 428.21875 296.734375 427.347656 296.648438 426.480469 296.5625 C 426.394531 260.417969 424.394531 224.449219 421.964844 188.480469 C 441.25 182.054688 459.230469 172.496094 476.953125 163.027344 C 502.40625 149.472656 527.859375 135.832031 553.308594 122.28125 C 557.914062 119.847656 562.691406 117.152344 567.035156 113.851562 C 569.207031 112.203125 571.207031 110.378906 572.941406 108.292969 C 574.679688 106.207031 576.242188 103.949219 577.375 101.339844 C 578.328125 99.257812 578.9375 97.085938 579.285156 94.914062 C 584.496094 106.03125 587.625 118.023438 589.535156 130.359375 C 591.96875 145.996094 592.316406 162.417969 592.316406 178.578125 C 592.316406 185.527344 592.226562 192.390625 592.226562 199.167969 C 592.226562 202.816406 592.226562 206.464844 592.316406 210.027344 C 592.402344 216.542969 592.574219 223.0625 592.664062 229.578125 C 589.535156 229.230469 586.40625 228.96875 583.28125 228.96875 C 576.070312 228.96875 568.859375 230.183594 561.824219 233.3125 C 556.4375 235.746094 551.660156 239.308594 547.664062 243.5625 C 543.667969 247.910156 540.539062 252.949219 538.457031 258.421875 C 536.457031 263.71875 535.503906 269.367188 535.503906 275.015625 C 535.503906 281.097656 536.632812 287.089844 538.804688 292.738281 C 540.800781 297.953125 543.839844 302.121094 547.488281 304.988281 C 549.3125 306.464844 551.3125 307.59375 553.398438 308.289062 C 555.480469 309.070312 557.742188 309.417969 560 309.417969 C 562.777344 309.417969 565.558594 308.8125 568.339844 307.683594 C 571.117188 306.464844 573.8125 304.726562 576.332031 302.382812 C 581.28125 297.777344 585.019531 291.957031 587.796875 285.875 C 590.578125 279.707031 592.574219 273.191406 593.964844 266.933594 C 596.3125 256.25 597.003906 245.476562 597.179688 234.703125 C 599.699219 235.136719 602.132812 235.65625 604.648438 236.179688 C 611.859375 237.832031 618.984375 239.828125 625.933594 241.480469 C 645.828125 246.082031 665.980469 248.167969 686.222656 248.167969 C 730.175781 248.167969 774.21875 238.523438 815.394531 224.886719 C 844.671875 215.15625 874.988281 203.597656 903.742188 189.089844 C 932.496094 174.582031 959.773438 157.292969 982.878906 136.09375 C 984.097656 135.398438 984.097656 134.007812 983.316406 133.050781 Z M 391.125 352.859375 C 389.820312 352.078125 388.691406 351.121094 387.738281 350.078125 C 386.347656 348.429688 385.21875 346.429688 384.523438 344.257812 C 383.828125 342.085938 383.480469 339.566406 383.480469 337.132812 C 383.480469 332.878906 384.523438 328.445312 386.261719 324.625 C 389.5625 317.585938 395.121094 311.765625 401.722656 307.59375 C 407.804688 303.773438 414.925781 301.511719 422.050781 301.164062 C 422.050781 307.335938 421.964844 313.503906 421.875 319.671875 C 421.789062 324.535156 421.355469 329.402344 420.226562 334.007812 C 419.097656 338.609375 417.273438 342.867188 414.492188 346.429688 C 412.582031 348.863281 410.0625 350.949219 407.195312 352.425781 C 404.328125 353.902344 401.289062 354.683594 398.335938 354.683594 C 395.730469 354.769531 393.296875 354.164062 391.125 352.859375 Z M 431.691406 302.121094 C 432.128906 302.296875 432.476562 302.46875 432.820312 302.730469 C 433.167969 302.992188 433.34375 303.164062 433.605469 303.511719 C 433.863281 303.859375 433.953125 304.207031 434.125 304.554688 C 434.210938 304.988281 434.300781 305.421875 434.300781 306.03125 C 434.300781 306.988281 434.125 308.117188 433.953125 309.160156 C 432.039062 318.800781 429.085938 327.144531 425.351562 334.355469 C 425.089844 334.875 424.742188 335.398438 424.484375 335.917969 C 424.570312 335.65625 424.65625 335.398438 424.65625 335.136719 C 425.871094 330.097656 426.308594 324.882812 426.480469 319.84375 C 426.566406 313.675781 426.65625 307.507812 426.65625 301.253906 C 427.347656 301.339844 427.957031 301.339844 428.652344 301.425781 C 429.695312 301.511719 430.824219 301.773438 431.691406 302.121094 Z M 419.445312 145.824219 C 419.53125 145.214844 419.703125 144.695312 419.964844 144.171875 C 420.3125 143.476562 420.835938 142.785156 421.617188 142.089844 C 422.3125 141.394531 423.179688 140.699219 424.136719 140.003906 C 463.921875 110.378906 505.011719 82.574219 547.230469 56.597656 C 548.621094 55.730469 550.007812 54.949219 551.3125 54.339844 C 552.007812 54.078125 552.617188 53.816406 553.308594 53.644531 C 553.917969 53.46875 554.527344 53.382812 555.132812 53.382812 C 555.570312 53.382812 555.917969 53.382812 556.351562 53.46875 C 557.132812 53.644531 558 53.992188 558.871094 54.511719 C 560.347656 55.382812 561.910156 56.859375 563.386719 58.683594 C 565.644531 61.464844 567.644531 64.9375 569.292969 68.328125 C 570.859375 71.542969 572.160156 74.667969 573.03125 77.015625 C 572.59375 76.753906 572.074219 76.40625 571.640625 76.144531 C 569.816406 75.277344 567.90625 74.929688 566.082031 74.929688 C 564.34375 74.929688 562.605469 75.191406 561.042969 75.625 C 559.390625 76.058594 557.828125 76.582031 556.4375 77.101562 C 508.832031 94.652344 465.570312 123.667969 431.34375 161.027344 C 427.785156 164.9375 424.308594 168.933594 421.183594 173.277344 C 420.660156 165.632812 420.140625 157.988281 419.53125 150.34375 C 419.445312 149.472656 419.445312 148.605469 419.445312 147.734375 C 419.269531 147.128906 419.359375 146.433594 419.445312 145.824219 Z M 575.460938 89.613281 C 575.460938 93.085938 574.855469 96.476562 573.464844 99.515625 C 572.507812 101.6875 571.207031 103.601562 569.730469 105.339844 C 567.46875 108.03125 564.601562 110.289062 561.390625 112.460938 C 558.261719 114.546875 554.789062 116.457031 551.398438 118.28125 C 525.945312 131.835938 500.492188 145.476562 475.039062 159.03125 C 457.667969 168.324219 440.207031 177.535156 421.875 183.789062 C 421.789062 182.75 421.703125 181.707031 421.703125 180.578125 C 422.660156 179.011719 423.699219 177.535156 424.832031 175.972656 C 427.871094 171.800781 431.257812 167.890625 434.734375 164.070312 C 468.527344 127.230469 511.179688 98.5625 558.089844 81.273438 C 559.476562 80.75 560.867188 80.316406 562.257812 79.96875 C 563.648438 79.621094 564.949219 79.449219 566.167969 79.449219 C 567.46875 79.449219 568.6875 79.707031 569.730469 80.230469 C 570.769531 80.75 571.726562 81.53125 572.59375 82.574219 C 573.464844 83.617188 574.246094 84.835938 575.027344 86.136719 C 575.203125 86.398438 575.289062 86.660156 575.460938 86.832031 C 575.375 87.875 575.460938 88.742188 575.460938 89.613281 Z M 589.796875 266.066406 C 588.492188 272.0625 586.582031 278.316406 583.976562 284.050781 C 581.371094 289.785156 577.894531 295.085938 573.550781 299.167969 C 571.378906 301.253906 569.121094 302.644531 566.863281 303.597656 C 564.601562 304.554688 562.433594 304.988281 560.347656 304.988281 C 558.609375 304.988281 556.957031 304.726562 555.308594 304.121094 C 552.875 303.25 550.53125 301.6875 548.53125 299.515625 C 546.449219 297.34375 544.710938 294.5625 543.40625 291.085938 C 541.410156 285.960938 540.367188 280.488281 540.367188 275.015625 C 540.367188 269.890625 541.234375 264.851562 543.058594 260.070312 C 544.882812 255.121094 547.75 250.601562 551.3125 246.691406 C 554.875 242.78125 559.21875 239.65625 563.996094 237.484375 C 570.335938 234.617188 576.851562 233.574219 583.628906 233.574219 C 586.667969 233.574219 589.796875 233.832031 592.921875 234.179688 C 592.75 244.953125 592.054688 255.640625 589.796875 266.066406 Z M 589.796875 266.066406 " fill-opacity="1" fill-rule="nonzero"/></g></svg>