<svg xmlns="http://www.w3.org/2000/svg" xmlns:xlink="http://www.w3.org/1999/xlink" width="1366" zoomAndPan="magnify" viewBox="0 0 1024.5 576" height="768" preserveAspectRatio="xMidYMid meet" version="1.0"><metadata><ContainsAiGeneratedContent>Yes</ContainsAiGeneratedContent></metadata><defs><clipPath id="2de99c2dfc"><path d="M 264.460938 117 L 708 117 L 708 554.851562 L 264.460938 554.851562 Z M 264.460938 117 " clip-rule="nonzero"/></clipPath><clipPath id="4cc05b7f3f"><path d="M 755 21.113281 L 756 21.113281 L 756 22 L 755 22 Z M 755 21.113281 " clip-rule="nonzero"/></clipPath><clipPath id="076b57aadb"><path d="M 393 21.113281 L 759 21.113281 L 759 439 L 393 439 Z M 393 21.113281 " clip-rule="nonzero"/></clipPath><clipPath id="2e7cf418d7"><path d="M 756 21.113281 L 758 21.113281 L 758 22 L 756 22 Z M 756 21.113281 " clip-rule="nonzero"/></clipPath><clipPath id="8f83685dfd"><path d="M 756 21.113281 L 757 21.113281 L 757 22 L 756 22 Z M 756 21.113281 " clip-rule="nonzero"/></clipPath></defs><g clip-path="url(#2de99c2dfc)"><path fill="#000000" d="M 680.113281 172.8125 C 679.496094 171.9375 679.023438 170.988281 678.378906 170.132812 C 678.167969 169.71875 677.722656 169.257812 677.191406 168.839844 C 673.679688 164.082031 669.992188 159.125 664.019531 157.917969 C 664.390625 161.480469 666.78125 164.234375 669.035156 166.910156 C 671.804688 170.40625 674.679688 174.03125 677.421875 177.761719 C 677.445312 177.808594 677.488281 177.851562 677.515625 177.898438 C 700.5625 211.691406 704.371094 255.257812 694.199219 294.3125 C 691.386719 305.925781 687.351562 317.203125 682.800781 328.273438 C 681.101562 332.664062 679.015625 337 677.316406 341.445312 C 662.378906 372.882812 644.828125 403.238281 621.972656 429.671875 C 581.515625 476.867188 531.175781 514.003906 479.179688 547.46875 C 478.777344 547.28125 478.328125 547.140625 477.898438 546.964844 C 475.128906 542.632812 470.574219 539.46875 466.769531 535.960938 C 453.507812 524.308594 440.3125 512.511719 426.34375 501.699219 C 403.308594 483.367188 382.226562 462.371094 362.082031 440.773438 C 347.085938 423.710938 331.40625 406.984375 319.761719 387.320312 C 287.84375 338.292969 272.390625 295.796875 270.171875 238.96875 C 270.359375 237.726562 270.546875 236.480469 270.738281 235.234375 C 274.539062 211.59375 285.015625 189.242188 298.089844 169.347656 C 307.53125 156.621094 319.363281 145.945312 332.453125 136.992188 C 351.441406 125.570312 369.675781 119.222656 392.773438 124.96875 C 422.347656 131.527344 447.933594 149.199219 467.324219 172.210938 C 472.464844 178.257812 477.421875 185.183594 480.699219 192.582031 C 481.535156 194.144531 482.164062 195.902344 483.625 197.105469 C 486.832031 198.175781 487.820312 196.003906 488.179688 193.148438 C 488.734375 191.800781 488.972656 190.132812 489.269531 188.964844 C 500.582031 155.371094 543.621094 131.257812 576.5 123.308594 C 583.066406 121.890625 589.558594 120.5 596.269531 119.8125 C 594.34375 118.855469 591.5 118.644531 589.230469 118.421875 C 557.898438 113.84375 491.535156 153.769531 484.902344 185.355469 C 484.75 186.191406 484.464844 187.125 484.179688 188.089844 C 477.769531 175.167969 467.828125 164.234375 457.292969 154.472656 C 436.625 133.984375 408.425781 120.355469 379.3125 117.878906 C 362.070312 115.984375 346.117188 123.105469 331.472656 131.652344 C 330.871094 132.011719 330.25 132.328125 329.65625 132.699219 C 327.386719 134.050781 325.148438 135.425781 322.945312 136.804688 C 321.855469 137.425781 320.726562 138.355469 320.003906 139.464844 C 305.570312 150.675781 293.546875 165.289062 284.609375 180.988281 C 274.683594 198.410156 265.824219 217.1875 264.65625 237.574219 C 264.585938 238.175781 264.523438 238.777344 264.460938 239.378906 C 264.484375 239.871094 264.503906 240.363281 264.523438 240.859375 C 264.574219 241.898438 264.597656 242.949219 264.632812 244 C 264.628906 244.003906 264.628906 244.007812 264.628906 244.011719 C 264.644531 244.53125 264.660156 245.054688 264.679688 245.574219 C 264.722656 247.050781 264.867188 248.523438 264.953125 250.011719 C 265.039062 251.488281 265.070312 252.960938 265.054688 254.4375 C 265.070312 257.125 265.429688 259.816406 265.617188 262.503906 C 265.636719 262.796875 265.675781 263.085938 265.699219 263.375 C 265.867188 265.726562 266.050781 268.070312 266.304688 270.40625 C 266.3125 270.425781 266.335938 270.4375 266.347656 270.457031 C 266.414062 271.089844 266.441406 271.726562 266.523438 272.355469 C 266.804688 274.457031 267.121094 276.554688 267.453125 278.65625 C 267.769531 280.707031 268.132812 282.730469 268.390625 284.785156 C 268.421875 285.058594 268.464844 285.332031 268.492188 285.609375 C 268.667969 286.910156 268.824219 288.195312 269.054688 289.484375 C 269.300781 290.929688 269.648438 292.34375 269.921875 293.777344 C 270.097656 294.683594 270.273438 295.589844 270.457031 296.496094 C 270.714844 297.414062 270.976562 298.332031 271.238281 299.25 C 271.242188 299.257812 271.246094 299.265625 271.246094 299.269531 C 271.25 299.28125 271.25 299.289062 271.25 299.300781 L 271.25 299.269531 C 271.273438 299.371094 271.300781 299.476562 271.328125 299.578125 C 271.300781 299.5 271.273438 299.417969 271.25 299.34375 C 271.3125 299.546875 271.382812 299.75 271.441406 299.949219 C 271.585938 300.339844 271.671875 300.761719 271.773438 301.164062 C 271.917969 301.671875 272.046875 302.164062 272.164062 302.667969 C 272.542969 304.125 272.8125 305.621094 273.113281 307.109375 C 273.253906 307.589844 273.394531 308.070312 273.535156 308.554688 C 273.601562 308.769531 273.660156 308.988281 273.722656 309.207031 C 298.816406 378.351562 345.089844 438.367188 398.496094 488.28125 C 410.765625 501.121094 424.707031 511.933594 438.03125 523.6875 C 448.363281 532.492188 459.042969 540.675781 470.023438 548.644531 C 471.308594 549.855469 473.695312 551.695312 475.746094 551.679688 C 475.828125 551.703125 475.921875 551.695312 476.007812 551.71875 C 476.699219 553.105469 477.640625 554.25 479.441406 554.484375 C 483.292969 554.929688 486.726562 552.84375 489.859375 550.855469 C 496 546.945312 501.953125 542.753906 507.964844 538.652344 C 519.875 530.472656 531.707031 522.84375 543.207031 513.613281 C 581.390625 483.484375 617.382812 449.25 646.464844 409.964844 C 680.816406 358.390625 722.882812 278.375 701.359375 215.835938 C 697.550781 200.101562 689.984375 185.621094 680.113281 172.8125 Z M 680.113281 172.8125 " fill-opacity="1" fill-rule="nonzero"/></g><path fill="#000000" d="M 266.527344 272.421875 C 266.527344 272.398438 266.523438 272.378906 266.523438 272.355469 C 266.511719 272.273438 266.496094 272.1875 266.484375 272.105469 C 266.5 272.207031 266.515625 272.320312 266.527344 272.421875 Z M 266.527344 272.421875 " fill-opacity="1" fill-rule="nonzero"/><path fill="#000000" d="M 716.1875 44.679688 L 716.203125 44.675781 L 716.207031 44.667969 Z M 716.1875 44.679688 " fill-opacity="1" fill-rule="nonzero"/><g clip-path="url(#4cc05b7f3f)"><path fill="#000000" d="M 755.519531 21.601562 C 755.613281 21.570312 755.714844 21.542969 755.8125 21.511719 C 755.820312 21.507812 755.828125 21.503906 755.835938 21.5 C 755.734375 21.53125 755.632812 21.574219 755.519531 21.601562 Z M 755.519531 21.601562 " fill-opacity="1" fill-rule="nonzero"/></g><g clip-path="url(#076b57aadb)"><path fill="#000000" d="M 757.773438 21.242188 C 757.742188 21.234375 757.710938 21.226562 757.675781 21.222656 C 757.605469 21.207031 757.542969 21.195312 757.46875 21.183594 C 757.3125 21.183594 757.164062 21.183594 757.023438 21.199219 L 757.109375 21.199219 C 756.964844 21.210938 756.820312 21.210938 756.675781 21.242188 C 756.382812 21.316406 756.101562 21.414062 755.8125 21.511719 C 754.636719 21.929688 753.472656 22.386719 752.355469 22.933594 C 750.722656 23.773438 749.144531 24.710938 747.558594 25.636719 C 744.726562 27.300781 741.953125 29.046875 739.164062 30.769531 C 736.429688 32.445312 733.628906 34.007812 730.882812 35.6875 C 727.964844 37.464844 724.902344 38.996094 722.023438 40.875 C 720.160156 42.121094 718.269531 43.332031 716.375 44.546875 C 716.382812 44.542969 716.390625 44.542969 716.398438 44.539062 C 716.382812 44.546875 716.367188 44.558594 716.351562 44.566406 C 716.332031 44.585938 716.3125 44.597656 716.289062 44.613281 C 716.257812 44.632812 716.230469 44.65625 716.203125 44.675781 C 716.136719 44.722656 716.070312 44.769531 716.003906 44.8125 C 715.96875 44.835938 715.9375 44.859375 715.90625 44.882812 L 715.910156 44.882812 C 713.960938 46.210938 712.054688 47.585938 710.105469 48.898438 L 710.117188 48.898438 C 710.113281 48.898438 710.109375 48.902344 710.101562 48.90625 C 710.101562 48.902344 710.105469 48.902344 710.105469 48.898438 C 710.09375 48.910156 710.078125 48.921875 710.066406 48.933594 C 710.070312 48.929688 710.070312 48.929688 710.074219 48.929688 C 710.070312 48.929688 710.066406 48.933594 710.0625 48.9375 C 710.066406 48.933594 710.066406 48.933594 710.066406 48.933594 C 710.011719 48.96875 709.953125 49.011719 709.886719 49.058594 C 709.839844 49.09375 709.78125 49.132812 709.722656 49.175781 C 709.722656 49.175781 709.726562 49.175781 709.730469 49.175781 C 709.667969 49.21875 709.613281 49.246094 709.542969 49.289062 C 709.511719 49.320312 709.480469 49.332031 709.453125 49.363281 C 709.464844 49.351562 709.472656 49.34375 709.480469 49.332031 C 709.222656 49.523438 708.960938 49.695312 708.703125 49.867188 C 708.71875 49.867188 708.71875 49.855469 708.730469 49.855469 C 706.1875 51.589844 703.6875 53.351562 701.21875 55.1875 C 698.878906 56.921875 696.492188 58.617188 694.195312 60.421875 C 689.773438 63.921875 685.121094 67.160156 680.871094 70.875 C 679.742188 71.910156 678.59375 72.917969 677.449219 73.9375 C 677.398438 73.988281 677.335938 74.042969 677.273438 74.09375 C 676.976562 74.351562 676.675781 74.625 676.363281 74.882812 C 676.421875 74.832031 676.472656 74.785156 676.523438 74.738281 C 676.4375 74.8125 676.347656 74.890625 676.246094 74.96875 C 676.261719 74.953125 676.277344 74.953125 676.292969 74.9375 C 676.265625 74.960938 676.238281 74.984375 676.210938 75.011719 C 676.160156 75.0625 676.105469 75.109375 676.046875 75.15625 C 676.085938 75.125 676.121094 75.089844 676.15625 75.058594 C 674.640625 76.402344 673.082031 77.679688 671.507812 78.957031 C 670.050781 80.15625 668.546875 81.300781 667.117188 82.542969 C 664.789062 84.65625 662.519531 86.824219 660.09375 88.847656 C 657.609375 90.886719 655.050781 92.824219 652.621094 94.933594 C 652.535156 95.007812 652.464844 95.078125 652.378906 95.152344 C 650.773438 96.570312 649.183594 98 647.566406 99.402344 C 647.597656 99.371094 647.621094 99.34375 647.652344 99.316406 C 647.464844 99.488281 647.277344 99.648438 647.085938 99.820312 C 645.816406 100.949219 644.558594 102.089844 643.347656 103.289062 C 642.234375 104.390625 641.0625 105.417969 639.921875 106.5 C 637.449219 108.8125 635.066406 111.199219 632.652344 113.570312 C 631.394531 114.828125 630.125 116.070312 628.8125 117.285156 C 627.566406 118.429688 626.265625 119.542969 625.066406 120.742188 C 623.808594 122 622.597656 123.300781 621.367188 124.601562 C 620.125 125.890625 618.855469 127.148438 617.625 128.433594 C 616.488281 129.621094 615.332031 130.800781 614.183594 131.992188 C 612.6875 133.652344 611.191406 135.320312 609.707031 136.992188 C 609.40625 137.328125 609.101562 137.664062 608.804688 138 C 608.042969 138.90625 607.28125 139.8125 606.5 140.707031 C 606.570312 140.621094 606.644531 140.535156 606.714844 140.449219 C 606.457031 140.75 606.195312 141.054688 605.9375 141.34375 L 605.921875 141.359375 C 605.847656 141.429688 605.792969 141.519531 605.71875 141.589844 C 605.734375 141.574219 605.746094 141.5625 605.761719 141.546875 C 605.632812 141.691406 605.503906 141.835938 605.371094 141.996094 C 605.441406 141.90625 605.515625 141.820312 605.589844 141.734375 C 605.441406 141.894531 605.300781 142.054688 605.171875 142.210938 C 604.609375 142.863281 604.027344 143.511719 603.449219 144.148438 C 603.523438 144.078125 603.59375 143.988281 603.683594 143.902344 C 602.882812 144.816406 602.058594 145.703125 601.222656 146.582031 C 545.773438 210.320312 501.214844 283.835938 472.234375 363.21875 C 471.871094 364.632812 470.164062 366.007812 468.996094 366.945312 C 468.949219 366.976562 468.929688 367.027344 468.886719 367.058594 C 464.476562 365.871094 459.71875 354.878906 456.859375 352 C 447.714844 338.519531 435.492188 326.652344 419.285156 322.503906 C 412.160156 320.789062 387.269531 319.4375 394.707031 332.503906 C 395.050781 333.054688 395.535156 333.414062 395.960938 333.851562 C 396.34375 334.671875 396.828125 335.453125 397.457031 336.074219 C 400.511719 339.804688 404.617188 341.359375 408.339844 344.554688 C 425.09375 361.449219 437.015625 382.269531 446.6875 403.9375 C 449.667969 410.648438 452.921875 417.277344 455.210938 424.28125 C 457.558594 429.734375 460.566406 436.589844 466.84375 438.203125 C 468.457031 438.59375 472.671875 437.441406 475.46875 435.671875 C 482.417969 432.480469 486.328125 423.761719 489.757812 417.210938 C 493.742188 408.222656 498.605469 399.636719 502.648438 390.679688 C 507.730469 376.164062 516.019531 363.402344 522.8125 349.675781 C 544.03125 310.902344 566.464844 275.886719 587.28125 237.960938 C 608.628906 197.125 635.535156 160.070312 663.300781 123.410156 C 664.328125 121.886719 665.492188 120.46875 666.652344 119.046875 C 684.875 96.1875 703.207031 73.414062 724.699219 53.410156 C 731.5625 46.210938 738.832031 39.472656 746.804688 33.53125 C 750.851562 29.902344 755.910156 26.621094 758.625 21.964844 C 758.648438 21.78125 758.652344 21.601562 758.636719 21.425781 C 758.351562 21.359375 758.0625 21.300781 757.773438 21.242188 Z M 688.574219 83.308594 C 682.203125 91.324219 676.078125 99.550781 669.828125 107.675781 C 668.976562 107.980469 668.28125 108.625 667.734375 109.34375 C 661.988281 116.257812 656.507812 123.925781 651.234375 131.40625 C 627.28125 161.546875 605.949219 193.839844 586.429688 227.015625 C 586.488281 226.910156 586.558594 226.796875 586.617188 226.683594 C 562.742188 269.277344 535.898438 310.464844 512.761719 353.523438 C 501.664062 371.660156 494.351562 391.84375 484.941406 410.90625 C 481.734375 417.515625 479.136719 426.074219 472.621094 430.28125 C 471.265625 431.644531 469.519531 432.363281 467.683594 432.910156 C 462.871094 430.660156 460.839844 424.425781 459.0625 419.546875 C 455.117188 409.410156 450.492188 399.5625 445.628906 389.84375 C 440.789062 378.792969 434.210938 368.652344 427.152344 358.902344 C 421.332031 351.015625 415.472656 342.511719 407.246094 337.03125 C 406.527344 336.460938 405.800781 336.125 405.105469 335.742188 C 403.105469 333.226562 400.273438 331.519531 398.445312 328.863281 C 398.449219 328.769531 398.453125 328.675781 398.460938 328.582031 C 402.03125 326.203125 407.164062 327.367188 411.285156 327.59375 C 423.574219 328.746094 435.511719 334.253906 443.714844 343.664062 C 449.148438 349.679688 453.589844 356.40625 458.21875 363.050781 C 460.417969 366.355469 462.652344 370.253906 466.730469 371.375 C 467.585938 371.625 468.347656 371.703125 469.046875 371.660156 C 469.113281 371.6875 469.128906 371.738281 469.199219 371.761719 C 469.476562 371.84375 469.742188 371.878906 469.996094 371.878906 C 471.632812 371.878906 472.816406 370.359375 474.066406 369.417969 C 473.964844 369.492188 473.910156 369.535156 473.792969 369.605469 C 477.015625 367.351562 477.710938 363.1875 478.910156 359.632812 C 480.828125 353.949219 482.894531 348.644531 485.484375 343.191406 C 492.058594 328.777344 498.152344 313.957031 504.917969 299.527344 C 528.949219 251.746094 558.917969 207.085938 592.816406 165.75 C 592.742188 165.851562 592.65625 165.953125 592.585938 166.054688 C 631.988281 118.109375 679.355469 77.5 729.597656 41.195312 C 715.941406 55.21875 701.535156 68.636719 688.574219 83.308594 Z M 688.574219 83.308594 " fill-opacity="1" fill-rule="nonzero"/></g><path fill="#000000" d="M 676.246094 74.96875 L 676.15625 75.058594 L 676.210938 75.011719 Z M 676.246094 74.96875 " fill-opacity="1" fill-rule="nonzero"/><path fill="#000000" d="M 716.230469 44.648438 L 716.289062 44.613281 L 716.308594 44.597656 Z M 716.230469 44.648438 " fill-opacity="1" fill-rule="nonzero"/><path fill="#000000" d="M 716.375 44.546875 L 716.308594 44.597656 L 716.351562 44.566406 Z M 716.375 44.546875 " fill-opacity="1" fill-rule="nonzero"/><g clip-path="url(#2e7cf418d7)"><path fill="#000000" d="M 756.824219 21.210938 C 756.894531 21.199219 756.949219 21.199219 757.023438 21.199219 L 756.835938 21.199219 C 756.835938 21.207031 756.828125 21.210938 756.824219 21.210938 Z M 756.824219 21.210938 " fill-opacity="1" fill-rule="nonzero"/></g><g clip-path="url(#8f83685dfd)"><path fill="#000000" d="M 756.820312 21.199219 L 756.835938 21.199219 L 756.9375 21.183594 Z M 756.820312 21.199219 " fill-opacity="1" fill-rule="nonzero"/><path fill="#000000" d="M 756.789062 21.210938 L 756.820312 21.210938 L 756.820312 21.199219 L 756.746094 21.210938 Z M 756.789062 21.210938 " fill-opacity="1" fill-rule="nonzero"/></g></svg>