<svg xmlns="http://www.w3.org/2000/svg" xmlns:xlink="http://www.w3.org/1999/xlink" width="1366" zoomAndPan="magnify" viewBox="0 0 1024.5 576" height="768" preserveAspectRatio="xMidYMid meet" version="1.0"><metadata><ContainsAiGeneratedContent>Yes</ContainsAiGeneratedContent></metadata><defs><clipPath id="93e2e90efb"><path d="M 57.570312 15 L 905.40625 15 L 905.40625 518.332031 L 57.570312 518.332031 Z M 57.570312 15 " clip-rule="nonzero"/></clipPath></defs><g clip-path="url(#93e2e90efb)"><path fill="#000000" d="M 472.878906 107.847656 C 469.953125 114.792969 468.175781 120.832031 467.453125 126.285156 C 466.53125 133.28125 467.378906 139.433594 469.980469 144.578125 C 471.691406 147.960938 474.910156 151.039062 478.257812 150.296875 C 483.1875 149.195312 483.25 141.804688 482.5 137.609375 C 480.675781 127.292969 477.410156 117.265625 472.878906 107.847656 Z M 335.226562 129.550781 C 332.648438 129.550781 330.628906 129.933594 329.601562 130.839844 C 329.207031 131.1875 328.710938 131.816406 328.980469 133.199219 C 329.1875 134.261719 331.246094 135.378906 332.46875 136.039062 C 332.761719 136.199219 333.027344 136.347656 333.261719 136.480469 C 334.445312 137.175781 335.675781 137.851562 336.855469 138.503906 C 338.601562 139.46875 340.40625 140.457031 342.136719 141.539062 C 346.089844 144.003906 347.839844 146.046875 347.652344 147.980469 C 347.519531 149.363281 346.398438 150.457031 344.320312 151.246094 C 339.355469 153.125 334.230469 154.753906 329.265625 156.332031 L 327.953125 156.753906 C 326.273438 157.289062 325.097656 158.34375 325.023438 159.390625 C 324.953125 160.480469 326.1875 161.234375 326.929688 161.589844 C 329.949219 163.011719 333.710938 163.273438 337.617188 163.425781 C 367.351562 164.597656 397.683594 165.585938 428.328125 166.394531 C 419.644531 162.539062 411.183594 158.183594 402.855469 153.894531 L 400.828125 152.851562 C 388.367188 146.4375 374.238281 139.160156 359.578125 134.394531 C 352.625 132.128906 341.980469 129.550781 335.226562 129.550781 Z M 402.105469 52.746094 C 400 52.746094 397.921875 52.886719 395.867188 53.167969 C 385.578125 54.574219 375.394531 60.957031 369.292969 69.816406 C 364.296875 77.074219 362.511719 85.25 364.277344 92.835938 C 366.890625 104.066406 375.996094 112.453125 385.898438 120.765625 C 412.234375 142.875 438.464844 163.011719 469.804688 166.589844 C 473.386719 166.996094 477 167.183594 480.667969 167.148438 C 481.171875 166.808594 481.683594 166.46875 482.214844 166.132812 C 488.480469 162.132812 495.535156 159.050781 502.351562 156.070312 L 503.445312 155.589844 C 530.953125 143.554688 551.996094 131.222656 569.691406 116.777344 C 578.375 109.6875 585.238281 102.71875 590.675781 95.480469 C 597.070312 86.976562 601.332031 78.148438 603.34375 69.253906 C 605.480469 59.789062 604.585938 49.175781 600.890625 40.136719 C 596.960938 30.535156 590.179688 23.3125 581.78125 19.785156 C 572.941406 16.074219 562.902344 16.203125 551.929688 20.164062 C 542.9375 23.417969 533.398438 29.277344 524.34375 37.109375 C 502.789062 55.773438 485.386719 79.371094 473.910156 105.476562 C 478.898438 115.492188 482.480469 126.21875 484.4375 137.269531 C 485.59375 143.808594 484.269531 150.964844 478.683594 152.210938 C 478.199219 152.324219 477.722656 152.371094 477.25 152.371094 C 473.445312 152.371094 470.054688 149.074219 468.230469 145.46875 C 465.449219 139.960938 464.527344 133.421875 465.503906 126.03125 C 466.265625 120.277344 468.148438 113.9375 471.261719 106.640625 C 471.417969 106.273438 471.578125 105.90625 471.738281 105.53125 C 465.695312 93.652344 457.632812 82.804688 447.890625 73.652344 C 440.402344 66.609375 432.03125 61.011719 423.6875 57.449219 C 416.355469 54.316406 409.121094 52.746094 402.105469 52.746094 Z M 495.394531 167.863281 C 510.386719 168.132812 525.40625 168.34375 540.425781 168.519531 C 549.945312 165.898438 559.65625 162.851562 569.890625 159.585938 L 662.042969 130.160156 C 662.058594 130.152344 662.078125 130.152344 662.097656 130.144531 C 664.214844 129.597656 664.730469 129.105469 664.835938 128.96875 C 664.640625 128.597656 663.292969 127.640625 660.160156 126.824219 C 655.183594 125.523438 649.984375 125.222656 645.554688 125.101562 C 644.867188 125.082031 643.957031 125.101562 643.003906 125.128906 C 638.078125 125.242188 634.191406 125.179688 632.738281 123.351562 C 631.417969 121.679688 633.628906 117.90625 638.464844 111.070312 L 638.847656 110.527344 C 641.042969 107.421875 644.371094 102.71875 645.449219 99.277344 C 645.734375 98.355469 645.621094 97.492188 645.148438 97.03125 C 644.71875 96.625 644.039062 96.558594 643.222656 96.84375 C 618.601562 105.4375 597.457031 118.445312 575.074219 132.21875 C 569.410156 135.707031 563.554688 139.308594 557.703125 142.792969 C 542.101562 152.074219 528.238281 158.664062 515.3125 162.941406 C 508.449219 165.210938 501.828125 166.847656 495.394531 167.863281 Z M 451.09375 172.753906 C 458.613281 172.753906 466.136719 172.773438 473.6875 172.808594 C 474.851562 171.671875 476.105469 170.570312 477.460938 169.496094 C 464.554688 169.242188 451.671875 168.953125 438.839844 168.632812 C 442.859375 170.167969 446.929688 171.566406 451.058594 172.753906 C 451.070312 172.753906 451.078125 172.753906 451.09375 172.753906 Z M 476.554688 172.820312 C 491.425781 172.894531 506.390625 173.015625 521.511719 173.15625 C 525.460938 172.328125 529.390625 171.40625 533.34375 170.402344 C 515.757812 170.183594 498.179688 169.902344 480.648438 169.5625 C 479.171875 170.617188 477.808594 171.699219 476.554688 172.820312 Z M 458.855469 174.726562 C 459.457031 174.851562 460.058594 174.980469 460.660156 175.101562 C 463.804688 175.730469 467.011719 176.222656 470.285156 176.597656 C 470.769531 175.976562 471.28125 175.359375 471.816406 174.765625 C 467.488281 174.746094 463.171875 174.734375 458.855469 174.726562 Z M 472.625 176.832031 C 484.578125 177.941406 497.417969 177.339844 511.515625 175.035156 C 499.097656 174.925781 486.769531 174.832031 474.503906 174.773438 C 473.839844 175.449219 473.214844 176.136719 472.625 176.832031 Z M 624.109375 173.75 C 631.050781 173.75 643.777344 173.945312 648.660156 178.300781 C 655.4375 184.347656 655.816406 194.472656 655.644531 203.484375 C 655.316406 220.175781 654.960938 237.273438 654.59375 254.558594 L 654.886719 254.558594 C 656.042969 254.554688 657.273438 254.546875 658.554688 254.539062 C 664.253906 254.519531 670.722656 254.5 675.765625 254.285156 C 680.945312 254.058594 683.890625 252.195312 685.320312 248.238281 C 686.738281 244.316406 686.671875 238.542969 686.4375 231.394531 C 686.351562 228.800781 686.324219 224.457031 686.289062 219.425781 C 686.203125 206.105469 686.070312 185.964844 684.660156 180.414062 C 683.550781 176.082031 680.769531 173.445312 675.914062 172.101562 C 671.449219 170.863281 665.785156 170.890625 660.304688 170.917969 L 659.332031 170.925781 C 648.792969 170.972656 638.191406 170.996094 627.574219 170.996094 C 598.785156 170.996094 569.742188 170.824219 540.679688 170.488281 C 537.125 171.464844 533.597656 172.382812 530.082031 173.230469 C 530.476562 173.238281 530.867188 173.238281 531.257812 173.242188 C 560.964844 173.515625 591.683594 173.796875 623.085938 173.75 C 623.414062 173.75 623.753906 173.75 624.109375 173.75 Z M 514.222656 180.230469 C 517.921875 180.230469 521.746094 180.453125 524.40625 182.925781 C 526.714844 185.078125 527.410156 188.257812 527.917969 191.332031 C 529.289062 199.542969 530.625 222.828125 531.671875 255.242188 L 652.625 254.574219 C 652.996094 237.273438 653.351562 220.148438 653.679688 203.445312 C 653.84375 194.871094 653.503906 185.261719 647.351562 179.765625 C 642.773438 175.683594 628.976562 175.703125 623.09375 175.714844 C 591.675781 175.761719 560.949219 175.480469 531.246094 175.207031 C 528.058594 175.179688 524.886719 175.148438 521.710938 175.121094 C 519.773438 175.527344 517.84375 175.910156 515.898438 176.261719 C 499.53125 179.269531 484.792969 180.066406 471.183594 178.667969 C 470.792969 179.195312 470.421875 179.730469 470.074219 180.273438 C 484.335938 180.257812 498.882812 180.246094 514.136719 180.230469 C 514.164062 180.230469 514.195312 180.230469 514.222656 180.230469 Z M 468.898438 182.238281 C 468.808594 182.402344 468.71875 182.570312 468.628906 182.738281 C 463.878906 191.785156 463.933594 202.65625 463.988281 212.246094 L 464.21875 255.613281 L 529.710938 255.253906 C 528.667969 222.96875 527.335938 199.796875 525.980469 191.652344 C 525.527344 188.910156 524.925781 186.09375 523.066406 184.363281 C 520.910156 182.355469 517.617188 182.195312 514.136719 182.195312 C 498.460938 182.210938 483.535156 182.222656 468.898438 182.238281 Z M 466.679688 182.238281 C 458.382812 182.242188 450.171875 182.257812 441.953125 182.261719 C 418.546875 182.285156 395.144531 182.304688 369.769531 182.332031 C 359.660156 182.335938 350.027344 182.832031 343.332031 188.683594 C 335.085938 195.886719 334.527344 208.4375 334.640625 219.632812 C 334.765625 231.847656 334.972656 244.082031 335.261719 256.335938 L 462.257812 255.628906 L 462.023438 212.257812 C 461.976562 202.574219 461.914062 191.625 466.679688 182.238281 Z M 450.785156 174.71875 C 408.117188 174.71875 365.761719 175.355469 321.824219 177.625 C 318.089844 177.820312 313.433594 178.0625 310.019531 180.425781 C 305.65625 183.460938 304.078125 189.394531 303.199219 194.222656 C 300.457031 209.183594 300.730469 224.953125 304 239.804688 C 304.96875 244.210938 306.296875 248.699219 309.4375 251.734375 C 313.949219 256.089844 321.054688 256.410156 327.945312 256.375 L 333.296875 256.34375 C 333.007812 244.097656 332.800781 231.867188 332.675781 219.652344 C 332.554688 208.019531 333.167969 194.957031 342.035156 187.207031 C 349.242188 180.898438 359.273438 180.371094 369.769531 180.359375 C 395.144531 180.339844 418.546875 180.320312 441.953125 180.300781 C 450.523438 180.285156 459.089844 180.277344 467.761719 180.273438 C 468.128906 179.644531 468.53125 179.023438 468.949219 178.414062 C 466.003906 178.054688 463.117188 177.59375 460.277344 177.023438 C 457.070312 176.390625 453.910156 175.609375 450.785156 174.71875 Z M 464.234375 257.578125 L 465.335938 461.839844 C 465.363281 467.0625 465.417969 476.800781 467.535156 481.5625 C 468.523438 483.78125 469.871094 485.738281 471.570312 487.429688 C 473.585938 487.175781 475.59375 486.914062 477.601562 486.65625 C 487.636719 485.367188 498.019531 484.027344 508.316406 482.859375 C 515.226562 482.078125 522.085938 481.570312 528.96875 481.328125 C 529.769531 477.265625 530.023438 472.804688 530.191406 469.765625 L 530.203125 469.609375 C 532.179688 434.417969 531.996094 367.347656 531.160156 316.3125 C 530.804688 294.648438 530.332031 274.644531 529.777344 257.21875 Z M 349.128906 478.53125 C 369.519531 481.402344 389.804688 484.644531 409.890625 487.84375 C 418.007812 489.140625 426.25 490.457031 434.515625 491.746094 C 446.160156 490.609375 457.71875 489.199219 469.164062 487.738281 C 467.769531 486.140625 466.625 484.34375 465.742188 482.359375 C 463.453125 477.21875 463.398438 467.21875 463.371094 461.851562 L 462.269531 257.59375 L 335.308594 258.300781 C 337.058594 330.992188 341.609375 404.121094 348.875 476.246094 C 348.957031 477.019531 349.035156 477.78125 349.128906 478.53125 Z M 349.429688 480.554688 C 349.914062 483.375 350.707031 485.867188 352.324219 487.890625 C 355.757812 492.195312 362.023438 493.15625 368.277344 493.5625 C 387.820312 494.828125 407.277344 494.113281 426.511719 492.480469 C 420.832031 491.578125 415.175781 490.675781 409.582031 489.78125 C 389.699219 486.609375 369.609375 483.40625 349.429688 480.554688 Z M 473.546875 489.160156 C 480.875 494.78125 493.175781 496.699219 510.289062 494.867188 C 516.261719 494.226562 521.914062 493.34375 525.535156 489.59375 C 526.902344 488.179688 527.851562 485.898438 528.519531 483.308594 C 521.859375 483.554688 515.226562 484.054688 508.535156 484.8125 C 498.261719 485.980469 487.886719 487.316406 477.851562 488.605469 C 476.421875 488.792969 474.984375 488.972656 473.546875 489.160156 Z M 538.132812 481.167969 C 545.117188 481.167969 552.144531 481.445312 559.285156 482 C 575.15625 483.222656 591.597656 485.820312 609.550781 489.9375 C 617.167969 491.6875 624.910156 493.585938 632.40625 495.421875 C 633.863281 495.777344 635.324219 496.136719 636.796875 496.492188 C 640.242188 495.066406 643.183594 492.976562 645.066406 489.828125 C 647.558594 485.679688 647.660156 480.46875 647.746094 475.871094 C 648.59375 431.890625 649.671875 385 650.710938 339.652344 C 651.339844 312.183594 651.980469 284.144531 652.582031 256.539062 L 531.742188 257.207031 C 532.296875 274.644531 532.761719 294.628906 533.125 316.277344 C 533.957031 367.351562 534.144531 434.476562 532.160156 469.71875 L 532.15625 469.878906 C 531.972656 473.039062 531.734375 477.273438 530.984375 481.261719 C 533.363281 481.195312 535.75 481.167969 538.132812 481.167969 Z M 442.179688 492.9375 C 448.78125 493.953125 455.375 494.945312 461.890625 495.894531 C 490.710938 500.085938 520.007812 500.914062 542.308594 501.167969 C 544.660156 501.195312 547.007812 501.226562 549.359375 501.253906 C 573.484375 501.554688 598.425781 501.871094 623.011719 499.429688 C 626.464844 499.089844 630.035156 498.59375 633.339844 497.667969 C 632.875 497.554688 632.40625 497.441406 631.9375 497.324219 C 624.457031 495.496094 616.710938 493.597656 609.109375 491.855469 C 591.257812 487.757812 574.90625 485.171875 559.132812 483.957031 C 549.457031 483.207031 539.992188 482.96875 530.566406 483.242188 C 529.816406 486.355469 528.6875 489.152344 526.945312 490.957031 C 522.867188 495.179688 516.839844 496.136719 510.5 496.816406 C 500.097656 497.933594 491.648438 497.714844 484.679688 496.144531 C 478.933594 494.855469 474.316406 492.628906 470.886719 489.5 C 461.394531 490.710938 451.820312 491.90625 442.179688 492.9375 Z M 58.613281 518.234375 C 58.277344 518.234375 57.957031 518.066406 57.769531 517.757812 C 57.492188 517.296875 57.636719 516.695312 58.097656 516.410156 C 104.898438 487.75 154.914062 471.949219 206.746094 469.429688 C 214.945312 469.035156 223.175781 468.847656 231.414062 468.847656 C 269.804688 468.847656 308.617188 472.871094 347.113281 478.25 C 347.046875 477.628906 346.984375 477.027344 346.925781 476.4375 C 339.648438 404.257812 335.09375 331.058594 333.34375 258.308594 L 327.957031 258.339844 C 320.660156 258.382812 313.117188 258.015625 308.074219 253.144531 C 304.554688 249.75 303.117188 244.929688 302.082031 240.226562 C 298.761719 225.121094 298.480469 209.082031 301.265625 193.871094 C 302.214844 188.664062 303.945312 182.257812 308.894531 178.816406 C 312.773438 176.128906 317.734375 175.867188 321.722656 175.660156 C 363.542969 173.503906 403.921875 172.820312 444.492188 172.761719 C 440.675781 171.472656 436.90625 170.035156 433.1875 168.484375 C 400.855469 167.65625 368.875 166.621094 337.546875 165.386719 C 333.421875 165.226562 329.441406 164.945312 326.085938 163.359375 C 323.308594 162.042969 323 160.226562 323.066406 159.257812 C 323.195312 157.386719 324.878906 155.671875 327.351562 154.882812 L 328.671875 154.460938 C 333.609375 152.890625 338.714844 151.265625 343.625 149.410156 C 344.90625 148.921875 345.644531 148.347656 345.695312 147.792969 C 345.75 147.304688 345.394531 145.882812 341.09375 143.203125 C 339.410156 142.152344 337.632812 141.171875 335.910156 140.222656 C 334.710938 139.566406 333.476562 138.878906 332.273438 138.175781 C 332.066406 138.058594 331.804688 137.917969 331.53125 137.769531 C 329.800781 136.828125 327.4375 135.542969 327.054688 133.574219 C 326.628906 131.390625 327.496094 130.078125 328.296875 129.371094 C 330.742188 127.207031 336.363281 127.003906 345.476562 128.757812 C 353.046875 130.214844 360.113281 132.503906 360.1875 132.523438 C 374.992188 137.34375 389.199219 144.652344 401.730469 151.105469 L 403.753906 152.148438 C 413.484375 157.160156 423.386719 162.265625 433.605469 166.535156 C 442.808594 166.769531 452.027344 166.988281 461.273438 167.195312 C 449.234375 164.671875 437.027344 159.605469 424.195312 151.847656 C 409.910156 143.207031 396.820312 132.503906 384.632812 122.269531 C 374.464844 113.734375 365.113281 105.097656 362.367188 93.28125 C 360.476562 85.152344 362.359375 76.417969 367.675781 68.699219 C 370.796875 64.171875 374.992188 60.160156 379.808594 57.109375 C 384.726562 54 390.1875 51.964844 395.597656 51.222656 C 404.890625 49.945312 414.597656 51.429688 424.453125 55.636719 C 433.007812 59.292969 441.578125 65.027344 449.242188 72.222656 C 458.753906 81.164062 466.699219 91.699219 472.757812 103.226562 C 484.351562 77.441406 501.6875 54.128906 523.0625 35.625 C 529.496094 30.054688 539.617188 22.53125 551.261719 18.320312 C 562.714844 14.183594 573.238281 14.066406 582.542969 17.972656 C 591.421875 21.703125 598.585938 29.3125 602.707031 39.394531 C 606.554688 48.796875 607.484375 59.835938 605.253906 69.691406 C 603.183594 78.855469 598.804688 87.929688 592.246094 96.664062 C 586.714844 104.027344 579.738281 111.101562 570.933594 118.300781 C 553.101562 132.859375 531.90625 145.28125 504.234375 157.394531 L 503.136719 157.867188 C 496.824219 160.628906 490.308594 163.472656 484.472656 167.042969 C 494.097656 166.5625 504.09375 164.582031 514.695312 161.074219 C 527.484375 156.847656 541.226562 150.3125 556.703125 141.105469 C 562.539062 137.628906 568.386719 134.027344 574.046875 130.546875 C 595.53125 117.324219 617.753906 103.652344 642.574219 94.988281 C 644.109375 94.453125 645.539062 94.6875 646.511719 95.621094 C 647.539062 96.617188 647.839844 98.199219 647.324219 99.863281 C 646.15625 103.601562 642.722656 108.449219 640.449219 111.664062 L 640.070312 112.199219 C 638.933594 113.800781 637.382812 116 636.148438 118.050781 C 634.335938 121.058594 634.296875 121.988281 634.316406 122.175781 C 635.367188 123.335938 640.289062 123.222656 642.957031 123.164062 C 643.9375 123.136719 644.871094 123.117188 645.609375 123.136719 C 650.144531 123.265625 655.484375 123.570312 660.660156 124.921875 C 663.464844 125.65625 666.820312 126.957031 666.820312 128.984375 C 666.8125 130.742188 664.429688 131.570312 662.613281 132.035156 L 570.492188 161.457031 C 562.515625 164.003906 554.851562 166.414062 547.347656 168.597656 C 584.910156 169 622.390625 169.128906 659.324219 168.960938 L 660.300781 168.953125 C 665.90625 168.925781 671.710938 168.898438 676.433594 170.203125 C 681.964844 171.734375 685.28125 174.914062 686.558594 179.925781 C 688.035156 185.710938 688.160156 205.1875 688.253906 219.414062 C 688.289062 224.429688 688.3125 228.761719 688.402344 231.332031 C 688.640625 238.691406 688.703125 244.65625 687.171875 248.90625 C 685.453125 253.65625 681.859375 255.984375 675.851562 256.242188 C 670.769531 256.464844 664.28125 256.484375 658.5625 256.503906 C 657.28125 256.511719 656.050781 256.515625 654.894531 256.523438 L 654.546875 256.523438 C 653.953125 284.152344 653.304688 312.210938 652.675781 339.699219 C 651.632812 385.039062 650.558594 431.933594 649.710938 475.90625 C 649.625 480.515625 649.507812 486.242188 646.757812 490.839844 C 645.058594 493.671875 642.648438 495.722656 639.835938 497.230469 C 661.507812 502.503906 683.785156 507.609375 706.132812 509.632812 C 717.078125 510.628906 726.0625 510.648438 734.425781 509.707031 C 761.351562 506.660156 787.289062 499.390625 811.527344 488.085938 C 845.796875 472.101562 876.722656 448.054688 903.449219 416.605469 C 903.800781 416.191406 904.421875 416.144531 904.832031 416.492188 C 905.246094 416.84375 905.296875 417.460938 904.945312 417.875 C 878.03125 449.539062 846.886719 473.757812 812.355469 489.863281 C 787.929688 501.261719 761.78125 508.589844 734.640625 511.65625 C 726.148438 512.613281 717.035156 512.59375 705.957031 511.589844 C 682.628906 509.472656 659.453125 504.046875 636.941406 498.546875 C 632.691406 500.191406 627.84375 500.925781 623.207031 501.386719 C 598.511719 503.832031 573.511719 503.519531 549.332031 503.21875 C 546.988281 503.191406 544.640625 503.160156 542.289062 503.132812 C 499.71875 502.644531 476.808594 500.050781 461.609375 497.839844 C 452.640625 496.539062 443.542969 495.148438 434.460938 493.722656 C 412.621094 495.84375 390.460938 496.964844 368.152344 495.523438 C 361.445312 495.085938 354.703125 494.011719 350.789062 489.113281 C 348.722656 486.527344 347.855469 483.328125 347.378906 480.265625 C 308.78125 474.867188 269.863281 470.8125 231.40625 470.8125 C 223.191406 470.8125 215.011719 470.992188 206.847656 471.394531 C 155.34375 473.894531 105.640625 489.601562 59.121094 518.085938 C 58.960938 518.1875 58.785156 518.234375 58.613281 518.234375 " fill-opacity="1" fill-rule="nonzero"/></g></svg>