<svg xmlns="http://www.w3.org/2000/svg" xmlns:xlink="http://www.w3.org/1999/xlink" width="1366" zoomAndPan="magnify" viewBox="0 0 1024.5 576" height="768" preserveAspectRatio="xMidYMid meet" version="1.0"><metadata><ContainsAiGeneratedContent>Yes</ContainsAiGeneratedContent></metadata><defs><clipPath id="f501ca950c"><path d="M 14.535156 118 L 1009.300781 118 L 1009.300781 432.546875 L 14.535156 432.546875 Z M 14.535156 118 " clip-rule="nonzero"/></clipPath></defs><g clip-path="url(#f501ca950c)"><path fill="#000000" d="M 477.132812 176.800781 C 476.71875 177.867188 476.316406 178.9375 475.925781 180.019531 C 474.078125 185.234375 472.210938 191.992188 474.285156 198 C 475.09375 200.324219 477.425781 202.507812 479.492188 202.867188 C 480.636719 203.0625 481.578125 202.703125 482.300781 201.792969 C 482.992188 200.921875 483.292969 199.757812 483.152344 198.507812 C 482.292969 191.003906 480.230469 183.664062 477.132812 176.800781 Z M 390.316406 189.410156 C 389.660156 189.410156 388.984375 189.464844 388.355469 189.644531 C 387.152344 189.96875 386.140625 190.878906 386.054688 191.71875 C 385.976562 192.503906 386.769531 193.070312 387.453125 193.414062 C 387.789062 193.585938 388.167969 193.710938 388.457031 193.796875 C 391.378906 194.671875 394.136719 195.988281 396.65625 197.714844 C 397.207031 198.085938 397.667969 198.535156 398.023438 199.042969 C 398.800781 200.144531 398.988281 201.210938 398.582031 202.214844 C 397.378906 205.199219 390.960938 206.421875 387.507812 207.082031 C 386.980469 207.183594 386.53125 207.265625 386.226562 207.335938 C 385.550781 207.484375 384.84375 207.671875 384.316406 208.058594 C 383.691406 208.519531 383.359375 208.953125 383.4375 209.195312 C 383.484375 209.375 383.972656 210.285156 388.261719 211.0625 C 390.78125 211.519531 393.328125 211.691406 393.875 211.707031 C 411.664062 212.40625 429.933594 212.996094 448.46875 213.488281 C 443.074219 211.085938 437.828125 208.378906 432.652344 205.710938 L 431.378906 205.050781 C 429.855469 204.265625 428.332031 203.472656 426.730469 202.632812 C 416.023438 197.011719 403.882812 190.640625 391.835938 189.496094 C 391.355469 189.449219 390.84375 189.410156 390.316406 189.410156 Z M 433.664062 141.429688 C 429.777344 141.429688 425.847656 142.222656 422.324219 143.753906 C 417.4375 145.859375 413.644531 149.195312 411.351562 153.386719 C 407.519531 160.382812 407.894531 169.890625 412.324219 178.199219 C 415.84375 184.800781 421.59375 190.714844 430.4375 196.820312 C 438.894531 202.65625 447.761719 207.089844 456.792969 209.972656 C 465.472656 212.753906 474.078125 214.03125 482.40625 213.773438 L 482.523438 213.648438 C 485.46875 210.601562 489.496094 209.070312 493.390625 207.59375 C 493.652344 207.492188 493.917969 207.390625 494.183594 207.289062 C 508.527344 201.800781 522.011719 194.316406 534.269531 185.050781 C 540.640625 180.230469 545.636719 175.558594 549.546875 170.785156 C 554.289062 164.992188 557.417969 158.945312 558.878906 152.800781 C 560.433594 146.226562 559.617188 138.863281 556.632812 132.613281 C 553.488281 126.003906 548.367188 121.535156 542.21875 120.011719 C 534.160156 118.015625 524.753906 120.890625 514.277344 128.5625 C 505.558594 134.9375 497.820312 142.632812 491.265625 151.425781 C 485.789062 158.78125 481.28125 166.710938 477.832031 175.066406 C 481.296875 182.398438 483.582031 190.273438 484.507812 198.351562 C 484.691406 199.960938 484.289062 201.492188 483.363281 202.648438 C 482.347656 203.933594 480.882812 204.484375 479.269531 204.203125 C 476.671875 203.769531 473.984375 201.289062 473.003906 198.445312 C 470.78125 192.039062 472.714844 184.988281 474.644531 179.5625 C 475.179688 178.066406 475.746094 176.582031 476.339844 175.105469 C 473.027344 168.242188 468.652344 161.890625 463.351562 156.347656 C 457.71875 150.453125 448.617188 143.125 437.238281 141.664062 C 436.058594 141.507812 434.859375 141.429688 433.664062 141.429688 Z M 490.492188 214.417969 C 499.203125 214.566406 507.921875 214.699219 516.640625 214.808594 C 518.523438 214.363281 520.394531 213.921875 522.261719 213.480469 C 541.136719 208.945312 560.09375 203.691406 578.597656 197.859375 C 584.660156 195.949219 590.78125 193.941406 596.789062 191.898438 C 597.34375 191.710938 597.753906 191.308594 597.902344 190.824219 C 598.066406 190.289062 597.910156 189.992188 597.777344 189.816406 C 596.566406 188.175781 590.710938 188.183594 588.21875 188.191406 C 587.480469 188.191406 586.9375 188.191406 586.625 188.160156 C 583.96875 187.917969 580.570312 187.1875 579.429688 185.113281 C 578.84375 184.039062 578.914062 182.777344 579.644531 181.355469 C 580.089844 180.5 580.53125 179.636719 580.984375 178.777344 C 582.148438 176.527344 583.351562 174.195312 584.511719 171.894531 C 584.714844 171.5 584.78125 171.070312 584.707031 170.707031 C 584.628906 170.300781 584.441406 170.039062 584.128906 169.875 C 583.34375 169.445312 581.875 169.703125 580.773438 170.144531 C 568.363281 175.152344 556.578125 182.539062 545.1875 189.683594 C 535.953125 195.464844 526.410156 201.453125 516.65625 206.070312 C 507.449219 210.4375 498.835938 213.183594 490.492188 214.417969 Z M 463.140625 217.503906 C 468.667969 217.503906 474.207031 217.527344 479.765625 217.550781 C 480.117188 216.882812 480.503906 216.230469 480.929688 215.601562 C 479.601562 215.578125 478.273438 215.546875 476.9375 215.523438 C 469.855469 215.375 462.800781 215.21875 455.773438 215.042969 C 458.191406 215.957031 460.648438 216.789062 463.132812 217.503906 Z M 481.3125 217.558594 C 488.710938 217.597656 496.125 217.660156 503.617188 217.730469 C 506.082031 217.195312 508.542969 216.652344 511 216.097656 C 501.535156 215.972656 492.058594 215.820312 482.601562 215.632812 C 482.121094 216.246094 481.699219 216.890625 481.3125 217.558594 Z M 468.636719 218.882812 C 468.824219 218.914062 469.007812 218.953125 469.195312 218.992188 C 472.09375 219.574219 475.21875 220.117188 478.515625 220.4375 C 478.699219 219.921875 478.894531 219.410156 479.121094 218.914062 C 475.617188 218.898438 472.125 218.882812 468.636719 218.882812 Z M 479.921875 220.554688 C 484.296875 220.878906 488.945312 220.769531 493.722656 219.800781 C 494.960938 219.550781 496.195312 219.292969 497.429688 219.039062 C 491.796875 218.992188 486.191406 218.953125 480.613281 218.921875 C 480.355469 219.457031 480.128906 220 479.921875 220.554688 Z M 572.386719 218.136719 C 576.777344 218.136719 584.828125 218.261719 587.929688 221.027344 C 592.226562 224.867188 592.46875 231.273438 592.359375 236.980469 C 592.152344 247.699219 591.925781 258.453125 591.683594 269.171875 L 591.816406 269.171875 C 592.554688 269.171875 593.332031 269.164062 594.140625 269.164062 C 597.738281 269.148438 601.820312 269.132812 605.003906 269 C 608.246094 268.859375 610.085938 267.695312 610.980469 265.222656 C 611.867188 262.757812 611.828125 259.113281 611.679688 254.609375 C 611.625 252.972656 611.609375 250.226562 611.585938 247.046875 C 611.53125 238.636719 611.449219 225.917969 610.554688 222.417969 C 609.023438 216.402344 602.332031 216.441406 595.242188 216.472656 L 594.628906 216.480469 C 568.945312 216.589844 542.894531 216.488281 516.789062 216.167969 C 514.433594 216.71875 512.078125 217.257812 509.71875 217.785156 C 511.070312 217.792969 512.414062 217.808594 513.765625 217.816406 C 532.519531 217.988281 551.910156 218.167969 571.742188 218.136719 C 571.945312 218.136719 572.160156 218.136719 572.386719 218.136719 Z M 478.800781 224.175781 C 480.597656 224.230469 482.390625 224.285156 484.171875 224.332031 C 487.816406 224.433594 491.8125 225 493.769531 228.476562 C 495.605469 231.738281 495.75 236.023438 495.882812 239.800781 C 495.929688 241 495.960938 242.132812 496.054688 243.214844 C 496.511719 248.804688 496.949219 254.246094 497.34375 259.40625 C 497.609375 262.882812 497.867188 266.3125 498.105469 269.691406 L 590.316406 269.179688 C 590.558594 258.453125 590.789062 247.683594 590.992188 236.957031 C 591.101562 231.554688 590.890625 225.496094 587.019531 222.046875 C 584.152344 219.480469 575.457031 219.496094 571.742188 219.503906 C 551.910156 219.535156 532.511719 219.355469 513.75 219.183594 C 510.402344 219.152344 507.074219 219.121094 503.757812 219.089844 C 500.492188 219.800781 497.234375 220.476562 493.988281 221.136719 C 488.9375 222.164062 484.046875 222.253906 479.453125 221.882812 C 479.214844 222.644531 478.996094 223.414062 478.800781 224.175781 Z M 478.484375 225.527344 C 478.421875 225.800781 478.367188 226.066406 478.3125 226.328125 C 475.273438 240.609375 475.632812 255.449219 476.003906 269.816406 L 496.738281 269.699219 C 496.496094 266.351562 496.242188 262.953125 495.976562 259.507812 C 495.589844 254.355469 495.152344 248.90625 494.695312 243.324219 C 494.601562 242.21875 494.5625 241.0625 494.523438 239.847656 C 494.390625 236.046875 494.25 232.121094 492.582031 229.152344 C 490.964844 226.265625 487.566406 225.785156 484.132812 225.699219 C 482.261719 225.644531 480.371094 225.589844 478.484375 225.527344 Z M 412.324219 223.679688 L 411.796875 223.679688 C 405.421875 223.6875 399.351562 223.996094 395.140625 227.683594 C 389.957031 232.214844 389.597656 240.121094 389.675781 247.179688 C 389.746094 253.910156 389.949219 261.699219 390.269531 270.292969 L 474.644531 269.824219 C 474.261719 255.386719 473.90625 240.476562 476.976562 226.042969 C 477.015625 225.863281 477.054688 225.675781 477.101562 225.488281 C 471.070312 225.296875 465.03125 225.070312 459.140625 224.851562 C 443.78125 224.277344 427.914062 223.679688 412.324219 223.679688 Z M 462.941406 218.875 C 436.003906 218.875 409.261719 219.277344 381.523438 220.707031 C 379.171875 220.832031 376.238281 220.980469 374.101562 222.464844 C 371.367188 224.371094 370.371094 228.101562 369.820312 231.140625 C 368.09375 240.585938 368.265625 250.53125 370.324219 259.90625 C 370.933594 262.671875 371.769531 265.503906 373.746094 267.40625 C 376.574219 270.144531 381.050781 270.347656 385.386719 270.324219 L 388.90625 270.300781 C 388.582031 261.714844 388.378906 253.917969 388.308594 247.1875 C 388.238281 239.824219 388.621094 231.570312 394.238281 226.65625 C 398.808594 222.652344 405.152344 222.316406 411.796875 222.316406 L 412.324219 222.308594 C 427.9375 222.308594 443.820312 222.910156 459.1875 223.484375 C 465.171875 223.710938 471.300781 223.941406 477.410156 224.136719 C 477.605469 223.351562 477.824219 222.550781 478.070312 221.757812 C 474.839844 221.429688 471.777344 220.894531 468.933594 220.328125 C 466.910156 219.921875 464.914062 219.433594 462.941406 218.875 Z M 476.042969 271.183594 C 476.476562 287.691406 476.953125 310.660156 477.402344 332.894531 C 478.171875 370.265625 478.902344 405.558594 479.390625 409.710938 C 479.445312 410.128906 479.765625 410.519531 480.355469 410.882812 C 483.914062 413.046875 495.003906 412.78125 499.839844 410.96875 C 501.457031 410.363281 501.386719 407.621094 501.308594 404.710938 C 501.292969 403.996094 501.269531 403.257812 501.277344 402.542969 C 501.710938 364.308594 500.84375 332.949219 498.175781 290.707031 C 497.78125 284.433594 497.328125 277.855469 496.839844 271.0625 Z M 390.320312 271.660156 C 391.183594 294.035156 392.832031 321.632812 395.039062 349.976562 C 397.851562 386.140625 400.84375 413.769531 402.546875 419.40625 C 467.394531 418.875 515.632812 418.511719 520.746094 418.574219 C 522.222656 418.589844 523.707031 418.605469 525.191406 418.628906 C 540.414062 418.8125 556.167969 419.007812 571.6875 417.476562 C 577.089844 416.941406 582.949219 415.804688 585.566406 411.4375 C 587.128906 408.832031 587.191406 405.550781 587.246094 402.652344 C 587.789062 374.875 588.46875 346.875 589.128906 319.796875 C 589.515625 303.625 589.914062 287.128906 590.292969 270.546875 L 498.207031 271.0625 C 498.695312 277.824219 499.140625 284.371094 499.535156 290.621094 C 502.210938 332.902344 503.082031 364.289062 502.644531 402.558594 C 502.636719 403.242188 502.652344 403.972656 502.675781 404.671875 C 502.761719 407.929688 502.847656 411.296875 500.3125 412.246094 C 495.050781 414.21875 483.660156 414.484375 479.648438 412.042969 C 478.683594 411.460938 478.140625 410.730469 478.039062 409.875 C 477.542969 405.652344 476.8125 370.328125 476.042969 332.917969 C 475.585938 310.675781 475.109375 287.699219 474.683594 271.183594 Z M 1008.613281 432.117188 L 1008.605469 432.109375 C 1005.667969 432.078125 712.78125 428.65625 556.527344 425.726562 C 527.816406 425.1875 501.410156 425.421875 478.109375 425.632812 C 456.3125 425.820312 437.480469 425.988281 424.207031 425.398438 C 410.265625 424.777344 403.378906 423.378906 401.667969 420.773438 C 253.144531 421.992188 18.613281 424.101562 15.21875 424.132812 C 14.84375 424.132812 14.535156 423.828125 14.535156 423.457031 C 14.535156 423.074219 14.835938 422.769531 15.210938 422.769531 C 18.597656 422.730469 252.578125 420.632812 401.140625 419.414062 C 399.359375 412.8125 396.476562 386.070312 393.679688 350.085938 C 391.472656 321.699219 389.816406 294.0625 388.953125 271.667969 L 385.394531 271.683594 C 380.777344 271.714844 376 271.472656 372.796875 268.386719 C 370.558594 266.234375 369.648438 263.179688 368.996094 260.199219 C 366.898438 250.644531 366.71875 240.515625 368.476562 230.894531 C 369.082031 227.597656 370.179688 223.53125 373.324219 221.347656 C 375.78125 219.644531 378.929688 219.480469 381.453125 219.347656 C 407.730469 217.988281 433.113281 217.558594 458.601562 217.511719 C 456.320312 216.734375 454.066406 215.875 451.835938 214.941406 C 432.132812 214.433594 412.703125 213.804688 393.820312 213.074219 C 393.261719 213.050781 390.617188 212.871094 388.023438 212.40625 C 384.382812 211.746094 382.519531 210.859375 382.132812 209.597656 C 381.859375 208.722656 382.324219 207.835938 383.507812 206.964844 C 384.246094 206.421875 385.109375 206.195312 385.921875 206.007812 C 386.25 205.929688 386.691406 205.84375 387.253906 205.734375 C 389.988281 205.214844 396.390625 204.003906 397.324219 201.699219 C 397.542969 201.148438 397.410156 200.535156 396.90625 199.828125 C 396.648438 199.453125 396.296875 199.121094 395.886719 198.832031 C 393.484375 197.191406 390.851562 195.933594 388.0625 195.101562 C 387.71875 195 387.277344 194.851562 386.839844 194.632812 C 384.8125 193.617188 384.625 192.285156 384.695312 191.578125 C 384.859375 189.984375 386.476562 188.734375 388 188.320312 C 389.359375 187.957031 390.765625 188.027344 391.96875 188.136719 C 404.273438 189.300781 416.542969 195.746094 427.371094 201.421875 C 428.96875 202.261719 430.476562 203.0625 432 203.847656 L 433.285156 204.5 C 439.421875 207.664062 445.671875 210.890625 452.121094 213.585938 C 457.066406 213.710938 462.023438 213.828125 466.996094 213.945312 C 463.476562 213.308594 459.933594 212.414062 456.378906 211.277344 C 447.21875 208.339844 438.234375 203.855469 429.660156 197.9375 C 420.632812 191.710938 414.742188 185.640625 411.117188 178.84375 C 406.480469 170.128906 406.105469 160.125 410.15625 152.734375 C 412.59375 148.269531 416.613281 144.734375 421.78125 142.5 C 426.617188 140.410156 432.164062 139.632812 437.410156 140.308594 C 449.183594 141.824219 458.558594 149.359375 464.339844 155.40625 C 469.453125 160.753906 473.726562 166.859375 477.039062 173.433594 C 480.464844 165.386719 484.871094 157.730469 490.171875 150.609375 C 496.808594 141.707031 504.640625 133.917969 513.472656 127.460938 C 524.289062 119.539062 534.074219 116.589844 542.550781 118.691406 C 549.097656 120.308594 554.535156 125.042969 557.863281 132.023438 C 560.980469 138.550781 561.832031 146.242188 560.203125 153.121094 C 558.703125 159.457031 555.46875 165.691406 550.605469 171.648438 C 546.625 176.503906 541.550781 181.246094 535.082031 186.136719 C 522.734375 195.480469 509.132812 203.023438 494.664062 208.558594 C 494.398438 208.667969 494.136719 208.769531 493.871094 208.867188 C 490.550781 210.128906 487.125 211.433594 484.492188 213.671875 C 484.871094 213.648438 485.261719 213.625 485.648438 213.59375 C 495.308594 212.824219 505.265625 209.964844 516.074219 204.84375 C 525.757812 200.246094 535.261719 194.292969 544.464844 188.523438 C 555.902344 181.347656 567.738281 173.933594 580.261719 168.886719 C 580.921875 168.621094 583.199219 167.8125 584.773438 168.667969 C 585.453125 169.035156 585.886719 169.640625 586.042969 170.441406 C 586.175781 171.101562 586.066406 171.839844 585.730469 172.507812 C 584.566406 174.820312 583.359375 177.152344 582.1875 179.40625 C 581.746094 180.261719 581.300781 181.125 580.859375 181.984375 C 580.335938 182.988281 580.261719 183.796875 580.625 184.457031 C 581.277344 185.648438 583.507812 186.503906 586.75 186.804688 C 586.996094 186.820312 587.566406 186.820312 588.21875 186.820312 C 592.59375 186.820312 597.375 186.976562 598.875 189.007812 C 599.339844 189.636719 599.457031 190.398438 599.199219 191.222656 C 598.925781 192.125 598.1875 192.863281 597.234375 193.1875 C 591.210938 195.242188 585.078125 197.246094 579.007812 199.160156 C 560.472656 205.003906 541.488281 210.269531 522.578125 214.800781 L 522.300781 214.871094 C 546.554688 215.132812 570.753906 215.21875 594.621094 215.109375 L 595.234375 215.109375 C 598.789062 215.097656 602.457031 215.074219 605.449219 215.902344 C 608.960938 216.875 611.066406 218.898438 611.875 222.085938 C 612.816406 225.746094 612.894531 238.050781 612.957031 247.039062 C 612.972656 250.203125 612.992188 252.941406 613.039062 254.566406 C 613.195312 259.214844 613.234375 262.992188 612.261719 265.6875 C 611.167969 268.714844 608.882812 270.199219 605.058594 270.363281 C 601.847656 270.5 597.753906 270.515625 594.148438 270.523438 C 593.339844 270.53125 592.554688 270.53125 591.824219 270.539062 L 591.652344 270.539062 C 591.28125 287.136719 590.875 303.648438 590.488281 319.828125 C 589.828125 346.90625 589.152344 374.90625 588.613281 402.675781 C 588.558594 405.589844 588.488281 409.222656 586.742188 412.136719 C 583.8125 417.027344 577.554688 418.261719 571.828125 418.828125 C 556.230469 420.375 540.4375 420.175781 525.167969 419.988281 C 523.691406 419.972656 522.207031 419.949219 520.730469 419.933594 C 520.363281 419.925781 519.773438 419.925781 518.988281 419.925781 C 508.730469 419.925781 463.296875 420.269531 403.566406 420.757812 C 404.414062 421.332031 405.941406 421.960938 408.671875 422.507812 C 412.230469 423.230469 417.335938 423.726562 424.269531 424.039062 C 437.503906 424.621094 456.3125 424.457031 478.09375 424.265625 C 501.410156 424.0625 527.824219 423.828125 556.550781 424.363281 C 712.804688 427.289062 1005.683594 430.714844 1008.621094 430.746094 C 1009.003906 430.753906 1009.308594 431.066406 1009.300781 431.4375 C 1009.292969 431.8125 1008.988281 432.117188 1008.613281 432.117188 " fill-opacity="1" fill-rule="nonzero"/></g></svg>