<svg xmlns="http://www.w3.org/2000/svg" xmlns:xlink="http://www.w3.org/1999/xlink" width="1366" zoomAndPan="magnify" viewBox="0 0 1024.5 576" height="768" preserveAspectRatio="xMidYMid meet" version="1.0"><metadata><ContainsAiGeneratedContent>Yes</ContainsAiGeneratedContent></metadata><defs><clipPath id="618b91aca0"><path d="M 367 50 L 657.027344 50 L 657.027344 510.238281 L 367 510.238281 Z M 367 50 " clip-rule="nonzero"/></clipPath></defs><g clip-path="url(#618b91aca0)"><path fill="#000000" d="M 481.296875 50.082031 C 454.546875 50.519531 434.878906 52.105469 414.695312 55.472656 C 405.265625 57.042969 396.03125 59.046875 389.179688 61.011719 C 378.191406 64.167969 372.351562 67.242188 369.640625 71.308594 C 367.453125 74.605469 366.917969 79.628906 368.113281 85.621094 C 369.023438 90.179688 370.625 93.253906 372.898438 94.78125 C 374.398438 95.792969 375.328125 96.058594 377.503906 96.058594 C 379.707031 96.070312 380.828125 95.863281 385.8125 94.445312 C 402.191406 89.816406 417.179688 86.996094 442.082031 83.878906 C 466.601562 80.808594 490.308594 78.789062 512.105469 77.902344 C 528.949219 77.230469 550.4375 77.175781 567.546875 77.765625 C 583.984375 78.339844 597.332031 79.195312 603.496094 80.078125 C 610.988281 81.160156 613.640625 82.898438 615.691406 88.074219 C 615.984375 88.820312 616.183594 89.464844 616.125 89.507812 C 616.027344 89.605469 614.359375 89.40625 606.21875 88.339844 C 578.761719 84.75 567.226562 83.640625 548.25 82.785156 C 542.816406 82.535156 516.722656 82.535156 510.492188 82.785156 C 488.429688 83.65625 468.554688 85.058594 444.945312 87.445312 C 411.863281 90.78125 396.828125 93.546875 390.007812 97.53125 C 387.679688 98.878906 386.148438 100.8125 385.921875 102.664062 C 385.542969 105.652344 388.085938 109.246094 391.550781 110.648438 C 393.167969 111.308594 394.597656 111.476562 397.785156 111.390625 C 400.660156 111.308594 402.246094 111.152344 409.996094 110.242188 C 434.613281 107.308594 468.652344 103.453125 495.332031 100.574219 C 524.667969 97.40625 541.175781 96.113281 558.917969 95.566406 C 564.910156 95.382812 581.414062 95.46875 585.726562 95.722656 C 599.183594 96.464844 604.167969 97.476562 606.652344 99.929688 C 607.453125 100.730469 608.742188 102.523438 608.742188 102.847656 C 608.742188 103.101562 608.070312 103.367188 605.980469 103.929688 C 601.5 105.164062 594.847656 106.0625 584.460938 106.859375 C 562.339844 108.570312 533.496094 109.316406 489.507812 109.328125 C 460.453125 109.328125 447.09375 109.707031 428.242188 111.011719 C 409.980469 112.289062 403.804688 113.410156 399.929688 116.148438 C 397.347656 117.972656 395.917969 121.324219 396.746094 123.570312 C 396.859375 123.878906 397.109375 125.492188 397.308594 127.148438 C 399.101562 142.453125 402.136719 155.136719 407.300781 168.953125 C 411.300781 179.628906 416.15625 189.816406 421.152344 197.925781 C 427.398438 208.082031 435.050781 217.269531 445.226562 226.824219 C 450.066406 231.371094 452.566406 233.558594 463.753906 243.097656 C 469.84375 248.289062 473.042969 251.347656 475.949219 254.730469 C 481.15625 260.789062 484.359375 267.117188 485.507812 273.613281 C 486.054688 276.640625 486.042969 285.046875 485.496094 288.625 C 485.199219 290.601562 483.417969 295.597656 481.691406 299.34375 C 478.320312 306.625 473.101562 314.28125 465.789062 322.628906 C 461.226562 327.847656 456.972656 332.171875 448.3125 340.40625 C 439.652344 348.65625 435.46875 352.976562 431.246094 358.066406 C 422.558594 368.546875 415.246094 380.570312 410.738281 391.792969 C 405.757812 404.210938 403.539062 416.445312 402.402344 437.894531 C 402.136719 442.820312 402.164062 451.378906 402.457031 454.027344 C 403.242188 461 405.40625 466.164062 408.183594 467.707031 C 408.84375 468.070312 409.082031 468.128906 410.066406 468.128906 C 411.019531 468.128906 411.300781 468.058594 411.960938 467.722656 C 412.382812 467.496094 413.152344 466.894531 413.660156 466.386719 C 415.328125 464.703125 416.214844 462.628906 417.070312 458.347656 C 417.378906 456.804688 417.6875 455.65625 417.910156 455.222656 C 418.109375 454.828125 418.710938 453.003906 419.246094 451.152344 C 422.640625 439.410156 424.804688 434.722656 429 429.980469 C 430.152344 428.707031 432.578125 426.628906 434.320312 425.4375 C 438.375 422.6875 442.179688 420.933594 449.996094 418.183594 C 461.914062 414.015625 466.292969 412.261719 472.664062 409.121094 C 484.496094 403.285156 493.03125 396.257812 498.96875 387.460938 C 505.355469 378.003906 507.8125 368.898438 508.542969 351.964844 C 508.722656 347.800781 508.640625 334.90625 508.386719 329.027344 C 507.277344 302.332031 505.917969 286.980469 503.824219 277.539062 C 501.609375 267.496094 497.816406 259.105469 490.660156 248.414062 C 485.425781 240.574219 481.003906 235.085938 471.402344 224.441406 C 463.808594 216.007812 461.339844 212.867188 459.527344 209.273438 C 458.238281 206.71875 457.984375 205.105469 458.644531 203.773438 C 459.050781 202.945312 459.640625 202.425781 460.902344 201.796875 C 463.09375 200.703125 466.070312 200.195312 470.417969 200.210938 C 473.746094 200.210938 476.117188 200.421875 482.070312 201.234375 C 492.105469 202.597656 495.039062 202.667969 499.054688 201.640625 C 501.691406 200.953125 503.445312 200.167969 508.175781 197.503906 C 514.816406 193.773438 517.355469 192.816406 521.371094 192.578125 C 525.960938 192.3125 534.71875 194.09375 543.660156 197.140625 C 554.046875 200.675781 558.636719 203.832031 558.636719 207.421875 C 558.636719 210.355469 555.925781 213.761719 547.898438 220.933594 C 537.089844 230.570312 531.449219 236.421875 526.242188 243.363281 C 521.3125 249.957031 518.03125 256.273438 516.175781 262.738281 C 514.28125 269.347656 513.582031 276.109375 513.582031 287.921875 C 513.582031 298.613281 514.128906 310.355469 515.265625 324.117188 C 517.539062 351.472656 520.234375 364.464844 526.210938 376.796875 C 529.382812 383.347656 532.949219 388.496094 537.371094 392.945312 C 540.332031 395.917969 542.914062 398.023438 547.195312 400.941406 C 548.207031 401.628906 549.554688 402.597656 550.214844 403.117188 C 551.882812 404.40625 557.105469 408.039062 559.125 409.304688 C 562.875 411.660156 567.507812 413.90625 572.8125 415.9375 C 574.160156 416.457031 578.929688 418.097656 583.410156 419.585938 C 592.28125 422.53125 595.015625 423.515625 597.585938 424.636719 C 601.597656 426.417969 603.632812 427.921875 604.800781 429.941406 C 606.457031 432.84375 606.679688 439.453125 605.25 443.617188 C 604.671875 445.261719 604.070312 446.214844 602.707031 447.589844 C 599.324219 450.984375 594.273438 452.808594 584.179688 454.296875 C 573.484375 455.867188 559.226562 457.214844 535.054688 458.9375 C 492.191406 461.996094 476.863281 463.316406 441.367188 467.003906 C 428.257812 468.367188 423.695312 468.828125 415.539062 469.601562 C 406.726562 470.441406 403.890625 470.765625 401.152344 471.226562 C 396.296875 472.042969 393.628906 473.148438 391.847656 475.058594 C 390.863281 476.125 390.359375 477.121094 389.515625 479.675781 C 388.238281 483.546875 387.679688 484.148438 382.539062 487.082031 C 381.234375 487.824219 379.621094 488.808594 378.949219 489.269531 C 376.421875 490.996094 374.738281 493.070312 373.980469 495.359375 C 373.601562 496.507812 373.570312 496.761719 373.570312 498.640625 C 373.585938 500.410156 373.628906 500.859375 373.964844 502.050781 C 374.988281 505.78125 376.632812 508.210938 378.878906 509.304688 C 380.449219 510.0625 381.304688 510.214844 384.097656 510.214844 C 387.46875 510.214844 388.28125 510.101562 402.207031 507.972656 C 417.828125 505.570312 426.082031 504.503906 438.980469 503.214844 C 463.792969 500.730469 496.089844 498.597656 523.265625 497.660156 C 542.144531 497.015625 551.503906 496.886719 582.636719 496.902344 C 615.496094 496.914062 627.046875 497.054688 630.007812 497.503906 C 636.675781 498.515625 639.691406 498.894531 643.554688 499.203125 C 644.589844 499.285156 646.417969 499.539062 647.582031 499.777344 C 653.53125 500.914062 657.027344 499.679688 657.027344 496.425781 C 657.027344 494.25 655.554688 491.078125 653.53125 488.933594 C 650.515625 485.71875 646.824219 484.527344 637.9375 483.898438 C 634.582031 483.660156 600.433594 483.558594 589.023438 483.757812 C 569.808594 484.09375 562.058594 484.527344 535.335938 486.785156 C 495.304688 490.167969 469.042969 491.90625 444.945312 492.777344 C 437.984375 493.03125 409.449219 493.03125 407.132812 492.777344 C 404.605469 492.511719 403.59375 492.246094 402.992188 491.695312 L 402.484375 491.234375 L 402.445312 489.804688 C 402.375 488.007812 402.753906 486.253906 403.550781 484.597656 C 406.007812 479.519531 413.363281 477.863281 437.996094 476.867188 C 440.886719 476.757812 446.796875 476.714844 456.875 476.757812 C 487.796875 476.882812 575.128906 476.585938 580.8125 476.347656 C 595.871094 475.691406 605.910156 474.734375 610.777344 473.472656 C 613.292969 472.828125 616.125 471.945312 616.882812 471.59375 C 618.484375 470.847656 619.789062 469.109375 621.136719 465.925781 C 624.476562 458.082031 625.503906 447.910156 624.167969 435.648438 C 622.597656 421.085938 617.992188 403.761719 611.945312 389.5625 C 607.355469 378.789062 601.050781 368.113281 592.742188 357.015625 C 585.246094 347.011719 578.902344 340.082031 568.179688 330.21875 C 557.511719 320.398438 552.570312 314.941406 546.789062 306.59375 C 541.554688 299.035156 537.988281 292.3125 536.527344 287.207031 C 535.660156 284.191406 535.460938 282.773438 535.335938 278.664062 L 535.238281 274.945312 L 535.757812 272.839844 C 537.835938 264.5625 542.535156 256.511719 552.683594 243.84375 C 554.128906 242.046875 558.074219 237.261719 561.441406 233.207031 C 571.015625 221.703125 573.835938 218.167969 578.734375 211.601562 C 598.792969 184.679688 612.167969 155.386719 615.605469 130.78125 C 615.777344 129.585938 615.984375 128.648438 616.167969 128.3125 C 616.464844 127.722656 617.25 124.746094 617.683594 122.585938 C 618.023438 120.875 618.023438 116.933594 617.683594 115.136719 C 617.277344 112.949219 616.378906 110.480469 614.90625 107.503906 C 614.132812 105.976562 613.515625 104.65625 613.515625 104.585938 C 613.515625 104.515625 614.0625 104.125 614.75 103.71875 C 615.550781 103.226562 616.433594 102.496094 617.320312 101.628906 C 618.429688 100.519531 618.765625 100.070312 619.242188 99.089844 C 620.070312 97.40625 620.296875 96.394531 620.296875 94.402344 L 620.296875 92.734375 L 621.433594 92.832031 C 628.984375 93.433594 633.335938 92.746094 635.453125 90.613281 C 636.957031 89.113281 637.445312 87.640625 637.433594 84.636719 C 637.417969 81.609375 636.632812 77.566406 635.074219 72.558594 C 632.140625 63.089844 629.40625 60.84375 618.710938 59.117188 C 613.558594 58.277344 608.882812 57.8125 590.875 56.300781 C 577.21875 55.164062 572.011719 54.6875 558.636719 53.351562 C 536.207031 51.121094 527.476562 50.503906 512.316406 50.125 C 507.683594 50.015625 487.558594 49.984375 481.296875 50.082031 Z M 507.335938 52.792969 C 526.589844 53.085938 535.292969 53.605469 557.863281 55.820312 C 569.148438 56.929688 576.308594 57.574219 587.621094 58.542969 C 608.96875 60.367188 615.539062 61.082031 620.84375 62.191406 C 624.871094 63.019531 626.890625 63.902344 628.492188 65.503906 C 629.335938 66.34375 629.628906 66.792969 630.273438 68.113281 C 631.652344 70.917969 633.726562 77.847656 634.375 81.761719 C 634.710938 83.808594 634.710938 86.292969 634.386719 87.246094 C 633.503906 89.816406 630.375 90.671875 623.410156 90.25 C 619.410156 90.011719 619.734375 90.152344 619.242188 88.636719 C 618.710938 86.96875 617.472656 84.414062 616.644531 83.261719 C 613.78125 79.238281 610.0625 77.890625 599.339844 76.9375 C 585.175781 75.671875 562.945312 74.746094 543.125 74.59375 C 513.117188 74.339844 482.6875 75.996094 450.726562 79.585938 C 422.867188 82.730469 403.929688 86.25 386.273438 91.570312 C 383.847656 92.296875 381.332031 93.027344 380.6875 93.195312 C 376.703125 94.207031 374.429688 93.671875 372.8125 91.371094 C 372.027344 90.265625 371.480469 89.027344 370.988281 87.277344 C 370.230469 84.566406 370.0625 83.179688 370.078125 79.867188 C 370.078125 76.429688 370.257812 75.492188 371.214844 73.554688 C 371.859375 72.265625 373.867188 70.175781 375.464844 69.136719 C 385.515625 62.570312 414.542969 56.398438 446.277344 54.066406 C 461.648438 52.933594 484.738281 52.453125 507.335938 52.792969 Z M 544.390625 85.199219 C 562.789062 85.703125 574.917969 86.8125 602.566406 90.53125 C 607.085938 91.132812 612.140625 91.808594 613.796875 92.003906 C 615.453125 92.214844 616.855469 92.453125 616.914062 92.535156 C 617.125 92.875 617.195312 94.570312 617.039062 95.554688 C 616.828125 96.957031 616.308594 97.964844 615.226562 99.117188 C 614.34375 100.054688 612.210938 101.613281 611.816406 101.613281 C 611.707031 101.613281 611.199219 101.023438 610.707031 100.308594 C 607.621094 95.917969 604.433594 94.527344 595.058594 93.492188 C 588.699219 92.773438 581.570312 92.496094 570.144531 92.496094 C 557.808594 92.496094 548.710938 92.832031 535.546875 93.769531 C 520.640625 94.824219 509.707031 95.945312 472.59375 100.210938 C 461.898438 101.445312 448.128906 103.015625 441.996094 103.71875 C 428.902344 105.203125 418.949219 106.382812 410.246094 107.4375 C 398.894531 108.824219 396 109.019531 393.785156 108.558594 C 392.269531 108.234375 390.933594 107.519531 389.964844 106.480469 C 387.550781 103.898438 387.972656 101.613281 391.199219 99.71875 C 397.742188 95.890625 414.136719 93.125 450.839844 89.617188 C 477.972656 87.035156 501.296875 85.59375 522.492188 85.15625 C 527.417969 85.058594 539.980469 85.085938 544.390625 85.199219 Z M 611.296875 107.085938 C 611.664062 107.746094 612.292969 109.007812 612.703125 109.890625 L 613.445312 111.503906 L 613.445312 116.976562 C 613.445312 119.976562 613.503906 123.960938 613.570312 125.8125 C 613.683594 129.109375 613.683594 129.222656 613.320312 131.242188 C 609.726562 151.222656 599.648438 174.269531 584.953125 196.171875 C 578.1875 206.242188 572.375 213.707031 559.265625 229.140625 C 550.4375 239.535156 547.476562 243.15625 543.871094 247.996094 C 536.25 258.207031 532.359375 266.234375 531.238281 274.101562 C 530.972656 275.984375 531.011719 280.066406 531.320312 282.238281 C 531.730469 285.199219 532.347656 288.089844 532.824219 289.269531 C 533.0625 289.886719 533.511719 291.09375 533.820312 291.976562 C 536.429688 299.523438 543.183594 310.296875 551 319.417969 C 553.359375 322.167969 559.394531 328.199219 564.320312 332.757812 C 575.210938 342.804688 581.527344 349.734375 589.191406 360.03125 C 600.421875 375.140625 607.707031 388.890625 613.164062 405.277344 C 615.523438 412.363281 617.472656 419.671875 618.976562 426.992188 C 622.105469 442.285156 622.316406 454.085938 619.636719 463.863281 C 618.820312 466.808594 618.695312 467.074219 617.488281 468.199219 C 615.480469 470.0625 612.40625 471.242188 607.621094 471.972656 C 600.433594 473.066406 588.476562 473.90625 575.6875 474.214844 C 568.644531 474.398438 470.730469 474.300781 458.558594 474.117188 C 435.414062 473.753906 418.5 474.734375 410.304688 476.910156 C 405.953125 478.0625 403.382812 479.632812 401.699219 482.199219 C 400.308594 484.316406 399.550781 487.09375 399.636719 489.804688 C 399.679688 491.304688 399.707031 491.488281 400.140625 492.371094 C 401.167969 494.433594 402.824219 495.0625 408.382812 495.441406 C 412.058594 495.695312 440.59375 495.695312 447.332031 495.441406 C 461.957031 494.910156 473.578125 494.292969 491.753906 493.101562 C 508.992188 491.964844 517.171875 491.347656 540.460938 489.453125 C 560.011719 487.867188 568.082031 487.375 581.164062 486.96875 C 589.21875 486.730469 628.871094 486.730469 634.148438 486.96875 C 645.6875 487.503906 649.390625 488.582031 651.890625 492.089844 C 653 493.660156 653.910156 495.808594 653.742188 496.46875 C 653.671875 496.734375 653.492188 496.859375 652.957031 497.015625 C 651.582031 497.421875 650.765625 497.433594 648.816406 497.042969 C 646.429688 496.578125 643.59375 496.1875 640.816406 495.917969 C 639.582031 495.792969 637.277344 495.570312 635.691406 495.414062 C 634.105469 495.261719 631.550781 495.105469 630.007812 495.0625 C 628.464844 495.023438 625.683594 494.9375 623.832031 494.855469 C 618.203125 494.613281 605.699219 494.292969 591.199219 493.984375 C 580.039062 493.746094 542.535156 493.746094 534.074219 493.984375 C 512.078125 494.585938 494.644531 495.457031 472.734375 497.027344 C 442.644531 499.203125 425.855469 501.054688 400.800781 504.941406 C 388.097656 506.917969 386.21875 507.128906 383.230469 507.03125 C 381.011719 506.945312 380.085938 506.636719 379.117188 505.671875 C 377.417969 503.957031 376.253906 499.945312 376.714844 497.449219 C 376.953125 496.160156 377.628906 494.9375 378.679688 493.871094 C 379.804688 492.75 381.261719 491.765625 384.167969 490.222656 C 390.441406 486.855469 391.636719 485.539062 393.027344 480.304688 C 393.265625 479.394531 393.613281 478.371094 393.785156 478.019531 C 394.710938 476.179688 397.136719 475.03125 401.742188 474.246094 C 404.226562 473.808594 407.414062 473.472656 418.417969 472.476562 C 423.933594 471.984375 434.164062 471.03125 441.15625 470.386719 C 473.144531 467.371094 487.910156 466.191406 527.054688 463.5 C 554.875 461.589844 563.941406 460.777344 578.425781 458.9375 C 590.566406 457.394531 595.675781 456.246094 600.308594 454.015625 C 606.21875 451.179688 609.164062 447.363281 610.089844 441.332031 C 610.386719 439.480469 610.386719 435.609375 610.089844 433.757812 C 609.488281 429.773438 607.945312 426.824219 605.417969 424.804688 C 602.21875 422.265625 598.820312 420.75 587.832031 417.003906 C 576.277344 413.050781 572.40625 411.546875 566.144531 408.519531 C 559.253906 405.191406 552.867188 401.445312 547.140625 397.378906 C 539.222656 391.765625 534.4375 386.195312 530.003906 377.429688 C 524.429688 366.402344 521.425781 354.742188 519.136719 335.199219 C 517.171875 318.503906 516.203125 303.128906 516.191406 288.625 C 516.175781 279.113281 516.402344 275.324219 517.3125 269.824219 C 519.027344 259.5 523.628906 250.296875 532.304688 239.886719 C 536.710938 234.597656 540.753906 230.597656 548.671875 223.667969 C 555.882812 217.367188 558.945312 213.933594 560.234375 210.734375 C 561.148438 208.417969 561.078125 206.441406 559.996094 204.378906 C 559.40625 203.253906 557.105469 200.96875 555.519531 199.929688 C 549.300781 195.832031 536.007812 190.953125 526.703125 189.339844 C 525.664062 189.15625 524.5 189.101562 522.210938 189.101562 C 519.363281 189.101562 519 189.128906 517.582031 189.464844 C 514.589844 190.167969 511.839844 191.386719 506.957031 194.179688 C 498.28125 199.128906 496.273438 199.46875 484.175781 197.925781 C 477.3125 197.054688 475.65625 196.886719 472.386719 196.789062 C 463.261719 196.492188 457.042969 198.820312 455.753906 203.003906 C 455.148438 204.9375 455.472656 206.960938 456.789062 209.707031 C 458.515625 213.273438 461.183594 216.722656 468.664062 225.070312 C 478.210938 235.707031 482.855469 241.527344 488.132812 249.425781 C 494.96875 259.667969 498.675781 267.523438 500.808594 276.347656 C 502.96875 285.214844 504.191406 298.148438 505.160156 322.082031 C 505.621094 333.785156 505.691406 347.855469 505.3125 353.4375 C 504.695312 362.25 503.671875 368.308594 501.859375 373.695312 C 498.226562 384.613281 489.875 394.417969 478.027344 401.699219 C 471.109375 405.949219 463.65625 409.246094 450.558594 413.835938 C 442.710938 416.585938 438.109375 418.578125 434.515625 420.75 C 430.039062 423.457031 426.460938 426.796875 423.765625 430.738281 C 420.605469 435.371094 418.207031 441.808594 417.082031 448.683594 C 416.703125 451.039062 414.402344 460.371094 413.839844 461.855469 C 412.984375 464.144531 411.316406 465.953125 410.050781 465.953125 C 408.605469 465.953125 407.117188 463.835938 406.023438 460.1875 C 405.011719 456.863281 404.660156 453.832031 404.5625 447.785156 C 404.351562 435.46875 405.785156 418.914062 407.902344 408.9375 C 410.695312 395.820312 415.835938 384.066406 424.367188 371.269531 C 430.964844 361.363281 436.832031 354.703125 449.367188 342.847656 C 457.210938 335.425781 461.957031 330.640625 466.054688 326.027344 C 477.3125 313.355469 484.695312 301.515625 487.460938 291.722656 C 488.089844 289.507812 488.527344 287.066406 488.722656 284.625 C 488.890625 282.675781 488.808594 277.089844 488.582031 275.15625 C 487.980469 269.894531 486.253906 265.011719 483.148438 259.863281 C 479.613281 253.972656 474.996094 248.835938 466.40625 241.261719 C 465.28125 240.265625 462.265625 237.597656 459.710938 235.339844 C 446.851562 223.992188 439.539062 216.78125 433.351562 209.359375 C 424.15625 198.34375 417 185.886719 410.316406 169.304688 C 404.746094 155.445312 401.617188 143.6875 398.753906 125.703125 L 398.148438 121.929688 L 398.554688 121.140625 C 399.074219 120.160156 400.367188 118.769531 401.390625 118.082031 C 403.917969 116.414062 408.621094 115.304688 416.800781 114.464844 C 425.644531 113.550781 440.242188 112.585938 452.171875 112.136719 C 461.605469 111.769531 468.652344 111.6875 498.84375 111.574219 C 516.554688 111.503906 532.261719 111.40625 533.722656 111.363281 C 535.195312 111.320312 539.449219 111.222656 543.195312 111.152344 C 570.902344 110.578125 593.90625 109.160156 603.875 107.421875 C 605.753906 107.097656 609.09375 106.285156 609.867188 105.976562 C 610.0625 105.90625 610.316406 105.851562 610.429688 105.863281 C 610.539062 105.878906 610.933594 106.425781 611.296875 107.085938 Z M 611.296875 107.085938 " fill-opacity="1" fill-rule="nonzero"/></g></svg>