<svg xmlns="http://www.w3.org/2000/svg" xmlns:xlink="http://www.w3.org/1999/xlink" width="1366" zoomAndPan="magnify" viewBox="0 0 1024.5 576" height="768" preserveAspectRatio="xMidYMid meet" version="1.0"><metadata><ContainsAiGeneratedContent>Yes</ContainsAiGeneratedContent></metadata><defs><clipPath id="d15ca0b624"><path d="M 224.996094 93.039062 L 465.398438 93.039062 L 465.398438 559 L 224.996094 559 Z M 224.996094 93.039062 " clip-rule="nonzero"/></clipPath><clipPath id="31e78125a4"><path d="M 529.929688 101.238281 L 673.269531 101.238281 L 673.269531 558.3125 L 529.929688 558.3125 Z M 529.929688 101.238281 " clip-rule="nonzero"/></clipPath></defs><g clip-path="url(#d15ca0b624)"><path fill="#000000" d="M 465.082031 514.730469 C 460.796875 508.179688 457.480469 501.0625 454.410156 493.867188 C 446.808594 475.996094 440.660156 457.558594 434.433594 439.199219 C 427.886719 419.792969 421.980469 400.222656 417.371094 380.332031 C 413.003906 361.410156 409.449219 342.324219 406.457031 323.160156 C 403.464844 303.589844 400.308594 284.019531 396.75 264.53125 C 394.164062 250.140625 391.171875 235.824219 387.613281 221.675781 C 383.328125 204.53125 376.210938 188.683594 367.722656 173.316406 C 366.914062 171.78125 366.347656 171.699219 364.890625 172.671875 C 364 173.316406 363.113281 173.964844 362.304688 174.773438 C 361.65625 175.339844 361.171875 175.742188 360.199219 175.257812 C 358.828125 174.609375 357.371094 174.691406 355.996094 175.257812 C 354.945312 175.742188 354.054688 175.582031 353.085938 174.933594 C 348.070312 171.621094 338.609375 172.183594 334.648438 178.734375 C 333.03125 181.402344 331.492188 184.074219 330.121094 186.902344 C 325.753906 196.121094 322.921875 205.90625 320.578125 215.769531 C 311.601562 252.324219 306.101562 289.4375 303.839844 327.042969 C 302.867188 343.539062 301.65625 360.035156 300.523438 376.53125 C 299.632812 389.710938 298.582031 402.8125 297.613281 415.992188 C 296.480469 431.355469 295.265625 446.722656 294.132812 462.085938 C 293.246094 473.890625 292.273438 485.699219 291.386719 497.421875 C 290.65625 507.289062 290.011719 517.15625 289.28125 527.101562 C 289.203125 528.476562 289.121094 529.929688 288.636719 531.304688 C 287.988281 531.226562 287.585938 531.144531 287.097656 531.0625 C 282.570312 530.175781 279.09375 528.070312 277.636719 523.382812 C 277.070312 521.441406 275.535156 520.148438 273.675781 519.5 C 271.898438 518.933594 270.117188 518.449219 268.257812 518.449219 C 266.722656 518.449219 265.183594 518.367188 263.730469 518.207031 C 260.898438 517.964844 258.230469 517.15625 255.804688 515.617188 C 253.78125 514.40625 253.78125 514.40625 254.589844 512.304688 C 255.320312 510.199219 256.128906 508.097656 256.613281 505.914062 C 258.472656 498.070312 260.414062 490.226562 262.03125 482.382812 C 266.882812 459.820312 270.277344 436.9375 273.433594 414.050781 C 276.019531 395.050781 278.445312 376.046875 280.46875 356.960938 C 281.519531 346.933594 282.570312 336.90625 283.542969 326.878906 C 285.078125 310.867188 286.695312 294.9375 288.796875 279.007812 C 291.222656 261.460938 294.378906 244.15625 298.984375 227.09375 C 302.542969 213.992188 306.832031 201.214844 312.8125 189.085938 C 315.726562 183.183594 318.960938 177.523438 323.972656 173.074219 C 324.296875 172.75 324.457031 172.429688 324.296875 172.023438 C 324.136719 171.621094 323.648438 171.621094 323.328125 171.539062 C 322.761719 171.457031 322.195312 172.105469 321.386719 171.78125 C 321.628906 169.355469 322.03125 167.011719 321.628906 164.585938 C 321.304688 162.320312 320.980469 159.976562 320.335938 157.792969 C 319.929688 156.335938 319.929688 156.253906 321.464844 155.851562 C 323.570312 155.285156 325.671875 154.800781 327.691406 154.234375 C 328.339844 154.070312 329.472656 154.152344 329.3125 153.183594 C 329.230469 152.375 328.179688 152.453125 327.449219 152.535156 C 327.046875 152.535156 326.640625 152.617188 326.238281 152.695312 C 323.8125 153.019531 321.546875 153.667969 319.363281 154.636719 C 318.554688 154.960938 317.910156 155.121094 317.179688 154.558594 C 311.359375 150.269531 306.183594 145.5 304.324219 138.058594 C 303.839844 136.121094 303.273438 134.179688 302.140625 132.480469 C 301.492188 131.511719 301.734375 130.945312 302.382812 130.214844 C 304.890625 127.222656 306.832031 123.988281 308.367188 120.433594 C 309.257812 118.410156 309.984375 116.226562 310.875 114.207031 C 312.410156 110.566406 314.917969 107.65625 318.230469 105.632812 C 319.203125 104.988281 320.253906 104.421875 321.871094 104.421875 C 320.578125 105.308594 319.527344 106.039062 318.554688 106.683594 C 316.613281 108.058594 315.96875 109.839844 316.453125 112.101562 C 317.019531 115.09375 318.554688 117.601562 320.171875 120.109375 C 323.570312 125.527344 327.855469 130.296875 331.898438 135.3125 C 332.546875 136.121094 333.191406 136.929688 334 137.816406 C 336.992188 133.855469 339.984375 130.460938 342.894531 126.980469 C 348.394531 120.59375 354.21875 114.527344 361.574219 110.242188 C 363.191406 109.273438 364.890625 108.222656 366.507812 107.25 C 369.984375 105.066406 373.300781 102.722656 375.726562 99.40625 C 377.667969 96.738281 380.578125 95.605469 383.488281 94.554688 C 384.460938 94.152344 385.105469 94.472656 385.671875 95.363281 C 386.726562 97.0625 388.019531 98.679688 388.90625 100.378906 C 391.011719 104.257812 393.839844 107.414062 397.5625 109.757812 C 399.097656 110.726562 400.550781 111.941406 401.605469 113.476562 C 401.925781 113.960938 402.492188 114.449219 402.25 115.175781 C 395.054688 117.359375 389.878906 121.320312 385.59375 127.710938 C 384.460938 129.40625 383.246094 130.945312 382.035156 132.480469 C 375.402344 140.40625 367.316406 146.875 359.230469 153.261719 C 357.9375 154.3125 356.644531 154.476562 355.027344 154.152344 C 347.828125 152.535156 340.46875 152.132812 333.109375 152.453125 C 332.222656 152.453125 331.25 152.535156 330.441406 153.425781 C 336.507812 153.75 342.328125 153.992188 348.152344 154.878906 C 353.410156 155.609375 358.664062 156.660156 363.679688 158.601562 C 365.617188 159.328125 367.480469 160.21875 369.015625 161.671875 C 365.78125 166.847656 365.296875 168.304688 366.347656 170.246094 C 367.722656 167.65625 369.015625 165.230469 370.226562 162.722656 C 370.632812 161.835938 370.390625 161.027344 369.664062 160.296875 C 369.097656 159.652344 368.125 159.410156 367.800781 158.4375 C 368.773438 158.113281 369.664062 157.710938 370.550781 157.546875 C 372.332031 157.144531 373.625 156.09375 374.757812 154.636719 C 377.910156 150.269531 381.144531 145.984375 384.296875 141.699219 C 384.785156 141.050781 385.511719 140.484375 385.269531 139.597656 C 385.027344 138.789062 384.136719 139.191406 383.652344 138.949219 C 381.710938 137.898438 381.226562 136.28125 382.4375 134.582031 C 383.246094 133.371094 383.976562 132.15625 384.863281 131.023438 C 386.644531 128.597656 388.746094 126.578125 391.496094 125.363281 C 392.707031 124.878906 394.003906 124.394531 395.054688 125.445312 C 396.105469 126.414062 395.539062 127.546875 395.132812 128.519531 C 394.890625 129.164062 394.648438 129.8125 395.214844 130.296875 C 395.78125 130.78125 396.429688 130.539062 397.074219 130.296875 C 397.722656 130.054688 398.289062 129.488281 398.773438 129.003906 C 401.28125 126.09375 403.058594 122.859375 404.351562 119.300781 C 404.917969 117.761719 404.839844 116.308594 403.789062 114.769531 C 402.332031 112.75 400.714844 110.890625 398.53125 109.597656 C 395.539062 107.734375 393.355469 105.148438 391.820312 101.996094 C 391.089844 100.457031 390.363281 99.003906 389.636719 97.464844 C 389.070312 96.414062 388.34375 95.445312 387.453125 94.636719 C 386.320312 93.585938 385.105469 93.261719 383.652344 93.746094 C 380.253906 94.878906 377.101562 96.253906 374.917969 99.324219 C 372.976562 102.15625 370.308594 104.257812 367.480469 105.957031 C 365.78125 107.007812 364.082031 107.980469 362.304688 109.03125 C 354.703125 113.398438 347.667969 118.410156 341.765625 125.042969 C 339.257812 127.871094 336.910156 130.78125 334.648438 133.773438 C 334.324219 134.257812 334.082031 134.988281 333.191406 135.070312 C 328.90625 128.921875 323.8125 123.425781 319.527344 117.195312 C 318.636719 115.984375 317.988281 114.609375 317.503906 113.152344 C 316.777344 110.808594 317.667969 108.625 319.847656 107.492188 C 321.546875 106.605469 323.328125 105.875 325.1875 105.472656 C 325.914062 105.308594 327.207031 105.550781 327.128906 104.257812 C 327.046875 103.125 325.914062 103.125 325.105469 103.046875 C 324.378906 102.964844 323.648438 102.964844 322.921875 102.964844 C 319.769531 103.207031 317.101562 104.582031 314.753906 106.683594 C 312.410156 108.867188 310.550781 111.457031 309.335938 114.449219 C 306.75 120.917969 303.59375 127.0625 298.90625 132.398438 C 300.847656 133.289062 301.167969 135.070312 301.574219 136.765625 C 302.707031 141.699219 305.132812 145.984375 308.527344 149.703125 C 311.035156 152.453125 313.785156 154.800781 317.019531 156.660156 C 317.828125 157.0625 318.554688 157.546875 318.71875 158.519531 C 319.769531 163.210938 320.414062 167.980469 319.769531 172.75 C 319.6875 173.398438 319.445312 173.964844 318.960938 174.449219 C 314.109375 179.300781 310.792969 185.285156 307.882812 191.429688 C 302.382812 202.996094 298.5 215.207031 295.429688 227.660156 C 291.871094 241.730469 289.363281 255.960938 287.339844 270.273438 C 285.722656 281.839844 284.351562 293.402344 283.296875 305.046875 C 282.652344 312.40625 281.921875 319.683594 281.277344 327.042969 C 280.386719 336.097656 279.578125 345.15625 278.609375 354.210938 C 277.960938 360.195312 277.636719 366.179688 276.507812 372.082031 C 273.59375 387.042969 269.875 401.839844 265.671875 416.558594 C 257.179688 445.992188 243.59375 472.839844 224.996094 497.425781 C 228.714844 501.304688 233.972656 502.679688 238.984375 504.460938 C 244.160156 506.238281 249.496094 505.832031 254.914062 505.753906 C 254.347656 508.503906 253.296875 510.847656 252.488281 513.273438 C 251.84375 515.132812 252.003906 515.78125 253.703125 516.832031 C 255.15625 517.722656 256.695312 518.285156 258.3125 518.773438 C 260.816406 519.5 263.324219 519.742188 265.832031 520.226562 C 268.582031 520.714844 271.332031 521.199219 273.917969 522.332031 C 275.050781 522.816406 276.019531 523.460938 276.183594 524.917969 C 276.667969 529.367188 279.578125 531.550781 283.378906 532.921875 C 284.996094 533.488281 286.613281 533.652344 288.394531 533.8125 C 288.394531 534.378906 288.3125 534.539062 288.3125 534.785156 C 287.988281 537.210938 287.746094 537.046875 290.414062 538.261719 C 290.578125 538.339844 290.738281 538.339844 290.898438 538.421875 C 297.855469 540.203125 304.890625 541.820312 312.167969 540.765625 C 315.320312 540.28125 318.554688 540.203125 321.546875 538.988281 C 322.597656 538.585938 323.085938 538.019531 323.085938 536.886719 C 323.085938 535.914062 323.085938 534.945312 323.164062 533.976562 C 323.246094 532.035156 323.246094 532.035156 325.105469 531.792969 C 326.480469 531.628906 327.773438 531.304688 329.066406 530.820312 C 330.605469 530.253906 331.65625 529.367188 331.574219 527.503906 C 331.492188 526.535156 331.738281 525.566406 331.816406 524.675781 C 331.980469 517.234375 332.140625 509.796875 332.382812 502.355469 C 332.546875 495.160156 333.191406 487.960938 332.789062 480.765625 C 332.382812 472.597656 331.898438 464.511719 331.492188 456.34375 C 331.007812 446.722656 330.441406 437.019531 330.039062 427.394531 C 329.472656 412.433594 329.066406 397.554688 328.503906 382.597656 C 328.339844 376.773438 328.097656 370.953125 327.773438 365.128906 C 327.289062 356.316406 326.722656 347.582031 326.640625 338.765625 C 326.480469 325.019531 327.289062 311.273438 329.3125 297.6875 C 331.171875 284.585938 334.40625 271.8125 338.367188 259.277344 C 338.527344 258.628906 338.609375 257.984375 339.417969 257.496094 C 338.207031 267.6875 338.367188 277.796875 338.691406 287.820312 C 338.933594 296.152344 339.582031 304.398438 339.902344 312.730469 C 340.632812 328.820312 341.441406 344.992188 342.007812 361.167969 C 342.410156 374.1875 342.894531 387.207031 342.894531 400.222656 C 342.894531 420.117188 342.25 440.011719 341.035156 459.902344 C 340.390625 471.222656 339.5 482.542969 338.449219 493.867188 C 336.992188 508.90625 334.890625 523.867188 332.625 538.746094 C 332.546875 539.230469 332.300781 539.714844 332.949219 539.957031 C 333.757812 539.796875 334.242188 539.070312 334.808594 538.585938 C 337.800781 535.996094 341.359375 535.835938 344.511719 538.019531 C 345.886719 538.988281 346.859375 540.203125 346.617188 541.980469 C 346.375 543.757812 347.261719 544.8125 348.71875 545.699219 C 352.355469 547.722656 356.238281 548.289062 360.28125 547.882812 C 364.246094 547.480469 367.882812 546.105469 371.199219 543.921875 C 373.949219 542.140625 376.617188 540.28125 379.445312 538.585938 C 382.035156 536.96875 384.785156 535.996094 387.855469 536.160156 C 392.222656 536.402344 394.246094 539.3125 392.789062 543.4375 C 392.144531 545.132812 391.496094 546.914062 391.171875 548.691406 C 390.769531 551.039062 391.496094 552.976562 393.355469 554.433594 C 394.972656 555.726562 396.914062 556.617188 398.855469 557.265625 C 406.535156 559.769531 413.492188 558.234375 419.960938 553.707031 C 420.445312 553.382812 420.769531 552.734375 421.496094 552.816406 C 422.789062 556.292969 423.355469 556.617188 426.996094 555.890625 C 429.746094 555.402344 432.414062 554.515625 435 553.382812 C 438.800781 551.683594 441.710938 549.175781 443.574219 545.375 C 445.027344 542.222656 445.027344 538.828125 444.542969 535.511719 C 444.382812 534.136719 444.21875 532.84375 444.140625 531.46875 C 444.058594 529.203125 445.109375 527.667969 447.050781 526.617188 C 448.75 525.644531 450.609375 525.242188 452.546875 525 C 453.519531 524.917969 454.410156 524.511719 455.054688 525.726562 C 455.296875 526.210938 455.863281 526.132812 456.347656 525.96875 C 459.746094 524.351562 462.898438 522.25 465.082031 519.015625 C 466.054688 517.15625 465.972656 516.023438 465.082031 514.730469 Z M 383.167969 140 C 379.527344 144.691406 376.453125 149.542969 373.464844 154.394531 C 373.21875 154.800781 372.898438 155.121094 372.410156 155.285156 C 372.167969 155.367188 372.007812 155.445312 371.765625 155.527344 C 369.742188 155.929688 368.125 157.953125 366.023438 157.226562 C 364.082031 156.578125 362.140625 155.769531 359.878906 154.878906 C 367.398438 149.703125 374.351562 144.207031 380.253906 137.332031 C 381.0625 138.464844 381.871094 139.433594 383.167969 140 Z M 396.347656 129.085938 C 396.996094 123.988281 396.347656 123.179688 391.738281 122.9375 C 393.679688 119.625 398.371094 116.953125 402.980469 116.550781 C 402.492188 120.109375 398.125 128.113281 396.347656 129.085938 Z M 253.539062 502.761719 C 252.730469 502.839844 251.921875 502.921875 251.113281 502.921875 C 245.050781 502.84375 239.226562 501.789062 233.484375 499.769531 C 231.140625 498.878906 229.117188 497.585938 227.097656 495.886719 C 228.875 493.785156 230.65625 491.683594 232.273438 489.5 C 247.3125 468.472656 259.28125 445.992188 266.316406 420.925781 C 269.148438 410.980469 271.734375 401.03125 274 391.003906 C 274 390.84375 274.078125 390.761719 274.160156 390.601562 C 274.566406 392.785156 274.078125 395.050781 273.757812 397.230469 C 271.898438 411.789062 269.957031 426.34375 267.691406 440.898438 C 264.617188 460.628906 261.464844 480.363281 256.695312 499.769531 C 256.371094 501.710938 255.398438 502.597656 253.539062 502.761719 Z M 334.164062 536.078125 C 339.660156 504.621094 342.574219 473.40625 344.433594 442.191406 C 345.160156 473.324219 345.886719 504.460938 346.617188 536.078125 C 342.492188 532.761719 338.527344 532.679688 334.164062 536.078125 Z M 464.355469 516.992188 C 462.496094 519.660156 460.230469 521.84375 457.402344 523.460938 C 455.945312 524.269531 455.863281 524.269531 455.136719 522.734375 C 452.304688 517.074219 449.476562 511.496094 446.726562 505.753906 C 440.257812 492.410156 434.839844 478.664062 429.097656 465.078125 C 428.046875 462.570312 426.914062 460.0625 425.78125 457.636719 C 425.539062 457.152344 425.296875 456.667969 424.972656 456.183594 C 424.8125 455.859375 424.488281 455.777344 424.164062 455.941406 C 424.003906 456.019531 423.839844 456.34375 423.921875 456.507812 C 424.085938 457.152344 424.246094 457.71875 424.488281 458.367188 C 432.414062 479.550781 441.390625 500.335938 452.304688 520.148438 C 452.710938 520.875 453.277344 521.601562 453.4375 522.492188 C 452.792969 523.058594 452.0625 522.894531 451.335938 522.976562 C 449.800781 523.140625 448.34375 523.625 446.96875 524.269531 C 444.382812 525.484375 443.085938 527.503906 443.007812 530.335938 C 442.925781 531.710938 443.085938 533.003906 443.25 534.378906 C 444.21875 541.496094 441.710938 546.105469 435.164062 548.933594 C 431.441406 550.550781 427.5625 551.847656 423.679688 553.300781 C 422.789062 551.441406 422.710938 549.582031 422.46875 547.722656 C 419.394531 525 415.675781 502.355469 411.953125 479.796875 C 408.398438 458.042969 404.839844 436.289062 401.199219 414.539062 C 397.640625 392.945312 394.324219 371.273438 389.714844 349.84375 C 388.828125 345.640625 387.9375 341.433594 386.402344 337.3125 C 386.078125 336.339844 385.835938 335.289062 384.785156 334.722656 C 384.21875 335.207031 384.460938 335.773438 384.542969 336.261719 C 388.421875 352.269531 390.929688 368.523438 393.515625 384.777344 C 396.753906 404.671875 399.988281 424.566406 403.382812 444.375 C 406.214844 460.550781 408.960938 476.804688 411.710938 493.058594 C 414.785156 510.929688 417.9375 528.800781 421.09375 546.671875 C 421.414062 548.449219 421.171875 549.421875 419.554688 550.390625 C 417.292969 551.765625 415.109375 553.21875 412.601562 554.191406 C 408.234375 555.96875 403.949219 556.132812 399.664062 554.027344 C 393.515625 551.117188 393.355469 550.230469 394.324219 544.324219 C 394.488281 543.4375 394.570312 542.628906 394.730469 541.738281 C 395.296875 537.53125 392.789062 534.378906 388.503906 534.054688 C 386.238281 533.894531 384.054688 534.621094 382.035156 535.429688 C 379.527344 536.402344 377.507812 538.097656 375.324219 539.554688 C 369.175781 543.515625 362.546875 545.214844 355.1875 543.839844 C 352.921875 543.4375 351.0625 542.140625 349.042969 541.253906 C 348.394531 541.011719 348.394531 540.445312 348.394531 539.878906 C 348.394531 538.828125 348.394531 537.773438 348.394531 536.722656 C 348.636719 512.707031 348.152344 488.769531 347.828125 464.753906 C 347.425781 436.9375 346.9375 409.121094 346.292969 381.300781 C 345.96875 366.585938 345.402344 351.867188 344.675781 337.230469 C 343.867188 320.328125 342.652344 303.429688 341.683594 286.445312 C 341.277344 279.25 340.957031 272.054688 341.277344 264.855469 C 341.519531 259.679688 341.683594 254.503906 342.574219 249.332031 C 342.894531 247.632812 343.460938 245.933594 343.867188 244.234375 C 343.945312 243.75 344.191406 243.265625 343.703125 242.941406 C 343.136719 242.617188 342.652344 243.023438 342.25 243.425781 C 341.925781 243.832031 341.683594 244.234375 341.441406 244.558594 C 336.832031 250.785156 334 257.902344 331.492188 265.179688 C 327.773438 276.015625 325.589844 287.257812 323.8125 298.496094 C 322.195312 308.925781 321.144531 319.441406 320.578125 329.953125 C 320.171875 337.390625 320.011719 344.832031 319.847656 352.269531 C 319.445312 368.363281 319.6875 384.375 319.847656 400.464844 C 320.011719 414.617188 320.335938 428.769531 320.578125 442.921875 C 320.902344 459.011719 321.144531 475.023438 321.546875 491.117188 C 321.871094 505.1875 322.113281 519.257812 322.03125 533.328125 C 322.03125 533.730469 321.953125 534.136719 322.03125 534.539062 C 322.113281 535.671875 321.628906 536.238281 320.578125 536.644531 C 316.777344 538.019531 312.976562 539.070312 308.851562 538.828125 C 302.867188 538.421875 296.964844 537.53125 291.222656 535.671875 C 289.605469 535.1875 289.523438 535.105469 289.769531 533.328125 C 290.65625 524.027344 291.628906 514.730469 292.515625 505.429688 C 293.246094 497.503906 293.890625 489.5 294.621094 481.574219 C 295.429688 472.4375 296.15625 463.296875 296.882812 454.082031 C 297.53125 445.832031 298.257812 437.503906 298.90625 429.253906 C 299.632812 420.199219 300.441406 411.058594 301.167969 402.003906 C 301.734375 395.453125 302.222656 388.902344 302.707031 382.433594 C 303.675781 370.140625 304.566406 357.851562 305.457031 345.640625 C 306.023438 338.363281 306.507812 331.164062 306.992188 323.886719 C 307.960938 310.140625 309.417969 296.472656 311.195312 282.890625 C 313.703125 263.804688 317.019531 244.800781 320.980469 225.960938 C 323.40625 214.398438 325.996094 202.832031 330.039062 191.671875 C 331.25 188.277344 332.707031 184.960938 334.40625 181.808594 C 335.214844 180.273438 336.183594 178.816406 337.234375 177.359375 C 338.609375 175.5 339.984375 174.449219 342.574219 175.257812 C 345.886719 176.226562 349.363281 175.984375 352.84375 176.148438 C 354.78125 176.226562 356.804688 176.792969 358.746094 175.984375 C 361.414062 177.199219 363.4375 175.339844 365.457031 174.449219 C 374.191406 191.027344 380.984375 208.171875 385.269531 226.285156 C 389.070312 242.132812 392.0625 258.144531 394.8125 274.238281 C 398.613281 296.636719 402.089844 319.035156 405.96875 341.355469 C 411.308594 372.488281 419.234375 403.054688 429.582031 432.894531 C 435.890625 451.089844 442.035156 469.363281 449.476562 487.074219 C 452.792969 494.996094 456.347656 502.761719 460.878906 510.039062 C 461.929688 511.738281 463.0625 513.355469 464.191406 514.972656 C 464.839844 515.78125 464.839844 516.347656 464.355469 516.992188 Z M 464.355469 516.992188 " fill-opacity="1" fill-rule="nonzero"/></g><path fill="#000000" d="M 328.746094 173.238281 C 327.046875 174.367188 325.671875 175.742188 324.539062 177.441406 C 321.0625 182.375 318.796875 187.875 317.101562 193.695312 C 316.859375 194.503906 316.535156 195.394531 317.179688 196.363281 C 318.152344 195.878906 318.3125 195.070312 318.636719 194.34375 C 319.605469 192.160156 320.496094 189.976562 321.464844 187.792969 C 323.085938 184.152344 324.539062 180.433594 326.882812 177.117188 C 327.53125 176.148438 328.257812 175.097656 329.3125 174.449219 C 329.957031 174.046875 330.765625 173.15625 331.414062 174.609375 C 331.574219 174.933594 331.980469 174.773438 332.140625 174.449219 C 332.707031 173.480469 332.140625 172.429688 331.007812 172.429688 C 330.121094 172.347656 329.390625 172.75 328.746094 173.238281 Z M 328.746094 173.238281 " fill-opacity="1" fill-rule="nonzero"/><path fill="#000000" d="M 382.117188 128.355469 C 383.8125 125.605469 385.59375 122.859375 387.855469 120.433594 C 390.6875 117.277344 394.082031 115.015625 398.207031 113.800781 C 398.371094 113.71875 398.53125 113.71875 398.691406 113.71875 C 399.097656 113.558594 399.742188 113.476562 399.664062 112.910156 C 399.582031 112.183594 398.855469 112.34375 398.289062 112.34375 C 397.5625 112.34375 396.914062 112.589844 396.1875 112.832031 C 394.570312 113.476562 393.03125 114.367188 391.578125 115.417969 C 388.503906 117.761719 385.835938 120.511719 383.8125 123.828125 C 379.609375 130.863281 374.675781 137.332031 367.800781 142.183594 C 367.722656 142.265625 367.722656 142.347656 367.480469 142.589844 C 367.964844 142.507812 368.125 142.507812 368.289062 142.425781 C 368.609375 142.183594 368.933594 141.941406 369.257812 141.78125 C 374.351562 138.058594 378.800781 133.773438 382.117188 128.355469 Z M 382.117188 128.355469 " fill-opacity="1" fill-rule="nonzero"/><path fill="#000000" d="M 344.59375 141.941406 C 347.585938 139.113281 350.738281 136.363281 353.410156 133.128906 C 353.894531 132.5625 354.21875 131.996094 354.621094 131.347656 C 354.78125 131.105469 354.78125 130.703125 354.621094 130.460938 C 354.296875 130.054688 353.894531 130.136719 353.570312 130.296875 C 353.246094 130.378906 353.003906 130.539062 352.679688 130.703125 C 347.34375 134.179688 342.976562 138.464844 340.066406 144.207031 C 339.660156 145.015625 339.09375 145.824219 339.5 147.117188 C 340.957031 144.933594 342.894531 143.558594 344.59375 141.941406 Z M 352.355469 132.238281 C 349.609375 136.121094 345.96875 139.191406 342.574219 142.425781 C 344.917969 138.222656 348.3125 134.90625 352.355469 132.238281 Z M 352.355469 132.238281 " fill-opacity="1" fill-rule="nonzero"/><path fill="#000000" d="M 387.695312 263.804688 C 385.027344 249.734375 382.519531 235.664062 379.125 221.835938 C 376.375 210.839844 372.898438 200.003906 367.882812 189.8125 C 366.75 187.628906 365.617188 185.367188 364.164062 183.34375 C 363.597656 182.617188 363.191406 181.726562 361.980469 181.566406 C 361.738281 182.535156 362.304688 183.183594 362.628906 183.828125 C 368.609375 195.472656 372.898438 207.683594 376.210938 220.378906 C 381.226562 239.546875 385.105469 258.953125 389.152344 278.359375 C 389.394531 279.574219 389.394531 280.867188 390.203125 282 C 390.6875 281.433594 390.445312 280.867188 390.363281 280.382812 C 389.554688 274.882812 388.746094 269.304688 387.695312 263.804688 Z M 387.695312 263.804688 " fill-opacity="1" fill-rule="nonzero"/><path fill="#000000" d="M 406.859375 480.847656 C 408.476562 495.804688 409.769531 510.847656 411.792969 525.808594 C 412.683594 532.195312 413.410156 538.664062 414.21875 545.054688 C 414.300781 545.621094 414.136719 546.347656 415.027344 546.75 C 415.027344 546.105469 415.109375 545.457031 415.027344 544.8125 C 414.378906 537.773438 413.894531 530.660156 413.003906 523.625 C 411.308594 509.796875 409.769531 495.886719 408.316406 481.980469 C 407.992188 479.230469 407.75 476.398438 407.425781 473.648438 C 407.34375 473.246094 407.34375 472.761719 406.777344 472.761719 C 406.375 472.761719 406.132812 473.246094 406.132812 473.648438 C 406.132812 474.214844 406.132812 474.78125 406.214844 475.347656 C 406.375 477.207031 406.617188 478.988281 406.859375 480.847656 Z M 406.859375 480.847656 " fill-opacity="1" fill-rule="nonzero"/><path fill="#000000" d="M 358.019531 194.019531 C 357.289062 190.703125 356.722656 187.308594 355.671875 184.074219 C 355.269531 182.859375 354.863281 181.648438 354.054688 180.675781 C 353.8125 180.351562 353.488281 180.027344 353.085938 180.351562 C 352.761719 180.59375 352.921875 180.917969 353.003906 181.242188 C 353.410156 182.617188 353.894531 183.992188 354.21875 185.367188 C 355.511719 190.378906 356.722656 195.394531 357.9375 200.40625 C 358.097656 200.972656 358.097656 201.621094 358.828125 202.105469 C 359.148438 200.890625 358.90625 199.839844 358.746094 198.789062 C 358.582031 197.089844 358.339844 195.554688 358.019531 194.019531 Z M 358.019531 194.019531 " fill-opacity="1" fill-rule="nonzero"/><path fill="#000000" d="M 345.886719 179.785156 C 345.078125 179.867188 344.59375 180.433594 344.191406 181 C 343.136719 182.375 342.492188 183.910156 341.84375 185.445312 C 339.660156 191.027344 337.640625 196.605469 336.101562 202.429688 C 335.699219 204.046875 335.132812 205.664062 335.132812 207.605469 C 335.78125 206.957031 335.859375 206.308594 336.023438 205.664062 C 338.042969 198.871094 340.308594 192.160156 343.21875 185.691406 C 344.027344 183.992188 344.675781 182.132812 346.535156 181.160156 C 346.859375 181 347.019531 180.675781 346.859375 180.351562 C 346.617188 179.949219 346.292969 179.707031 345.886719 179.785156 Z M 345.886719 179.785156 " fill-opacity="1" fill-rule="nonzero"/><path fill="#000000" d="M 263.972656 455.375 C 263.972656 455.050781 263.972656 454.726562 263.566406 454.644531 C 263.082031 454.484375 262.839844 454.808594 262.679688 455.210938 C 262.273438 456.828125 261.871094 458.445312 261.546875 460.0625 C 259.121094 473.246094 256.371094 486.34375 252.488281 499.203125 C 252.40625 499.527344 252.164062 499.929688 252.488281 500.253906 C 252.894531 500.253906 252.972656 499.851562 253.136719 499.605469 C 254.027344 497.910156 254.589844 496.050781 255.15625 494.269531 C 259.039062 482.222656 261.546875 469.769531 263.808594 457.316406 C 263.972656 456.667969 263.972656 456.019531 263.972656 455.375 Z M 263.972656 455.375 " fill-opacity="1" fill-rule="nonzero"/><path fill="#000000" d="M 343.460938 493.058594 C 342.167969 495.96875 340.957031 523.867188 342.007812 531.226562 C 342.574219 530.253906 342.574219 529.121094 342.652344 528.070312 C 342.816406 521.359375 343.136719 514.648438 343.542969 507.9375 C 343.785156 503.730469 343.945312 499.445312 344.109375 495.242188 C 344.027344 494.511719 344.351562 493.625 343.460938 493.058594 Z M 343.460938 493.058594 " fill-opacity="1" fill-rule="nonzero"/><path fill="#100f0d" d="M 578.453125 305.007812 C 576.148438 303.359375 573.84375 301.707031 571.539062 300.054688 C 569.191406 298.375 566.640625 296.363281 566.289062 293.496094 C 567.082031 292.972656 568.117188 293.605469 568.851562 294.21875 C 573.742188 298.289062 578.546875 302.460938 583.269531 306.730469 C 581.550781 307.109375 579.882812 306.035156 578.453125 305.007812 " fill-opacity="1" fill-rule="nonzero"/><path fill="#100f0d" d="M 583.175781 214.492188 C 582.960938 209.675781 582.75 204.863281 582.535156 200.050781 C 582.335938 195.511719 582.132812 190.96875 582.257812 186.425781 C 582.398438 181.339844 583.160156 175.804688 586.828125 172.269531 C 584.835938 183.828125 584.324219 195.636719 585.300781 207.324219 C 585.523438 209.960938 585.503906 213.230469 583.175781 214.492188 " fill-opacity="1" fill-rule="nonzero"/><path fill="#100f0d" d="M 583.453125 318.253906 C 579.28125 315.683594 575.117188 313.113281 570.949219 310.542969 C 569.738281 309.796875 568.453125 308.960938 567.941406 307.632812 C 571.917969 308.558594 575.710938 310.265625 579.046875 312.632812 C 581.035156 314.042969 582.972656 315.859375 583.453125 318.253906 " fill-opacity="1" fill-rule="nonzero"/><path fill="#100f0d" d="M 582.628906 265.148438 C 582.835938 264.675781 583.582031 264.722656 583.917969 265.109375 C 584.257812 265.496094 584.292969 266.054688 584.316406 266.566406 C 584.847656 278.550781 585.382812 290.539062 585.917969 302.527344 C 585.179688 303.132812 584.371094 301.847656 584.273438 300.902344 C 583.015625 289.019531 581.765625 277.0625 582.628906 265.148438 " fill-opacity="1" fill-rule="nonzero"/><path fill="#100f0d" d="M 580.421875 215.152344 C 580.582031 215.589844 580.742188 216.035156 580.742188 216.5 C 580.734375 217.804688 579.515625 218.726562 578.417969 219.433594 C 576.394531 215.234375 575.882812 210.328125 576.996094 205.804688 C 578.136719 208.917969 579.28125 212.035156 580.421875 215.152344 " fill-opacity="1" fill-rule="nonzero"/><path fill="#100f0d" d="M 575.316406 185.257812 C 576.726562 189.851562 577.820312 194.542969 578.585938 199.285156 C 578.886719 201.148438 578.445312 203.835938 576.5625 203.746094 C 575.582031 197.636719 575.167969 191.4375 575.316406 185.257812 " fill-opacity="1" fill-rule="nonzero"/><path fill="#100f0d" d="M 578.738281 294.792969 C 575.785156 293.269531 573.226562 290.988281 571.378906 288.222656 C 571.050781 287.726562 571.191406 286.980469 571.679688 286.644531 C 574.417969 288.992188 576.800781 291.746094 578.738281 294.792969 " fill-opacity="1" fill-rule="nonzero"/><path fill="#100f0d" d="M 646.679688 249.460938 C 648.074219 246.910156 648.222656 242.917969 644.03125 243.882812 C 640.976562 244.589844 637.75 246.875 634.941406 248.292969 C 632.1875 249.679688 627.609375 253.195312 624.464844 252.5 C 623.253906 252.234375 621.859375 256.382812 622.75 256.582031 C 622.984375 256.632812 623.222656 256.664062 623.460938 256.679688 C 623.566406 258.285156 623.828125 259.886719 624.269531 261.4375 C 624.53125 262.351562 624.882812 263.304688 625.628906 263.898438 C 626.742188 264.777344 628.34375 264.578125 629.738281 264.296875 C 632.1875 263.800781 634.777344 263.097656 636.410156 261.207031 C 634.761719 260.238281 632.753906 261.410156 630.996094 262.164062 C 629.238281 262.917969 626.476562 262.699219 626.277344 260.796875 C 626.125 259.335938 625.832031 257.894531 625.414062 256.484375 C 628.058594 255.84375 630.777344 253.839844 632.929688 252.75 C 634.617188 251.902344 642.597656 246.820312 644.921875 248.433594 C 644.953125 250.8125 644.988281 253.191406 645.023438 255.570312 C 645.046875 256.957031 645.257812 258.648438 646.53125 259.183594 C 647.03125 256.085938 647 252.90625 646.46875 249.8125 C 646.535156 249.703125 646.601562 249.597656 646.679688 249.460938 " fill-opacity="1" fill-rule="nonzero"/><g clip-path="url(#31e78125a4)"><path fill="#100f0d" d="M 601.96875 133.445312 C 598.976562 133.121094 596.070312 132.015625 593.621094 130.261719 C 590.089844 131.683594 589.96875 136.570312 590.453125 140.347656 C 591.378906 147.597656 592.304688 154.84375 593.226562 162.089844 C 595.527344 158.484375 595.183594 153.863281 594.757812 149.609375 C 594.269531 144.761719 593.785156 139.914062 593.300781 135.066406 C 595.382812 133.554688 598.535156 135.113281 599.605469 137.449219 C 600.671875 139.789062 600.28125 142.503906 599.867188 145.042969 C 596.6875 164.558594 593.507812 184.070312 590.324219 203.582031 C 589.429688 209.089844 588.53125 214.609375 588.277344 220.183594 C 587.617188 234.847656 591.433594 249.304688 595.222656 263.488281 C 588.925781 258.226562 585.511719 250.152344 584.289062 242.039062 C 583.0625 233.925781 583.816406 225.65625 584.570312 217.484375 C 581.671875 223.039062 580.601562 229.527344 581.558594 235.71875 C 582.289062 240.445312 583.933594 246 580.648438 249.476562 C 583.15625 248.957031 584.578125 252.5625 583.765625 254.996094 C 583.105469 256.980469 574.84375 258.320312 571.714844 260.136719 C 572.230469 257.03125 572.71875 253.925781 573.195312 250.828125 C 574.921875 239.660156 576.648438 228.300781 575.136719 217.097656 C 573.84375 207.535156 570.238281 198.464844 567.308594 189.265625 C 562.683594 174.726562 559.71875 159.652344 558.492188 144.441406 C 569.554688 154.890625 561.464844 175.007812 569.980469 187.613281 C 569.875 168.480469 569.761719 149.351562 569.652344 130.21875 C 567.8125 131.992188 565.972656 133.765625 564.132812 135.539062 C 565.621094 136.917969 566.28125 139.125 565.792969 141.089844 C 563.929688 139.136719 562.070312 137.183594 560.207031 135.230469 C 563.480469 132.367188 566.753906 129.5 570.027344 126.636719 C 574.136719 135.648438 572.382812 146.078125 572.441406 155.984375 C 572.476562 162.109375 573.246094 168.226562 574.722656 174.171875 C 574.925781 171.117188 575.125 168.058594 575.324219 165.007812 C 576.921875 166.570312 578.511719 168.132812 580.109375 169.695312 C 577.964844 163.074219 575.824219 156.453125 573.683594 149.828125 C 577.253906 157.242188 580.90625 164.78125 586.515625 170.800781 C 586.769531 168.738281 587.027344 166.671875 587.28125 164.609375 C 583.53125 165.007812 582.59375 159.570312 582.9375 155.8125 C 583.648438 148.039062 583.335938 140.179688 582.050781 132.480469 C 583.304688 131.535156 584.53125 130.421875 585.996094 130.257812 C 586.382812 130.214844 586.773438 129.722656 587.085938 129.089844 C 588.824219 129.304688 590.582031 129.390625 592.335938 129.3125 C 591.253906 128.359375 591.089844 126.671875 591.554688 125.308594 C 592.023438 123.945312 593 122.824219 593.949219 121.742188 C 595.917969 119.507812 597.882812 117.277344 599.847656 115.046875 C 601.378906 113.308594 602.949219 111.5 603.648438 109.292969 C 603.734375 109.011719 603.800781 108.726562 603.855469 108.4375 C 604.421875 109.097656 604.996094 109.753906 605.558594 110.421875 C 605.765625 110.664062 606.066406 111 606.398438 111.390625 C 604.386719 118.617188 602.902344 125.996094 601.96875 133.445312 Z M 545.433594 248.507812 C 544.601562 264.757812 545.070312 281.070312 546.839844 297.242188 C 543.074219 296.949219 539.304688 296.648438 535.539062 296.355469 C 532.128906 274.578125 532.183594 252.265625 535.714844 230.507812 C 536.238281 227.273438 536.839844 224.054688 537.4375 220.835938 L 542.4375 193.996094 C 541.167969 195.515625 539.890625 197.039062 538.617188 198.558594 C 538.839844 184.554688 539.066406 170.546875 539.289062 156.542969 C 544.945312 186.8125 547.007812 217.753906 545.433594 248.507812 Z M 534.746094 302.273438 C 534.75 302.351562 534.75 302.4375 534.753906 302.515625 C 534.367188 301.6875 534.371094 300.742188 535.128906 300.125 C 535.355469 299.9375 535.613281 299.800781 535.886719 299.683594 C 535.3125 300.515625 534.730469 301.699219 534.746094 302.273438 Z M 619.175781 544.839844 C 620.753906 546.421875 622.328125 548 623.902344 549.582031 C 622.828125 550.996094 620.632812 551.394531 619.121094 550.457031 L 619.636719 549.976562 C 618.820312 548.414062 618.652344 546.523438 619.175781 544.839844 Z M 637.671875 543.609375 C 637.996094 543.570312 638.332031 543.496094 638.675781 543.402344 C 638.90625 543.757812 639.140625 544.117188 639.378906 544.476562 C 639.648438 544.890625 640.628906 546.695312 641.324219 548.414062 C 639.085938 550.566406 634.65625 550.5 632.988281 547.699219 C 631.917969 545.496094 635.242188 543.894531 637.671875 543.609375 Z M 673.269531 292.121094 C 669 261.664062 664.738281 231.144531 663.550781 200.378906 C 662.984375 185.742188 662.539062 171.273438 659.992188 156.8125 C 658.386719 147.652344 657.359375 135.917969 650.234375 129.167969 C 650.652344 128.992188 651.058594 128.808594 651.441406 128.617188 C 647.808594 125.84375 643.257812 124.632812 638.855469 123.398438 C 629.320312 120.722656 619.902344 117.652344 610.621094 114.199219 C 611.058594 109.117188 606.324219 105.175781 603.042969 101.359375 C 602.574219 100.8125 601.539062 102.207031 601.082031 103.488281 C 600.828125 103.839844 600.691406 104.324219 600.726562 104.761719 C 600.789062 105.601562 601.222656 106.382812 601.304688 107.21875 C 601.4375 108.515625 600.734375 109.734375 600.027344 110.828125 C 596.191406 116.75 591.421875 122.070312 585.953125 126.527344 C 585.019531 126.921875 584.191406 127.554688 583.382812 128.179688 C 582.777344 128.644531 582.164062 129.15625 581.492188 129.460938 C 581.355469 128.773438 581.21875 128.074219 581.066406 127.390625 C 576.179688 123.355469 574.75 116.804688 573.519531 110.191406 C 573.453125 110.210938 573.382812 110.234375 573.320312 110.253906 C 573.308594 110.261719 573.292969 110.269531 573.277344 110.28125 C 573.273438 110.273438 573.273438 110.269531 573.269531 110.269531 C 573.039062 110.332031 572.816406 110.40625 572.585938 110.46875 C 572.535156 110.484375 572.476562 110.488281 572.417969 110.496094 C 573.382812 116.957031 570.996094 124.285156 565.230469 127.300781 C 558.058594 131.0625 550.878906 134.824219 543.707031 138.585938 C 541.660156 139.65625 539.507812 140.828125 538.339844 142.820312 C 537.339844 144.519531 537.210938 146.578125 537.101562 148.546875 C 535.617188 175.972656 534.335938 203.410156 533.054688 230.84375 C 532.03125 252.753906 531.007812 274.667969 529.984375 296.582031 C 529.855469 299.296875 529.816406 302.285156 531.53125 304.390625 C 532.3125 305.351562 533.605469 305.875 534.84375 305.914062 C 534.914062 308.589844 534.984375 311.265625 535.054688 313.941406 C 535.132812 316.90625 534.851562 320.292969 536.078125 323.085938 C 537.402344 326.101562 540.363281 328.492188 542.574219 330.816406 C 545.191406 333.574219 547.804688 336.324219 550.421875 339.082031 C 551.21875 339.917969 553.21875 336.113281 552.449219 335.304688 C 550.015625 332.746094 547.589844 330.191406 545.160156 327.632812 C 543.070312 325.433594 540.230469 323.152344 538.714844 320.46875 C 537.050781 317.523438 537.332031 313.996094 537.246094 310.71875 C 537.199219 308.917969 537.152344 307.121094 537.101562 305.320312 C 537.582031 304.988281 537.949219 304.519531 538.117188 303.898438 C 537.789062 304.152344 537.429688 304.253906 537.074219 304.25 C 537.03125 302.605469 536.988281 300.964844 536.945312 299.320312 C 539.007812 298.707031 541.273438 298.410156 543.230469 299.28125 C 545.292969 300.195312 546.710938 302.796875 545.671875 304.796875 C 547.097656 302.710938 548.527344 300.621094 549.953125 298.535156 C 550.6875 308.601562 551.882812 318.636719 553.515625 328.597656 C 553.226562 343.832031 553.074219 359.074219 553.960938 374.285156 C 554.960938 391.378906 557.832031 408.003906 561.691406 424.65625 C 565.390625 440.585938 568.871094 456.398438 569.53125 472.796875 C 570.113281 487.269531 569.976562 502.355469 577.746094 515.144531 C 577.824219 515.273438 577.945312 515.28125 578.085938 515.222656 C 577.390625 517.234375 576.144531 519.058594 574.488281 520.394531 C 573.578125 521.121094 572.453125 522.351562 573.226562 523.21875 C 575.445312 522.835938 577.753906 523.019531 579.890625 523.738281 C 579.976562 525.726562 575.734375 524.707031 575.238281 526.636719 C 574.625 528.992188 571.453125 529.183594 569.035156 529.460938 C 566.089844 529.800781 563.25 531.035156 560.996094 532.964844 C 560.058594 533.765625 559.15625 534.9375 559.515625 536.117188 C 559.636719 536.511719 559.878906 536.816406 560.183594 537.0625 C 560.085938 537.65625 560.128906 538.105469 560.367188 538.121094 C 562.675781 538.277344 564.984375 538.429688 567.289062 538.585938 C 570.25 538.949219 573.214844 539.21875 576.1875 539.199219 C 578.667969 539.382812 581.234375 539.515625 583.582031 538.761719 C 583.65625 538.734375 583.726562 538.699219 583.800781 538.675781 C 586.445312 537.933594 589.015625 536.515625 590.753906 535.234375 C 593.128906 533.484375 594.996094 531.320312 596.464844 528.882812 C 597.25 528.855469 598.039062 528.898438 598.777344 528.992188 C 601.789062 529.367188 605.398438 529.816406 607.332031 527.484375 C 608.625 525.929688 608.609375 523.695312 608.425781 521.679688 C 608.164062 518.828125 607.6875 515.996094 607.015625 513.210938 C 607.027344 513.175781 607.039062 513.132812 607.046875 513.097656 C 609.363281 500.222656 605.644531 487.933594 603.066406 475.410156 C 602.9375 469.113281 602.917969 462.804688 601.152344 456.804688 C 601.03125 456.828125 600.925781 456.882812 600.820312 456.929688 C 600.484375 452.226562 600.191406 447.515625 599.636719 442.84375 C 599.859375 441.78125 599.882812 440.703125 599.582031 439.597656 C 595.027344 422.796875 602.226562 404.414062 597.363281 387.699219 C 595.832031 382.4375 595.632812 376.894531 595.445312 371.421875 C 595.222656 364.992188 594.996094 358.5625 594.773438 352.132812 C 594.542969 345.574219 594.550781 338.347656 598.480469 333.199219 C 601.789062 340.214844 602.4375 348.0625 603.507812 355.660156 C 604.6875 364.003906 605.863281 372.339844 607.042969 380.679688 C 609.3125 396.753906 612.175781 412.882812 613.367188 429.085938 C 614.5625 445.328125 614.054688 461.671875 615.019531 477.941406 C 615.875 492.359375 617.214844 506.742188 618.617188 521.121094 C 618.433594 530.601562 617.851562 540.078125 616.859375 549.515625 C 616.53125 552.652344 618.921875 555.566406 621.789062 556.882812 C 624.65625 558.191406 627.921875 558.257812 631.074219 558.300781 C 634.761719 558.351562 638.738281 558.3125 641.699219 556.117188 C 643.246094 554.976562 644.210938 553.011719 644.347656 551.113281 C 644.570312 550.265625 644.683594 549.441406 644.667969 548.789062 C 644.640625 547.714844 644.4375 546.699219 644.117188 545.722656 C 644.386719 545.097656 644.539062 544.476562 644.394531 544.070312 C 643.585938 541.746094 642.511719 539.640625 641.179688 537.695312 C 640.582031 535.757812 640.804688 533.511719 640.554688 531.4375 C 640.460938 530.671875 640.210938 529.875 639.847656 529.148438 C 640.425781 528.605469 641.160156 527.417969 641.285156 526.777344 C 643.863281 513.117188 645.503906 499.609375 644.433594 485.699219 C 643.300781 470.980469 640.785156 456.4375 640.058594 441.675781 C 639.285156 425.980469 639.757812 410.222656 641.445312 394.601562 C 643.054688 379.742188 646.59375 365.152344 647.980469 350.273438 C 649.441406 334.59375 647.179688 319.039062 644.613281 303.601562 C 645.316406 300.890625 646.179688 298.230469 647.191406 295.621094 C 647.199219 295.621094 647.207031 295.625 647.210938 295.625 C 652.605469 295.027344 658.6875 294.792969 663.945312 296.445312 C 667.171875 297.457031 667.558594 298.742188 666.027344 301.582031 C 664.988281 303.515625 663.546875 305.289062 662.414062 307.183594 C 657.730469 314.992188 654.15625 323.375 651.640625 332.121094 C 650.800781 335.027344 652.949219 333.363281 653.453125 331.609375 C 655.332031 325.09375 657.800781 318.800781 661.03125 312.828125 C 663.441406 308.378906 667.332031 304.25 669.171875 299.546875 C 671.398438 293.871094 666.523438 291.835938 660.789062 291.257812 C 657.203125 290.371094 653.40625 290.34375 649.824219 291.257812 C 651.988281 288.394531 656.027344 287.117188 659.441406 288.207031 C 657.222656 285.929688 653.820312 284.875 650.703125 285.5 C 651.671875 264.6875 651.109375 243.796875 649.023438 223.0625 C 652.136719 224.480469 655.246094 225.898438 658.355469 227.316406 C 657.960938 224.429688 654.578125 223.226562 652.203125 221.539062 C 648.265625 218.746094 646.613281 213.765625 645.457031 209.070312 C 639.566406 185.144531 640.429688 159.589844 647.925781 136.113281 C 637.894531 158.089844 635.988281 183.664062 642.652344 206.886719 C 650.371094 233.808594 650.898438 262.386719 647.59375 290.195312 C 647.359375 290.070312 646.839844 290.585938 646.375 291.230469 C 646.203125 288.925781 646.027344 286.625 645.855469 284.320312 C 645.804688 283.6875 645.097656 282.851562 644.773438 283.402344 C 645.457031 288.804688 644.878906 294.367188 643.09375 299.511719 C 643.164062 299.480469 643.226562 299.433594 643.292969 299.398438 C 641.097656 304.050781 637.792969 308.054688 633.613281 311.332031 C 632.765625 311.996094 631.78125 315.988281 632.84375 315.152344 C 635.941406 312.722656 638.597656 309.902344 640.808594 306.785156 C 640.765625 313.171875 641.320312 319.558594 642.464844 325.839844 C 644.078125 325.25 644.195312 323.046875 644.023438 321.335938 C 643.613281 317.238281 643.203125 313.140625 642.792969 309.039062 C 644.945312 322.066406 646.835938 335.222656 646.09375 348.453125 C 645.273438 363.078125 641.65625 377.40625 639.839844 391.917969 C 636.214844 420.835938 637.691406 449.207031 641.132812 478.039062 C 642.113281 486.246094 642.902344 494.5 642.582031 502.773438 C 642.25 511.320312 640.816406 519.761719 639.238281 528.148438 C 638.285156 526.871094 636.929688 526.070312 635.460938 526.566406 C 631.808594 527.800781 627.5625 528.976562 624.292969 526.917969 C 622.855469 526.015625 621.917969 524.6875 621.320312 523.148438 C 621.011719 520.03125 620.710938 516.917969 620.410156 513.800781 C 621.257812 494.375 622.207031 474.703125 628.019531 456.152344 C 627.046875 469.664062 626.078125 483.175781 625.105469 496.6875 C 624.449219 505.785156 623.808594 515.074219 626.125 523.898438 C 629.132812 486.324219 630.652344 448.628906 630.675781 410.929688 C 627.035156 435.3125 623.390625 459.691406 619.746094 484.066406 C 618.957031 481.839844 618.167969 479.609375 617.382812 477.378906 C 617.324219 476.492188 617.261719 475.605469 617.210938 474.714844 C 617.097656 472.824219 617.011719 470.929688 616.933594 469.035156 C 617.808594 465.378906 617.90625 461.539062 617.191406 457.847656 C 616.988281 458.398438 616.808594 458.957031 616.652344 459.523438 C 616.445312 449.972656 616.398438 440.417969 615.878906 430.890625 C 616.503906 433.527344 617.230469 436.136719 618.109375 438.703125 C 618.148438 425.625 619.089844 412.546875 620.929688 399.59375 C 620.011719 398.511719 618.53125 400.269531 618.242188 401.660156 C 617.230469 406.433594 616.222656 411.203125 615.21875 415.980469 C 611.910156 405.0625 616.949219 392.777344 613.027344 382.066406 C 612.433594 380.449219 611.9375 378.09375 613.539062 377.464844 C 614.035156 377.273438 614.660156 377.308594 614.992188 376.894531 C 615.40625 376.378906 615.035156 375.632812 614.660156 375.089844 C 612.875 372.527344 611.089844 369.957031 609.308594 367.386719 L 609.8125 373.71875 C 610.246094 379.152344 610.679688 384.585938 611.109375 390.015625 C 610.308594 384.675781 609.496094 379.335938 608.746094 374.007812 L 606.589844 358.742188 C 608.105469 362.546875 610.332031 365.960938 613.746094 368.125 C 611.550781 362.617188 609.355469 357.105469 607.160156 351.597656 C 608.746094 353.863281 610.804688 355.792969 613.171875 357.222656 C 611.113281 351.070312 608.023438 345.261719 604.070312 340.117188 C 607.527344 340.84375 611.15625 340.726562 614.5625 339.78125 C 608.789062 338.398438 603.671875 334.503906 600.800781 329.304688 C 605.691406 329.78125 610.582031 330.257812 615.476562 330.734375 C 610.429688 327.929688 605.382812 325.125 600.335938 322.320312 C 605.910156 322.582031 611.421875 323.980469 616.453125 326.402344 C 614.148438 323.347656 610.75 321.140625 607.023438 320.277344 C 611.167969 320.191406 615.308594 320.101562 619.453125 320.015625 C 613.445312 317.292969 606.625 316.40625 600.117188 317.492188 C 597.191406 317.984375 593.542969 318.605469 591.796875 316.199219 C 593.339844 316.199219 594.878906 315.804688 596.234375 315.066406 C 594.40625 313.441406 591.992188 312.496094 589.550781 312.445312 C 588.253906 315.980469 589.550781 320.296875 592.574219 322.535156 C 594.210938 323.746094 596.273438 324.394531 597.644531 325.898438 C 599.019531 327.402344 599.121094 330.359375 597.199219 331.035156 C 597.53125 327.195312 593.273438 324.761719 589.652344 323.4375 C 581.957031 320.625 574.097656 318.257812 566.132812 316.335938 C 569.925781 320.675781 576.058594 321.851562 581.628906 323.324219 C 587.199219 324.789062 593.285156 327.417969 595.191406 332.855469 C 592.695312 334.90625 592.476562 338.582031 592.46875 341.8125 C 592.394531 371.191406 593.359375 400.570312 595.351562 429.878906 C 595.460938 431.472656 595.617188 433.140625 595.988281 434.707031 C 595.777344 435.238281 595.660156 435.738281 595.730469 436.039062 C 596.144531 437.796875 596.484375 439.566406 596.769531 441.339844 C 593.394531 445.566406 592.417969 451.691406 594.550781 456.691406 C 594.117188 453.527344 595.964844 450.589844 597.585938 447.667969 C 597.71875 448.933594 597.824219 450.207031 597.929688 451.476562 C 597.902344 451.546875 597.875 451.613281 597.851562 451.679688 C 596.84375 454.480469 595.828125 457.28125 594.820312 460.078125 C 593.769531 462.984375 592.96875 466.824219 595.449219 468.671875 C 595.160156 465.722656 595.707031 462.695312 597.007812 460.03125 C 597.414062 459.203125 597.890625 458.40625 598.359375 457.609375 C 598.519531 459.996094 598.679688 462.386719 598.882812 464.769531 C 598.324219 468.1875 597.339844 471.535156 595.929688 474.699219 C 594.921875 476.953125 595.171875 479.554688 595.511719 482.003906 C 596.390625 488.316406 597.738281 494.5625 599.542969 500.675781 C 600.242188 503.042969 600.257812 505.605469 599.589844 507.980469 C 600.59375 508.46875 601.316406 506.929688 601.386719 505.816406 C 601.738281 500.253906 602.089844 494.691406 602.441406 489.132812 C 604.339844 493.925781 604.480469 499.207031 604.59375 504.363281 C 604.902344 503.332031 605.132812 502.28125 605.300781 501.21875 C 605.609375 504.222656 605.707031 507.234375 605.492188 510.265625 C 604.417969 509.617188 602.972656 509.980469 601.726562 510.328125 C 594.667969 512.296875 587.226562 512.144531 579.890625 511.867188 C 579.886719 511.671875 579.855469 511.503906 579.773438 511.371094 C 579.484375 510.898438 579.234375 510.414062 578.96875 509.9375 C 579.640625 507.183594 579.300781 504.191406 577.988281 501.675781 C 577.386719 503.429688 577.253906 505.324219 577.546875 507.148438 C 571.941406 495.042969 572.25 481.296875 571.660156 468.105469 C 570.949219 452.222656 567.464844 436.867188 563.882812 421.433594 C 560.152344 405.347656 557.308594 389.292969 556.257812 372.789062 C 555.554688 361.773438 555.429688 350.734375 555.523438 339.695312 C 555.835938 341.277344 556.15625 342.855469 556.488281 344.425781 C 558.648438 337.871094 555.335938 330.679688 556.386719 323.855469 C 557.6875 315.417969 565.527344 307.800781 563.027344 299.636719 C 561.640625 303.550781 559.527344 307.210938 556.832031 310.367188 C 552.28125 300.96875 554.386719 289.851562 556.582031 279.640625 C 553.390625 282.808594 551.492188 287.246094 551.40625 291.746094 C 548.054688 286.015625 554.644531 279.597656 555.792969 273.058594 C 556.550781 268.703125 554.789062 264.347656 554.214844 259.960938 C 552.460938 246.515625 561.859375 232.414062 556.667969 219.890625 C 558.816406 219.722656 558.023438 216.398438 556.886719 214.5625 C 552.738281 207.871094 552.976562 199.484375 552.804688 191.609375 C 552.605469 182.472656 551.679688 173.351562 550.03125 164.363281 C 549.589844 161.941406 549.070312 159.460938 547.746094 157.382812 C 545.824219 154.375 542.152344 151.222656 543.84375 148.078125 C 544.273438 149.25 545.179688 150.234375 546.308594 150.753906 C 545.714844 143.140625 551.820312 135.613281 559.390625 134.628906 C 558.304688 137.207031 559.597656 140.535156 562.140625 141.695312 C 560.261719 142.628906 557.671875 141.488281 557.09375 139.476562 C 554.898438 139.488281 552.964844 141.636719 553.183594 143.820312 C 553.882812 143.226562 554.582031 142.636719 555.277344 142.042969 C 557.75 163.734375 562.46875 185.164062 569.335938 205.882812 C 571.792969 213.300781 574.5625 220.976562 573.539062 228.71875 C 573.292969 227.390625 572.597656 226.148438 571.589844 225.25 C 570.089844 226.96875 569.597656 229.515625 570.347656 231.671875 C 571.566406 231.351562 572.78125 231.027344 574 230.703125 C 569.820312 239.847656 565.644531 248.988281 561.464844 258.136719 C 564.71875 253.925781 567.972656 249.71875 571.222656 245.515625 C 570.046875 250.925781 568.871094 256.335938 567.695312 261.746094 C 565.347656 272.554688 562.976562 283.425781 558.792969 293.660156 C 557.3125 297.277344 555.675781 301.65625 557.980469 304.8125 C 565.546875 291.535156 568.964844 276.457031 571.523438 261.300781 C 577.300781 260.773438 590.996094 264.964844 593.105469 269.3125 C 595.347656 273.941406 595.625 279.230469 596.570312 284.285156 C 598.261719 293.339844 602.257812 301.953125 608.066406 309.101562 C 610.824219 312.488281 614.105469 315.628906 618.191406 317.164062 C 622.277344 318.699219 627.300781 318.324219 630.480469 315.335938 C 627.46875 316.996094 623.5625 316.164062 620.777344 314.144531 C 617.988281 312.121094 616.109375 309.109375 614.417969 306.113281 C 604.636719 288.808594 598.839844 269.519531 594.785156 250.058594 C 593.351562 243.191406 592.125 236.25 591.910156 229.238281 C 591.6875 221.867188 592.585938 214.515625 593.492188 207.195312 C 596.96875 179.082031 600.589844 150.957031 606.195312 123.199219 C 606.558594 122.933594 606.890625 122.339844 607.007812 122.105469 C 607.609375 120.910156 608.15625 119.6875 608.65625 118.453125 C 609.273438 118.359375 609.863281 117.0625 610.007812 116.703125 C 610.238281 116.148438 610.378906 115.609375 610.484375 115.078125 C 611.414062 116.578125 613.570312 117.289062 615.242188 118.207031 C 618.394531 119.945312 620.421875 123.515625 620.390625 127.105469 C 620.003906 127.992188 619.628906 128.878906 619.261719 129.773438 C 617.960938 130.957031 616.039062 131.855469 616.753906 133.285156 C 617.199219 133.1875 617.628906 133.035156 618.046875 132.855469 C 615.988281 138.21875 614.253906 143.695312 612.859375 149.28125 C 611.699219 153.90625 610.796875 158.589844 610.121094 163.308594 C 609.835938 165.304688 609.636719 167.324219 609.21875 169.300781 C 608.378906 173.257812 605.726562 175.660156 602.878906 178.265625 C 602.621094 178.503906 602.34375 179.097656 602.125 179.753906 C 601.367188 180.707031 600.484375 182.675781 601.175781 183.34375 L 605.175781 187.207031 C 603.605469 190.480469 603.492188 194.734375 602.945312 198.042969 C 601.632812 206.027344 600.40625 214.027344 599.25 222.035156 C 598.847656 224.839844 601.152344 221.714844 601.332031 220.488281 C 602.128906 214.964844 602.957031 209.445312 603.828125 203.933594 C 604.222656 201.453125 604.617188 198.972656 605.027344 196.496094 C 605.289062 194.917969 605.421875 190.398438 606.460938 188.457031 C 606.546875 188.535156 606.628906 188.613281 606.710938 188.695312 C 607.160156 189.128906 609.117188 186.03125 608.578125 184.84375 C 609.03125 183.875 609.273438 182.71875 608.964844 182.351562 C 607.738281 180.902344 606.128906 180.160156 604.257812 180.140625 C 606.285156 178.269531 608.140625 176.359375 609.378906 173.738281 C 611.398438 169.480469 611.734375 164.78125 612.433594 160.1875 C 613.945312 150.273438 616.625 140.632812 620.308594 131.347656 C 622.027344 129.71875 623.082031 127.355469 623.003906 124.996094 C 623.128906 124.714844 623.25 124.429688 623.378906 124.148438 C 623.417969 124.066406 623.445312 123.992188 623.476562 123.914062 C 624.378906 124.347656 625.097656 125.171875 625.363281 126.140625 C 626.242188 125.695312 626.902344 124.835938 627.105469 123.871094 C 631.648438 125.003906 636.195312 126.140625 640.738281 127.273438 C 641.976562 127.585938 643.292969 127.9375 644.152344 128.890625 C 644.53125 129.316406 644.984375 129.589844 645.484375 129.757812 C 645.359375 130.351562 645.394531 130.851562 645.714844 131.054688 C 656.027344 137.550781 656.761719 153.355469 658.507812 164.175781 C 660.792969 178.378906 660.851562 192.691406 661.503906 207.023438 C 662.75 234.363281 666.351562 261.511719 670.132812 288.59375 C 669.691406 288.492188 669.242188 288.425781 668.792969 288.363281 C 668.046875 288.257812 667.296875 288.152344 666.550781 288.046875 C 667.523438 289.742188 668.855469 291.230469 670.433594 292.394531 C 670.511719 292.492188 670.597656 292.570312 670.699219 292.632812 C 670.824219 293.535156 670.953125 294.441406 671.074219 295.34375 C 671.269531 296.695312 673.421875 293.214844 673.269531 292.121094 " fill-opacity="1" fill-rule="nonzero"/></g></svg>